G04 #@! TF.GenerationSoftware,KiCad,Pcbnew,5.1.5+dfsg1-2build2*
G04 #@! TF.CreationDate,2021-03-19T14:08:30-04:00*
G04 #@! TF.ProjectId,hawk,6861776b-2e6b-4696-9361-645f70636258,rev?*
G04 #@! TF.SameCoordinates,Original*
G04 #@! TF.FileFunction,Copper,L1,Top*
G04 #@! TF.FilePolarity,Positive*
%FSLAX46Y46*%
G04 Gerber Fmt 4.6, Leading zero omitted, Abs format (unit mm)*
G04 Created by KiCad (PCBNEW 5.1.5+dfsg1-2build2) date 2021-03-19 14:08:30*
%MOMM*%
%LPD*%
G04 APERTURE LIST*
%ADD10C,0.100000*%
%ADD11R,1.700000X1.700000*%
%ADD12O,1.700000X1.700000*%
%ADD13O,1.750000X1.200000*%
%ADD14C,2.000000*%
%ADD15R,0.900000X0.800000*%
%ADD16C,0.250000*%
G04 APERTURE END LIST*
G04 #@! TA.AperFunction,SMDPad,CuDef*
D10*
G36*
X135094505Y-89351204D02*
G01*
X135118773Y-89354804D01*
X135142572Y-89360765D01*
X135165671Y-89369030D01*
X135187850Y-89379520D01*
X135208893Y-89392132D01*
X135228599Y-89406747D01*
X135246777Y-89423223D01*
X135263253Y-89441401D01*
X135277868Y-89461107D01*
X135290480Y-89482150D01*
X135300970Y-89504329D01*
X135309235Y-89527428D01*
X135315196Y-89551227D01*
X135318796Y-89575495D01*
X135320000Y-89599999D01*
X135320000Y-90250001D01*
X135318796Y-90274505D01*
X135315196Y-90298773D01*
X135309235Y-90322572D01*
X135300970Y-90345671D01*
X135290480Y-90367850D01*
X135277868Y-90388893D01*
X135263253Y-90408599D01*
X135246777Y-90426777D01*
X135228599Y-90443253D01*
X135208893Y-90457868D01*
X135187850Y-90470480D01*
X135165671Y-90480970D01*
X135142572Y-90489235D01*
X135118773Y-90495196D01*
X135094505Y-90498796D01*
X135070001Y-90500000D01*
X134169999Y-90500000D01*
X134145495Y-90498796D01*
X134121227Y-90495196D01*
X134097428Y-90489235D01*
X134074329Y-90480970D01*
X134052150Y-90470480D01*
X134031107Y-90457868D01*
X134011401Y-90443253D01*
X133993223Y-90426777D01*
X133976747Y-90408599D01*
X133962132Y-90388893D01*
X133949520Y-90367850D01*
X133939030Y-90345671D01*
X133930765Y-90322572D01*
X133924804Y-90298773D01*
X133921204Y-90274505D01*
X133920000Y-90250001D01*
X133920000Y-89599999D01*
X133921204Y-89575495D01*
X133924804Y-89551227D01*
X133930765Y-89527428D01*
X133939030Y-89504329D01*
X133949520Y-89482150D01*
X133962132Y-89461107D01*
X133976747Y-89441401D01*
X133993223Y-89423223D01*
X134011401Y-89406747D01*
X134031107Y-89392132D01*
X134052150Y-89379520D01*
X134074329Y-89369030D01*
X134097428Y-89360765D01*
X134121227Y-89354804D01*
X134145495Y-89351204D01*
X134169999Y-89350000D01*
X135070001Y-89350000D01*
X135094505Y-89351204D01*
G37*
G04 #@! TD.AperFunction*
G04 #@! TA.AperFunction,SMDPad,CuDef*
G36*
X135094505Y-87301204D02*
G01*
X135118773Y-87304804D01*
X135142572Y-87310765D01*
X135165671Y-87319030D01*
X135187850Y-87329520D01*
X135208893Y-87342132D01*
X135228599Y-87356747D01*
X135246777Y-87373223D01*
X135263253Y-87391401D01*
X135277868Y-87411107D01*
X135290480Y-87432150D01*
X135300970Y-87454329D01*
X135309235Y-87477428D01*
X135315196Y-87501227D01*
X135318796Y-87525495D01*
X135320000Y-87549999D01*
X135320000Y-88200001D01*
X135318796Y-88224505D01*
X135315196Y-88248773D01*
X135309235Y-88272572D01*
X135300970Y-88295671D01*
X135290480Y-88317850D01*
X135277868Y-88338893D01*
X135263253Y-88358599D01*
X135246777Y-88376777D01*
X135228599Y-88393253D01*
X135208893Y-88407868D01*
X135187850Y-88420480D01*
X135165671Y-88430970D01*
X135142572Y-88439235D01*
X135118773Y-88445196D01*
X135094505Y-88448796D01*
X135070001Y-88450000D01*
X134169999Y-88450000D01*
X134145495Y-88448796D01*
X134121227Y-88445196D01*
X134097428Y-88439235D01*
X134074329Y-88430970D01*
X134052150Y-88420480D01*
X134031107Y-88407868D01*
X134011401Y-88393253D01*
X133993223Y-88376777D01*
X133976747Y-88358599D01*
X133962132Y-88338893D01*
X133949520Y-88317850D01*
X133939030Y-88295671D01*
X133930765Y-88272572D01*
X133924804Y-88248773D01*
X133921204Y-88224505D01*
X133920000Y-88200001D01*
X133920000Y-87549999D01*
X133921204Y-87525495D01*
X133924804Y-87501227D01*
X133930765Y-87477428D01*
X133939030Y-87454329D01*
X133949520Y-87432150D01*
X133962132Y-87411107D01*
X133976747Y-87391401D01*
X133993223Y-87373223D01*
X134011401Y-87356747D01*
X134031107Y-87342132D01*
X134052150Y-87329520D01*
X134074329Y-87319030D01*
X134097428Y-87310765D01*
X134121227Y-87304804D01*
X134145495Y-87301204D01*
X134169999Y-87300000D01*
X135070001Y-87300000D01*
X135094505Y-87301204D01*
G37*
G04 #@! TD.AperFunction*
G04 #@! TA.AperFunction,SMDPad,CuDef*
G36*
X132554505Y-97216204D02*
G01*
X132578773Y-97219804D01*
X132602572Y-97225765D01*
X132625671Y-97234030D01*
X132647850Y-97244520D01*
X132668893Y-97257132D01*
X132688599Y-97271747D01*
X132706777Y-97288223D01*
X132723253Y-97306401D01*
X132737868Y-97326107D01*
X132750480Y-97347150D01*
X132760970Y-97369329D01*
X132769235Y-97392428D01*
X132775196Y-97416227D01*
X132778796Y-97440495D01*
X132780000Y-97464999D01*
X132780000Y-98115001D01*
X132778796Y-98139505D01*
X132775196Y-98163773D01*
X132769235Y-98187572D01*
X132760970Y-98210671D01*
X132750480Y-98232850D01*
X132737868Y-98253893D01*
X132723253Y-98273599D01*
X132706777Y-98291777D01*
X132688599Y-98308253D01*
X132668893Y-98322868D01*
X132647850Y-98335480D01*
X132625671Y-98345970D01*
X132602572Y-98354235D01*
X132578773Y-98360196D01*
X132554505Y-98363796D01*
X132530001Y-98365000D01*
X131629999Y-98365000D01*
X131605495Y-98363796D01*
X131581227Y-98360196D01*
X131557428Y-98354235D01*
X131534329Y-98345970D01*
X131512150Y-98335480D01*
X131491107Y-98322868D01*
X131471401Y-98308253D01*
X131453223Y-98291777D01*
X131436747Y-98273599D01*
X131422132Y-98253893D01*
X131409520Y-98232850D01*
X131399030Y-98210671D01*
X131390765Y-98187572D01*
X131384804Y-98163773D01*
X131381204Y-98139505D01*
X131380000Y-98115001D01*
X131380000Y-97464999D01*
X131381204Y-97440495D01*
X131384804Y-97416227D01*
X131390765Y-97392428D01*
X131399030Y-97369329D01*
X131409520Y-97347150D01*
X131422132Y-97326107D01*
X131436747Y-97306401D01*
X131453223Y-97288223D01*
X131471401Y-97271747D01*
X131491107Y-97257132D01*
X131512150Y-97244520D01*
X131534329Y-97234030D01*
X131557428Y-97225765D01*
X131581227Y-97219804D01*
X131605495Y-97216204D01*
X131629999Y-97215000D01*
X132530001Y-97215000D01*
X132554505Y-97216204D01*
G37*
G04 #@! TD.AperFunction*
G04 #@! TA.AperFunction,SMDPad,CuDef*
G36*
X132554505Y-95166204D02*
G01*
X132578773Y-95169804D01*
X132602572Y-95175765D01*
X132625671Y-95184030D01*
X132647850Y-95194520D01*
X132668893Y-95207132D01*
X132688599Y-95221747D01*
X132706777Y-95238223D01*
X132723253Y-95256401D01*
X132737868Y-95276107D01*
X132750480Y-95297150D01*
X132760970Y-95319329D01*
X132769235Y-95342428D01*
X132775196Y-95366227D01*
X132778796Y-95390495D01*
X132780000Y-95414999D01*
X132780000Y-96065001D01*
X132778796Y-96089505D01*
X132775196Y-96113773D01*
X132769235Y-96137572D01*
X132760970Y-96160671D01*
X132750480Y-96182850D01*
X132737868Y-96203893D01*
X132723253Y-96223599D01*
X132706777Y-96241777D01*
X132688599Y-96258253D01*
X132668893Y-96272868D01*
X132647850Y-96285480D01*
X132625671Y-96295970D01*
X132602572Y-96304235D01*
X132578773Y-96310196D01*
X132554505Y-96313796D01*
X132530001Y-96315000D01*
X131629999Y-96315000D01*
X131605495Y-96313796D01*
X131581227Y-96310196D01*
X131557428Y-96304235D01*
X131534329Y-96295970D01*
X131512150Y-96285480D01*
X131491107Y-96272868D01*
X131471401Y-96258253D01*
X131453223Y-96241777D01*
X131436747Y-96223599D01*
X131422132Y-96203893D01*
X131409520Y-96182850D01*
X131399030Y-96160671D01*
X131390765Y-96137572D01*
X131384804Y-96113773D01*
X131381204Y-96089505D01*
X131380000Y-96065001D01*
X131380000Y-95414999D01*
X131381204Y-95390495D01*
X131384804Y-95366227D01*
X131390765Y-95342428D01*
X131399030Y-95319329D01*
X131409520Y-95297150D01*
X131422132Y-95276107D01*
X131436747Y-95256401D01*
X131453223Y-95238223D01*
X131471401Y-95221747D01*
X131491107Y-95207132D01*
X131512150Y-95194520D01*
X131534329Y-95184030D01*
X131557428Y-95175765D01*
X131581227Y-95169804D01*
X131605495Y-95166204D01*
X131629999Y-95165000D01*
X132530001Y-95165000D01*
X132554505Y-95166204D01*
G37*
G04 #@! TD.AperFunction*
G04 #@! TA.AperFunction,SMDPad,CuDef*
G36*
X138904505Y-87301204D02*
G01*
X138928773Y-87304804D01*
X138952572Y-87310765D01*
X138975671Y-87319030D01*
X138997850Y-87329520D01*
X139018893Y-87342132D01*
X139038599Y-87356747D01*
X139056777Y-87373223D01*
X139073253Y-87391401D01*
X139087868Y-87411107D01*
X139100480Y-87432150D01*
X139110970Y-87454329D01*
X139119235Y-87477428D01*
X139125196Y-87501227D01*
X139128796Y-87525495D01*
X139130000Y-87549999D01*
X139130000Y-88200001D01*
X139128796Y-88224505D01*
X139125196Y-88248773D01*
X139119235Y-88272572D01*
X139110970Y-88295671D01*
X139100480Y-88317850D01*
X139087868Y-88338893D01*
X139073253Y-88358599D01*
X139056777Y-88376777D01*
X139038599Y-88393253D01*
X139018893Y-88407868D01*
X138997850Y-88420480D01*
X138975671Y-88430970D01*
X138952572Y-88439235D01*
X138928773Y-88445196D01*
X138904505Y-88448796D01*
X138880001Y-88450000D01*
X137979999Y-88450000D01*
X137955495Y-88448796D01*
X137931227Y-88445196D01*
X137907428Y-88439235D01*
X137884329Y-88430970D01*
X137862150Y-88420480D01*
X137841107Y-88407868D01*
X137821401Y-88393253D01*
X137803223Y-88376777D01*
X137786747Y-88358599D01*
X137772132Y-88338893D01*
X137759520Y-88317850D01*
X137749030Y-88295671D01*
X137740765Y-88272572D01*
X137734804Y-88248773D01*
X137731204Y-88224505D01*
X137730000Y-88200001D01*
X137730000Y-87549999D01*
X137731204Y-87525495D01*
X137734804Y-87501227D01*
X137740765Y-87477428D01*
X137749030Y-87454329D01*
X137759520Y-87432150D01*
X137772132Y-87411107D01*
X137786747Y-87391401D01*
X137803223Y-87373223D01*
X137821401Y-87356747D01*
X137841107Y-87342132D01*
X137862150Y-87329520D01*
X137884329Y-87319030D01*
X137907428Y-87310765D01*
X137931227Y-87304804D01*
X137955495Y-87301204D01*
X137979999Y-87300000D01*
X138880001Y-87300000D01*
X138904505Y-87301204D01*
G37*
G04 #@! TD.AperFunction*
G04 #@! TA.AperFunction,SMDPad,CuDef*
G36*
X138904505Y-89351204D02*
G01*
X138928773Y-89354804D01*
X138952572Y-89360765D01*
X138975671Y-89369030D01*
X138997850Y-89379520D01*
X139018893Y-89392132D01*
X139038599Y-89406747D01*
X139056777Y-89423223D01*
X139073253Y-89441401D01*
X139087868Y-89461107D01*
X139100480Y-89482150D01*
X139110970Y-89504329D01*
X139119235Y-89527428D01*
X139125196Y-89551227D01*
X139128796Y-89575495D01*
X139130000Y-89599999D01*
X139130000Y-90250001D01*
X139128796Y-90274505D01*
X139125196Y-90298773D01*
X139119235Y-90322572D01*
X139110970Y-90345671D01*
X139100480Y-90367850D01*
X139087868Y-90388893D01*
X139073253Y-90408599D01*
X139056777Y-90426777D01*
X139038599Y-90443253D01*
X139018893Y-90457868D01*
X138997850Y-90470480D01*
X138975671Y-90480970D01*
X138952572Y-90489235D01*
X138928773Y-90495196D01*
X138904505Y-90498796D01*
X138880001Y-90500000D01*
X137979999Y-90500000D01*
X137955495Y-90498796D01*
X137931227Y-90495196D01*
X137907428Y-90489235D01*
X137884329Y-90480970D01*
X137862150Y-90470480D01*
X137841107Y-90457868D01*
X137821401Y-90443253D01*
X137803223Y-90426777D01*
X137786747Y-90408599D01*
X137772132Y-90388893D01*
X137759520Y-90367850D01*
X137749030Y-90345671D01*
X137740765Y-90322572D01*
X137734804Y-90298773D01*
X137731204Y-90274505D01*
X137730000Y-90250001D01*
X137730000Y-89599999D01*
X137731204Y-89575495D01*
X137734804Y-89551227D01*
X137740765Y-89527428D01*
X137749030Y-89504329D01*
X137759520Y-89482150D01*
X137772132Y-89461107D01*
X137786747Y-89441401D01*
X137803223Y-89423223D01*
X137821401Y-89406747D01*
X137841107Y-89392132D01*
X137862150Y-89379520D01*
X137884329Y-89369030D01*
X137907428Y-89360765D01*
X137931227Y-89354804D01*
X137955495Y-89351204D01*
X137979999Y-89350000D01*
X138880001Y-89350000D01*
X138904505Y-89351204D01*
G37*
G04 #@! TD.AperFunction*
G04 #@! TA.AperFunction,SMDPad,CuDef*
G36*
X141444505Y-97216204D02*
G01*
X141468773Y-97219804D01*
X141492572Y-97225765D01*
X141515671Y-97234030D01*
X141537850Y-97244520D01*
X141558893Y-97257132D01*
X141578599Y-97271747D01*
X141596777Y-97288223D01*
X141613253Y-97306401D01*
X141627868Y-97326107D01*
X141640480Y-97347150D01*
X141650970Y-97369329D01*
X141659235Y-97392428D01*
X141665196Y-97416227D01*
X141668796Y-97440495D01*
X141670000Y-97464999D01*
X141670000Y-98115001D01*
X141668796Y-98139505D01*
X141665196Y-98163773D01*
X141659235Y-98187572D01*
X141650970Y-98210671D01*
X141640480Y-98232850D01*
X141627868Y-98253893D01*
X141613253Y-98273599D01*
X141596777Y-98291777D01*
X141578599Y-98308253D01*
X141558893Y-98322868D01*
X141537850Y-98335480D01*
X141515671Y-98345970D01*
X141492572Y-98354235D01*
X141468773Y-98360196D01*
X141444505Y-98363796D01*
X141420001Y-98365000D01*
X140519999Y-98365000D01*
X140495495Y-98363796D01*
X140471227Y-98360196D01*
X140447428Y-98354235D01*
X140424329Y-98345970D01*
X140402150Y-98335480D01*
X140381107Y-98322868D01*
X140361401Y-98308253D01*
X140343223Y-98291777D01*
X140326747Y-98273599D01*
X140312132Y-98253893D01*
X140299520Y-98232850D01*
X140289030Y-98210671D01*
X140280765Y-98187572D01*
X140274804Y-98163773D01*
X140271204Y-98139505D01*
X140270000Y-98115001D01*
X140270000Y-97464999D01*
X140271204Y-97440495D01*
X140274804Y-97416227D01*
X140280765Y-97392428D01*
X140289030Y-97369329D01*
X140299520Y-97347150D01*
X140312132Y-97326107D01*
X140326747Y-97306401D01*
X140343223Y-97288223D01*
X140361401Y-97271747D01*
X140381107Y-97257132D01*
X140402150Y-97244520D01*
X140424329Y-97234030D01*
X140447428Y-97225765D01*
X140471227Y-97219804D01*
X140495495Y-97216204D01*
X140519999Y-97215000D01*
X141420001Y-97215000D01*
X141444505Y-97216204D01*
G37*
G04 #@! TD.AperFunction*
G04 #@! TA.AperFunction,SMDPad,CuDef*
G36*
X141444505Y-99266204D02*
G01*
X141468773Y-99269804D01*
X141492572Y-99275765D01*
X141515671Y-99284030D01*
X141537850Y-99294520D01*
X141558893Y-99307132D01*
X141578599Y-99321747D01*
X141596777Y-99338223D01*
X141613253Y-99356401D01*
X141627868Y-99376107D01*
X141640480Y-99397150D01*
X141650970Y-99419329D01*
X141659235Y-99442428D01*
X141665196Y-99466227D01*
X141668796Y-99490495D01*
X141670000Y-99514999D01*
X141670000Y-100165001D01*
X141668796Y-100189505D01*
X141665196Y-100213773D01*
X141659235Y-100237572D01*
X141650970Y-100260671D01*
X141640480Y-100282850D01*
X141627868Y-100303893D01*
X141613253Y-100323599D01*
X141596777Y-100341777D01*
X141578599Y-100358253D01*
X141558893Y-100372868D01*
X141537850Y-100385480D01*
X141515671Y-100395970D01*
X141492572Y-100404235D01*
X141468773Y-100410196D01*
X141444505Y-100413796D01*
X141420001Y-100415000D01*
X140519999Y-100415000D01*
X140495495Y-100413796D01*
X140471227Y-100410196D01*
X140447428Y-100404235D01*
X140424329Y-100395970D01*
X140402150Y-100385480D01*
X140381107Y-100372868D01*
X140361401Y-100358253D01*
X140343223Y-100341777D01*
X140326747Y-100323599D01*
X140312132Y-100303893D01*
X140299520Y-100282850D01*
X140289030Y-100260671D01*
X140280765Y-100237572D01*
X140274804Y-100213773D01*
X140271204Y-100189505D01*
X140270000Y-100165001D01*
X140270000Y-99514999D01*
X140271204Y-99490495D01*
X140274804Y-99466227D01*
X140280765Y-99442428D01*
X140289030Y-99419329D01*
X140299520Y-99397150D01*
X140312132Y-99376107D01*
X140326747Y-99356401D01*
X140343223Y-99338223D01*
X140361401Y-99321747D01*
X140381107Y-99307132D01*
X140402150Y-99294520D01*
X140424329Y-99284030D01*
X140447428Y-99275765D01*
X140471227Y-99269804D01*
X140495495Y-99266204D01*
X140519999Y-99265000D01*
X141420001Y-99265000D01*
X141444505Y-99266204D01*
G37*
G04 #@! TD.AperFunction*
D11*
X125730000Y-105410000D03*
D12*
X125730000Y-107950000D03*
X125730000Y-110490000D03*
X125730000Y-113030000D03*
X125730000Y-115570000D03*
X144780000Y-105410000D03*
X144780000Y-107950000D03*
X144780000Y-110490000D03*
X144780000Y-113030000D03*
D11*
X144780000Y-115570000D03*
X138430000Y-114300000D03*
D12*
X138430000Y-116840000D03*
X135890000Y-114300000D03*
X135890000Y-116840000D03*
X133350000Y-114300000D03*
X133350000Y-116840000D03*
G04 #@! TA.AperFunction,ComponentPad*
D10*
G36*
X126379505Y-95921204D02*
G01*
X126403773Y-95924804D01*
X126427572Y-95930765D01*
X126450671Y-95939030D01*
X126472850Y-95949520D01*
X126493893Y-95962132D01*
X126513599Y-95976747D01*
X126531777Y-95993223D01*
X126548253Y-96011401D01*
X126562868Y-96031107D01*
X126575480Y-96052150D01*
X126585970Y-96074329D01*
X126594235Y-96097428D01*
X126600196Y-96121227D01*
X126603796Y-96145495D01*
X126605000Y-96169999D01*
X126605000Y-96870001D01*
X126603796Y-96894505D01*
X126600196Y-96918773D01*
X126594235Y-96942572D01*
X126585970Y-96965671D01*
X126575480Y-96987850D01*
X126562868Y-97008893D01*
X126548253Y-97028599D01*
X126531777Y-97046777D01*
X126513599Y-97063253D01*
X126493893Y-97077868D01*
X126472850Y-97090480D01*
X126450671Y-97100970D01*
X126427572Y-97109235D01*
X126403773Y-97115196D01*
X126379505Y-97118796D01*
X126355001Y-97120000D01*
X125104999Y-97120000D01*
X125080495Y-97118796D01*
X125056227Y-97115196D01*
X125032428Y-97109235D01*
X125009329Y-97100970D01*
X124987150Y-97090480D01*
X124966107Y-97077868D01*
X124946401Y-97063253D01*
X124928223Y-97046777D01*
X124911747Y-97028599D01*
X124897132Y-97008893D01*
X124884520Y-96987850D01*
X124874030Y-96965671D01*
X124865765Y-96942572D01*
X124859804Y-96918773D01*
X124856204Y-96894505D01*
X124855000Y-96870001D01*
X124855000Y-96169999D01*
X124856204Y-96145495D01*
X124859804Y-96121227D01*
X124865765Y-96097428D01*
X124874030Y-96074329D01*
X124884520Y-96052150D01*
X124897132Y-96031107D01*
X124911747Y-96011401D01*
X124928223Y-95993223D01*
X124946401Y-95976747D01*
X124966107Y-95962132D01*
X124987150Y-95949520D01*
X125009329Y-95939030D01*
X125032428Y-95930765D01*
X125056227Y-95924804D01*
X125080495Y-95921204D01*
X125104999Y-95920000D01*
X126355001Y-95920000D01*
X126379505Y-95921204D01*
G37*
G04 #@! TD.AperFunction*
D13*
X125730000Y-94520000D03*
G04 #@! TA.AperFunction,SMDPad,CuDef*
D10*
G36*
X127474505Y-85541204D02*
G01*
X127498773Y-85544804D01*
X127522572Y-85550765D01*
X127545671Y-85559030D01*
X127567850Y-85569520D01*
X127588893Y-85582132D01*
X127608599Y-85596747D01*
X127626777Y-85613223D01*
X127643253Y-85631401D01*
X127657868Y-85651107D01*
X127670480Y-85672150D01*
X127680970Y-85694329D01*
X127689235Y-85717428D01*
X127695196Y-85741227D01*
X127698796Y-85765495D01*
X127700000Y-85789999D01*
X127700000Y-86440001D01*
X127698796Y-86464505D01*
X127695196Y-86488773D01*
X127689235Y-86512572D01*
X127680970Y-86535671D01*
X127670480Y-86557850D01*
X127657868Y-86578893D01*
X127643253Y-86598599D01*
X127626777Y-86616777D01*
X127608599Y-86633253D01*
X127588893Y-86647868D01*
X127567850Y-86660480D01*
X127545671Y-86670970D01*
X127522572Y-86679235D01*
X127498773Y-86685196D01*
X127474505Y-86688796D01*
X127450001Y-86690000D01*
X126549999Y-86690000D01*
X126525495Y-86688796D01*
X126501227Y-86685196D01*
X126477428Y-86679235D01*
X126454329Y-86670970D01*
X126432150Y-86660480D01*
X126411107Y-86647868D01*
X126391401Y-86633253D01*
X126373223Y-86616777D01*
X126356747Y-86598599D01*
X126342132Y-86578893D01*
X126329520Y-86557850D01*
X126319030Y-86535671D01*
X126310765Y-86512572D01*
X126304804Y-86488773D01*
X126301204Y-86464505D01*
X126300000Y-86440001D01*
X126300000Y-85789999D01*
X126301204Y-85765495D01*
X126304804Y-85741227D01*
X126310765Y-85717428D01*
X126319030Y-85694329D01*
X126329520Y-85672150D01*
X126342132Y-85651107D01*
X126356747Y-85631401D01*
X126373223Y-85613223D01*
X126391401Y-85596747D01*
X126411107Y-85582132D01*
X126432150Y-85569520D01*
X126454329Y-85559030D01*
X126477428Y-85550765D01*
X126501227Y-85544804D01*
X126525495Y-85541204D01*
X126549999Y-85540000D01*
X127450001Y-85540000D01*
X127474505Y-85541204D01*
G37*
G04 #@! TD.AperFunction*
G04 #@! TA.AperFunction,SMDPad,CuDef*
G36*
X127474505Y-83491204D02*
G01*
X127498773Y-83494804D01*
X127522572Y-83500765D01*
X127545671Y-83509030D01*
X127567850Y-83519520D01*
X127588893Y-83532132D01*
X127608599Y-83546747D01*
X127626777Y-83563223D01*
X127643253Y-83581401D01*
X127657868Y-83601107D01*
X127670480Y-83622150D01*
X127680970Y-83644329D01*
X127689235Y-83667428D01*
X127695196Y-83691227D01*
X127698796Y-83715495D01*
X127700000Y-83739999D01*
X127700000Y-84390001D01*
X127698796Y-84414505D01*
X127695196Y-84438773D01*
X127689235Y-84462572D01*
X127680970Y-84485671D01*
X127670480Y-84507850D01*
X127657868Y-84528893D01*
X127643253Y-84548599D01*
X127626777Y-84566777D01*
X127608599Y-84583253D01*
X127588893Y-84597868D01*
X127567850Y-84610480D01*
X127545671Y-84620970D01*
X127522572Y-84629235D01*
X127498773Y-84635196D01*
X127474505Y-84638796D01*
X127450001Y-84640000D01*
X126549999Y-84640000D01*
X126525495Y-84638796D01*
X126501227Y-84635196D01*
X126477428Y-84629235D01*
X126454329Y-84620970D01*
X126432150Y-84610480D01*
X126411107Y-84597868D01*
X126391401Y-84583253D01*
X126373223Y-84566777D01*
X126356747Y-84548599D01*
X126342132Y-84528893D01*
X126329520Y-84507850D01*
X126319030Y-84485671D01*
X126310765Y-84462572D01*
X126304804Y-84438773D01*
X126301204Y-84414505D01*
X126300000Y-84390001D01*
X126300000Y-83739999D01*
X126301204Y-83715495D01*
X126304804Y-83691227D01*
X126310765Y-83667428D01*
X126319030Y-83644329D01*
X126329520Y-83622150D01*
X126342132Y-83601107D01*
X126356747Y-83581401D01*
X126373223Y-83563223D01*
X126391401Y-83546747D01*
X126411107Y-83532132D01*
X126432150Y-83519520D01*
X126454329Y-83509030D01*
X126477428Y-83500765D01*
X126501227Y-83494804D01*
X126525495Y-83491204D01*
X126549999Y-83490000D01*
X127450001Y-83490000D01*
X127474505Y-83491204D01*
G37*
G04 #@! TD.AperFunction*
G04 #@! TA.AperFunction,SMDPad,CuDef*
G36*
X143984505Y-97216204D02*
G01*
X144008773Y-97219804D01*
X144032572Y-97225765D01*
X144055671Y-97234030D01*
X144077850Y-97244520D01*
X144098893Y-97257132D01*
X144118599Y-97271747D01*
X144136777Y-97288223D01*
X144153253Y-97306401D01*
X144167868Y-97326107D01*
X144180480Y-97347150D01*
X144190970Y-97369329D01*
X144199235Y-97392428D01*
X144205196Y-97416227D01*
X144208796Y-97440495D01*
X144210000Y-97464999D01*
X144210000Y-98115001D01*
X144208796Y-98139505D01*
X144205196Y-98163773D01*
X144199235Y-98187572D01*
X144190970Y-98210671D01*
X144180480Y-98232850D01*
X144167868Y-98253893D01*
X144153253Y-98273599D01*
X144136777Y-98291777D01*
X144118599Y-98308253D01*
X144098893Y-98322868D01*
X144077850Y-98335480D01*
X144055671Y-98345970D01*
X144032572Y-98354235D01*
X144008773Y-98360196D01*
X143984505Y-98363796D01*
X143960001Y-98365000D01*
X143059999Y-98365000D01*
X143035495Y-98363796D01*
X143011227Y-98360196D01*
X142987428Y-98354235D01*
X142964329Y-98345970D01*
X142942150Y-98335480D01*
X142921107Y-98322868D01*
X142901401Y-98308253D01*
X142883223Y-98291777D01*
X142866747Y-98273599D01*
X142852132Y-98253893D01*
X142839520Y-98232850D01*
X142829030Y-98210671D01*
X142820765Y-98187572D01*
X142814804Y-98163773D01*
X142811204Y-98139505D01*
X142810000Y-98115001D01*
X142810000Y-97464999D01*
X142811204Y-97440495D01*
X142814804Y-97416227D01*
X142820765Y-97392428D01*
X142829030Y-97369329D01*
X142839520Y-97347150D01*
X142852132Y-97326107D01*
X142866747Y-97306401D01*
X142883223Y-97288223D01*
X142901401Y-97271747D01*
X142921107Y-97257132D01*
X142942150Y-97244520D01*
X142964329Y-97234030D01*
X142987428Y-97225765D01*
X143011227Y-97219804D01*
X143035495Y-97216204D01*
X143059999Y-97215000D01*
X143960001Y-97215000D01*
X143984505Y-97216204D01*
G37*
G04 #@! TD.AperFunction*
G04 #@! TA.AperFunction,SMDPad,CuDef*
G36*
X143984505Y-99266204D02*
G01*
X144008773Y-99269804D01*
X144032572Y-99275765D01*
X144055671Y-99284030D01*
X144077850Y-99294520D01*
X144098893Y-99307132D01*
X144118599Y-99321747D01*
X144136777Y-99338223D01*
X144153253Y-99356401D01*
X144167868Y-99376107D01*
X144180480Y-99397150D01*
X144190970Y-99419329D01*
X144199235Y-99442428D01*
X144205196Y-99466227D01*
X144208796Y-99490495D01*
X144210000Y-99514999D01*
X144210000Y-100165001D01*
X144208796Y-100189505D01*
X144205196Y-100213773D01*
X144199235Y-100237572D01*
X144190970Y-100260671D01*
X144180480Y-100282850D01*
X144167868Y-100303893D01*
X144153253Y-100323599D01*
X144136777Y-100341777D01*
X144118599Y-100358253D01*
X144098893Y-100372868D01*
X144077850Y-100385480D01*
X144055671Y-100395970D01*
X144032572Y-100404235D01*
X144008773Y-100410196D01*
X143984505Y-100413796D01*
X143960001Y-100415000D01*
X143059999Y-100415000D01*
X143035495Y-100413796D01*
X143011227Y-100410196D01*
X142987428Y-100404235D01*
X142964329Y-100395970D01*
X142942150Y-100385480D01*
X142921107Y-100372868D01*
X142901401Y-100358253D01*
X142883223Y-100341777D01*
X142866747Y-100323599D01*
X142852132Y-100303893D01*
X142839520Y-100282850D01*
X142829030Y-100260671D01*
X142820765Y-100237572D01*
X142814804Y-100213773D01*
X142811204Y-100189505D01*
X142810000Y-100165001D01*
X142810000Y-99514999D01*
X142811204Y-99490495D01*
X142814804Y-99466227D01*
X142820765Y-99442428D01*
X142829030Y-99419329D01*
X142839520Y-99397150D01*
X142852132Y-99376107D01*
X142866747Y-99356401D01*
X142883223Y-99338223D01*
X142901401Y-99321747D01*
X142921107Y-99307132D01*
X142942150Y-99294520D01*
X142964329Y-99284030D01*
X142987428Y-99275765D01*
X143011227Y-99269804D01*
X143035495Y-99266204D01*
X143059999Y-99265000D01*
X143960001Y-99265000D01*
X143984505Y-99266204D01*
G37*
G04 #@! TD.AperFunction*
G04 #@! TA.AperFunction,SMDPad,CuDef*
G36*
X136364505Y-96191204D02*
G01*
X136388773Y-96194804D01*
X136412572Y-96200765D01*
X136435671Y-96209030D01*
X136457850Y-96219520D01*
X136478893Y-96232132D01*
X136498599Y-96246747D01*
X136516777Y-96263223D01*
X136533253Y-96281401D01*
X136547868Y-96301107D01*
X136560480Y-96322150D01*
X136570970Y-96344329D01*
X136579235Y-96367428D01*
X136585196Y-96391227D01*
X136588796Y-96415495D01*
X136590000Y-96439999D01*
X136590000Y-97090001D01*
X136588796Y-97114505D01*
X136585196Y-97138773D01*
X136579235Y-97162572D01*
X136570970Y-97185671D01*
X136560480Y-97207850D01*
X136547868Y-97228893D01*
X136533253Y-97248599D01*
X136516777Y-97266777D01*
X136498599Y-97283253D01*
X136478893Y-97297868D01*
X136457850Y-97310480D01*
X136435671Y-97320970D01*
X136412572Y-97329235D01*
X136388773Y-97335196D01*
X136364505Y-97338796D01*
X136340001Y-97340000D01*
X135439999Y-97340000D01*
X135415495Y-97338796D01*
X135391227Y-97335196D01*
X135367428Y-97329235D01*
X135344329Y-97320970D01*
X135322150Y-97310480D01*
X135301107Y-97297868D01*
X135281401Y-97283253D01*
X135263223Y-97266777D01*
X135246747Y-97248599D01*
X135232132Y-97228893D01*
X135219520Y-97207850D01*
X135209030Y-97185671D01*
X135200765Y-97162572D01*
X135194804Y-97138773D01*
X135191204Y-97114505D01*
X135190000Y-97090001D01*
X135190000Y-96439999D01*
X135191204Y-96415495D01*
X135194804Y-96391227D01*
X135200765Y-96367428D01*
X135209030Y-96344329D01*
X135219520Y-96322150D01*
X135232132Y-96301107D01*
X135246747Y-96281401D01*
X135263223Y-96263223D01*
X135281401Y-96246747D01*
X135301107Y-96232132D01*
X135322150Y-96219520D01*
X135344329Y-96209030D01*
X135367428Y-96200765D01*
X135391227Y-96194804D01*
X135415495Y-96191204D01*
X135439999Y-96190000D01*
X136340001Y-96190000D01*
X136364505Y-96191204D01*
G37*
G04 #@! TD.AperFunction*
G04 #@! TA.AperFunction,SMDPad,CuDef*
G36*
X136364505Y-98241204D02*
G01*
X136388773Y-98244804D01*
X136412572Y-98250765D01*
X136435671Y-98259030D01*
X136457850Y-98269520D01*
X136478893Y-98282132D01*
X136498599Y-98296747D01*
X136516777Y-98313223D01*
X136533253Y-98331401D01*
X136547868Y-98351107D01*
X136560480Y-98372150D01*
X136570970Y-98394329D01*
X136579235Y-98417428D01*
X136585196Y-98441227D01*
X136588796Y-98465495D01*
X136590000Y-98489999D01*
X136590000Y-99140001D01*
X136588796Y-99164505D01*
X136585196Y-99188773D01*
X136579235Y-99212572D01*
X136570970Y-99235671D01*
X136560480Y-99257850D01*
X136547868Y-99278893D01*
X136533253Y-99298599D01*
X136516777Y-99316777D01*
X136498599Y-99333253D01*
X136478893Y-99347868D01*
X136457850Y-99360480D01*
X136435671Y-99370970D01*
X136412572Y-99379235D01*
X136388773Y-99385196D01*
X136364505Y-99388796D01*
X136340001Y-99390000D01*
X135439999Y-99390000D01*
X135415495Y-99388796D01*
X135391227Y-99385196D01*
X135367428Y-99379235D01*
X135344329Y-99370970D01*
X135322150Y-99360480D01*
X135301107Y-99347868D01*
X135281401Y-99333253D01*
X135263223Y-99316777D01*
X135246747Y-99298599D01*
X135232132Y-99278893D01*
X135219520Y-99257850D01*
X135209030Y-99235671D01*
X135200765Y-99212572D01*
X135194804Y-99188773D01*
X135191204Y-99164505D01*
X135190000Y-99140001D01*
X135190000Y-98489999D01*
X135191204Y-98465495D01*
X135194804Y-98441227D01*
X135200765Y-98417428D01*
X135209030Y-98394329D01*
X135219520Y-98372150D01*
X135232132Y-98351107D01*
X135246747Y-98331401D01*
X135263223Y-98313223D01*
X135281401Y-98296747D01*
X135301107Y-98282132D01*
X135322150Y-98269520D01*
X135344329Y-98259030D01*
X135367428Y-98250765D01*
X135391227Y-98244804D01*
X135415495Y-98241204D01*
X135439999Y-98240000D01*
X136340001Y-98240000D01*
X136364505Y-98241204D01*
G37*
G04 #@! TD.AperFunction*
D14*
X132080000Y-81970000D03*
X132080000Y-77470000D03*
X138580000Y-81970000D03*
X138580000Y-77470000D03*
G04 #@! TA.AperFunction,SMDPad,CuDef*
D10*
G36*
X134254703Y-102570722D02*
G01*
X134269264Y-102572882D01*
X134283543Y-102576459D01*
X134297403Y-102581418D01*
X134310710Y-102587712D01*
X134323336Y-102595280D01*
X134335159Y-102604048D01*
X134346066Y-102613934D01*
X134355952Y-102624841D01*
X134364720Y-102636664D01*
X134372288Y-102649290D01*
X134378582Y-102662597D01*
X134383541Y-102676457D01*
X134387118Y-102690736D01*
X134389278Y-102705297D01*
X134390000Y-102720000D01*
X134390000Y-103020000D01*
X134389278Y-103034703D01*
X134387118Y-103049264D01*
X134383541Y-103063543D01*
X134378582Y-103077403D01*
X134372288Y-103090710D01*
X134364720Y-103103336D01*
X134355952Y-103115159D01*
X134346066Y-103126066D01*
X134335159Y-103135952D01*
X134323336Y-103144720D01*
X134310710Y-103152288D01*
X134297403Y-103158582D01*
X134283543Y-103163541D01*
X134269264Y-103167118D01*
X134254703Y-103169278D01*
X134240000Y-103170000D01*
X132590000Y-103170000D01*
X132575297Y-103169278D01*
X132560736Y-103167118D01*
X132546457Y-103163541D01*
X132532597Y-103158582D01*
X132519290Y-103152288D01*
X132506664Y-103144720D01*
X132494841Y-103135952D01*
X132483934Y-103126066D01*
X132474048Y-103115159D01*
X132465280Y-103103336D01*
X132457712Y-103090710D01*
X132451418Y-103077403D01*
X132446459Y-103063543D01*
X132442882Y-103049264D01*
X132440722Y-103034703D01*
X132440000Y-103020000D01*
X132440000Y-102720000D01*
X132440722Y-102705297D01*
X132442882Y-102690736D01*
X132446459Y-102676457D01*
X132451418Y-102662597D01*
X132457712Y-102649290D01*
X132465280Y-102636664D01*
X132474048Y-102624841D01*
X132483934Y-102613934D01*
X132494841Y-102604048D01*
X132506664Y-102595280D01*
X132519290Y-102587712D01*
X132532597Y-102581418D01*
X132546457Y-102576459D01*
X132560736Y-102572882D01*
X132575297Y-102570722D01*
X132590000Y-102570000D01*
X134240000Y-102570000D01*
X134254703Y-102570722D01*
G37*
G04 #@! TD.AperFunction*
G04 #@! TA.AperFunction,SMDPad,CuDef*
G36*
X134254703Y-103840722D02*
G01*
X134269264Y-103842882D01*
X134283543Y-103846459D01*
X134297403Y-103851418D01*
X134310710Y-103857712D01*
X134323336Y-103865280D01*
X134335159Y-103874048D01*
X134346066Y-103883934D01*
X134355952Y-103894841D01*
X134364720Y-103906664D01*
X134372288Y-103919290D01*
X134378582Y-103932597D01*
X134383541Y-103946457D01*
X134387118Y-103960736D01*
X134389278Y-103975297D01*
X134390000Y-103990000D01*
X134390000Y-104290000D01*
X134389278Y-104304703D01*
X134387118Y-104319264D01*
X134383541Y-104333543D01*
X134378582Y-104347403D01*
X134372288Y-104360710D01*
X134364720Y-104373336D01*
X134355952Y-104385159D01*
X134346066Y-104396066D01*
X134335159Y-104405952D01*
X134323336Y-104414720D01*
X134310710Y-104422288D01*
X134297403Y-104428582D01*
X134283543Y-104433541D01*
X134269264Y-104437118D01*
X134254703Y-104439278D01*
X134240000Y-104440000D01*
X132590000Y-104440000D01*
X132575297Y-104439278D01*
X132560736Y-104437118D01*
X132546457Y-104433541D01*
X132532597Y-104428582D01*
X132519290Y-104422288D01*
X132506664Y-104414720D01*
X132494841Y-104405952D01*
X132483934Y-104396066D01*
X132474048Y-104385159D01*
X132465280Y-104373336D01*
X132457712Y-104360710D01*
X132451418Y-104347403D01*
X132446459Y-104333543D01*
X132442882Y-104319264D01*
X132440722Y-104304703D01*
X132440000Y-104290000D01*
X132440000Y-103990000D01*
X132440722Y-103975297D01*
X132442882Y-103960736D01*
X132446459Y-103946457D01*
X132451418Y-103932597D01*
X132457712Y-103919290D01*
X132465280Y-103906664D01*
X132474048Y-103894841D01*
X132483934Y-103883934D01*
X132494841Y-103874048D01*
X132506664Y-103865280D01*
X132519290Y-103857712D01*
X132532597Y-103851418D01*
X132546457Y-103846459D01*
X132560736Y-103842882D01*
X132575297Y-103840722D01*
X132590000Y-103840000D01*
X134240000Y-103840000D01*
X134254703Y-103840722D01*
G37*
G04 #@! TD.AperFunction*
G04 #@! TA.AperFunction,SMDPad,CuDef*
G36*
X134254703Y-105110722D02*
G01*
X134269264Y-105112882D01*
X134283543Y-105116459D01*
X134297403Y-105121418D01*
X134310710Y-105127712D01*
X134323336Y-105135280D01*
X134335159Y-105144048D01*
X134346066Y-105153934D01*
X134355952Y-105164841D01*
X134364720Y-105176664D01*
X134372288Y-105189290D01*
X134378582Y-105202597D01*
X134383541Y-105216457D01*
X134387118Y-105230736D01*
X134389278Y-105245297D01*
X134390000Y-105260000D01*
X134390000Y-105560000D01*
X134389278Y-105574703D01*
X134387118Y-105589264D01*
X134383541Y-105603543D01*
X134378582Y-105617403D01*
X134372288Y-105630710D01*
X134364720Y-105643336D01*
X134355952Y-105655159D01*
X134346066Y-105666066D01*
X134335159Y-105675952D01*
X134323336Y-105684720D01*
X134310710Y-105692288D01*
X134297403Y-105698582D01*
X134283543Y-105703541D01*
X134269264Y-105707118D01*
X134254703Y-105709278D01*
X134240000Y-105710000D01*
X132590000Y-105710000D01*
X132575297Y-105709278D01*
X132560736Y-105707118D01*
X132546457Y-105703541D01*
X132532597Y-105698582D01*
X132519290Y-105692288D01*
X132506664Y-105684720D01*
X132494841Y-105675952D01*
X132483934Y-105666066D01*
X132474048Y-105655159D01*
X132465280Y-105643336D01*
X132457712Y-105630710D01*
X132451418Y-105617403D01*
X132446459Y-105603543D01*
X132442882Y-105589264D01*
X132440722Y-105574703D01*
X132440000Y-105560000D01*
X132440000Y-105260000D01*
X132440722Y-105245297D01*
X132442882Y-105230736D01*
X132446459Y-105216457D01*
X132451418Y-105202597D01*
X132457712Y-105189290D01*
X132465280Y-105176664D01*
X132474048Y-105164841D01*
X132483934Y-105153934D01*
X132494841Y-105144048D01*
X132506664Y-105135280D01*
X132519290Y-105127712D01*
X132532597Y-105121418D01*
X132546457Y-105116459D01*
X132560736Y-105112882D01*
X132575297Y-105110722D01*
X132590000Y-105110000D01*
X134240000Y-105110000D01*
X134254703Y-105110722D01*
G37*
G04 #@! TD.AperFunction*
G04 #@! TA.AperFunction,SMDPad,CuDef*
G36*
X134254703Y-106380722D02*
G01*
X134269264Y-106382882D01*
X134283543Y-106386459D01*
X134297403Y-106391418D01*
X134310710Y-106397712D01*
X134323336Y-106405280D01*
X134335159Y-106414048D01*
X134346066Y-106423934D01*
X134355952Y-106434841D01*
X134364720Y-106446664D01*
X134372288Y-106459290D01*
X134378582Y-106472597D01*
X134383541Y-106486457D01*
X134387118Y-106500736D01*
X134389278Y-106515297D01*
X134390000Y-106530000D01*
X134390000Y-106830000D01*
X134389278Y-106844703D01*
X134387118Y-106859264D01*
X134383541Y-106873543D01*
X134378582Y-106887403D01*
X134372288Y-106900710D01*
X134364720Y-106913336D01*
X134355952Y-106925159D01*
X134346066Y-106936066D01*
X134335159Y-106945952D01*
X134323336Y-106954720D01*
X134310710Y-106962288D01*
X134297403Y-106968582D01*
X134283543Y-106973541D01*
X134269264Y-106977118D01*
X134254703Y-106979278D01*
X134240000Y-106980000D01*
X132590000Y-106980000D01*
X132575297Y-106979278D01*
X132560736Y-106977118D01*
X132546457Y-106973541D01*
X132532597Y-106968582D01*
X132519290Y-106962288D01*
X132506664Y-106954720D01*
X132494841Y-106945952D01*
X132483934Y-106936066D01*
X132474048Y-106925159D01*
X132465280Y-106913336D01*
X132457712Y-106900710D01*
X132451418Y-106887403D01*
X132446459Y-106873543D01*
X132442882Y-106859264D01*
X132440722Y-106844703D01*
X132440000Y-106830000D01*
X132440000Y-106530000D01*
X132440722Y-106515297D01*
X132442882Y-106500736D01*
X132446459Y-106486457D01*
X132451418Y-106472597D01*
X132457712Y-106459290D01*
X132465280Y-106446664D01*
X132474048Y-106434841D01*
X132483934Y-106423934D01*
X132494841Y-106414048D01*
X132506664Y-106405280D01*
X132519290Y-106397712D01*
X132532597Y-106391418D01*
X132546457Y-106386459D01*
X132560736Y-106382882D01*
X132575297Y-106380722D01*
X132590000Y-106380000D01*
X134240000Y-106380000D01*
X134254703Y-106380722D01*
G37*
G04 #@! TD.AperFunction*
G04 #@! TA.AperFunction,SMDPad,CuDef*
G36*
X134254703Y-107650722D02*
G01*
X134269264Y-107652882D01*
X134283543Y-107656459D01*
X134297403Y-107661418D01*
X134310710Y-107667712D01*
X134323336Y-107675280D01*
X134335159Y-107684048D01*
X134346066Y-107693934D01*
X134355952Y-107704841D01*
X134364720Y-107716664D01*
X134372288Y-107729290D01*
X134378582Y-107742597D01*
X134383541Y-107756457D01*
X134387118Y-107770736D01*
X134389278Y-107785297D01*
X134390000Y-107800000D01*
X134390000Y-108100000D01*
X134389278Y-108114703D01*
X134387118Y-108129264D01*
X134383541Y-108143543D01*
X134378582Y-108157403D01*
X134372288Y-108170710D01*
X134364720Y-108183336D01*
X134355952Y-108195159D01*
X134346066Y-108206066D01*
X134335159Y-108215952D01*
X134323336Y-108224720D01*
X134310710Y-108232288D01*
X134297403Y-108238582D01*
X134283543Y-108243541D01*
X134269264Y-108247118D01*
X134254703Y-108249278D01*
X134240000Y-108250000D01*
X132590000Y-108250000D01*
X132575297Y-108249278D01*
X132560736Y-108247118D01*
X132546457Y-108243541D01*
X132532597Y-108238582D01*
X132519290Y-108232288D01*
X132506664Y-108224720D01*
X132494841Y-108215952D01*
X132483934Y-108206066D01*
X132474048Y-108195159D01*
X132465280Y-108183336D01*
X132457712Y-108170710D01*
X132451418Y-108157403D01*
X132446459Y-108143543D01*
X132442882Y-108129264D01*
X132440722Y-108114703D01*
X132440000Y-108100000D01*
X132440000Y-107800000D01*
X132440722Y-107785297D01*
X132442882Y-107770736D01*
X132446459Y-107756457D01*
X132451418Y-107742597D01*
X132457712Y-107729290D01*
X132465280Y-107716664D01*
X132474048Y-107704841D01*
X132483934Y-107693934D01*
X132494841Y-107684048D01*
X132506664Y-107675280D01*
X132519290Y-107667712D01*
X132532597Y-107661418D01*
X132546457Y-107656459D01*
X132560736Y-107652882D01*
X132575297Y-107650722D01*
X132590000Y-107650000D01*
X134240000Y-107650000D01*
X134254703Y-107650722D01*
G37*
G04 #@! TD.AperFunction*
G04 #@! TA.AperFunction,SMDPad,CuDef*
G36*
X134254703Y-108920722D02*
G01*
X134269264Y-108922882D01*
X134283543Y-108926459D01*
X134297403Y-108931418D01*
X134310710Y-108937712D01*
X134323336Y-108945280D01*
X134335159Y-108954048D01*
X134346066Y-108963934D01*
X134355952Y-108974841D01*
X134364720Y-108986664D01*
X134372288Y-108999290D01*
X134378582Y-109012597D01*
X134383541Y-109026457D01*
X134387118Y-109040736D01*
X134389278Y-109055297D01*
X134390000Y-109070000D01*
X134390000Y-109370000D01*
X134389278Y-109384703D01*
X134387118Y-109399264D01*
X134383541Y-109413543D01*
X134378582Y-109427403D01*
X134372288Y-109440710D01*
X134364720Y-109453336D01*
X134355952Y-109465159D01*
X134346066Y-109476066D01*
X134335159Y-109485952D01*
X134323336Y-109494720D01*
X134310710Y-109502288D01*
X134297403Y-109508582D01*
X134283543Y-109513541D01*
X134269264Y-109517118D01*
X134254703Y-109519278D01*
X134240000Y-109520000D01*
X132590000Y-109520000D01*
X132575297Y-109519278D01*
X132560736Y-109517118D01*
X132546457Y-109513541D01*
X132532597Y-109508582D01*
X132519290Y-109502288D01*
X132506664Y-109494720D01*
X132494841Y-109485952D01*
X132483934Y-109476066D01*
X132474048Y-109465159D01*
X132465280Y-109453336D01*
X132457712Y-109440710D01*
X132451418Y-109427403D01*
X132446459Y-109413543D01*
X132442882Y-109399264D01*
X132440722Y-109384703D01*
X132440000Y-109370000D01*
X132440000Y-109070000D01*
X132440722Y-109055297D01*
X132442882Y-109040736D01*
X132446459Y-109026457D01*
X132451418Y-109012597D01*
X132457712Y-108999290D01*
X132465280Y-108986664D01*
X132474048Y-108974841D01*
X132483934Y-108963934D01*
X132494841Y-108954048D01*
X132506664Y-108945280D01*
X132519290Y-108937712D01*
X132532597Y-108931418D01*
X132546457Y-108926459D01*
X132560736Y-108922882D01*
X132575297Y-108920722D01*
X132590000Y-108920000D01*
X134240000Y-108920000D01*
X134254703Y-108920722D01*
G37*
G04 #@! TD.AperFunction*
G04 #@! TA.AperFunction,SMDPad,CuDef*
G36*
X134254703Y-110190722D02*
G01*
X134269264Y-110192882D01*
X134283543Y-110196459D01*
X134297403Y-110201418D01*
X134310710Y-110207712D01*
X134323336Y-110215280D01*
X134335159Y-110224048D01*
X134346066Y-110233934D01*
X134355952Y-110244841D01*
X134364720Y-110256664D01*
X134372288Y-110269290D01*
X134378582Y-110282597D01*
X134383541Y-110296457D01*
X134387118Y-110310736D01*
X134389278Y-110325297D01*
X134390000Y-110340000D01*
X134390000Y-110640000D01*
X134389278Y-110654703D01*
X134387118Y-110669264D01*
X134383541Y-110683543D01*
X134378582Y-110697403D01*
X134372288Y-110710710D01*
X134364720Y-110723336D01*
X134355952Y-110735159D01*
X134346066Y-110746066D01*
X134335159Y-110755952D01*
X134323336Y-110764720D01*
X134310710Y-110772288D01*
X134297403Y-110778582D01*
X134283543Y-110783541D01*
X134269264Y-110787118D01*
X134254703Y-110789278D01*
X134240000Y-110790000D01*
X132590000Y-110790000D01*
X132575297Y-110789278D01*
X132560736Y-110787118D01*
X132546457Y-110783541D01*
X132532597Y-110778582D01*
X132519290Y-110772288D01*
X132506664Y-110764720D01*
X132494841Y-110755952D01*
X132483934Y-110746066D01*
X132474048Y-110735159D01*
X132465280Y-110723336D01*
X132457712Y-110710710D01*
X132451418Y-110697403D01*
X132446459Y-110683543D01*
X132442882Y-110669264D01*
X132440722Y-110654703D01*
X132440000Y-110640000D01*
X132440000Y-110340000D01*
X132440722Y-110325297D01*
X132442882Y-110310736D01*
X132446459Y-110296457D01*
X132451418Y-110282597D01*
X132457712Y-110269290D01*
X132465280Y-110256664D01*
X132474048Y-110244841D01*
X132483934Y-110233934D01*
X132494841Y-110224048D01*
X132506664Y-110215280D01*
X132519290Y-110207712D01*
X132532597Y-110201418D01*
X132546457Y-110196459D01*
X132560736Y-110192882D01*
X132575297Y-110190722D01*
X132590000Y-110190000D01*
X134240000Y-110190000D01*
X134254703Y-110190722D01*
G37*
G04 #@! TD.AperFunction*
G04 #@! TA.AperFunction,SMDPad,CuDef*
G36*
X139204703Y-110190722D02*
G01*
X139219264Y-110192882D01*
X139233543Y-110196459D01*
X139247403Y-110201418D01*
X139260710Y-110207712D01*
X139273336Y-110215280D01*
X139285159Y-110224048D01*
X139296066Y-110233934D01*
X139305952Y-110244841D01*
X139314720Y-110256664D01*
X139322288Y-110269290D01*
X139328582Y-110282597D01*
X139333541Y-110296457D01*
X139337118Y-110310736D01*
X139339278Y-110325297D01*
X139340000Y-110340000D01*
X139340000Y-110640000D01*
X139339278Y-110654703D01*
X139337118Y-110669264D01*
X139333541Y-110683543D01*
X139328582Y-110697403D01*
X139322288Y-110710710D01*
X139314720Y-110723336D01*
X139305952Y-110735159D01*
X139296066Y-110746066D01*
X139285159Y-110755952D01*
X139273336Y-110764720D01*
X139260710Y-110772288D01*
X139247403Y-110778582D01*
X139233543Y-110783541D01*
X139219264Y-110787118D01*
X139204703Y-110789278D01*
X139190000Y-110790000D01*
X137540000Y-110790000D01*
X137525297Y-110789278D01*
X137510736Y-110787118D01*
X137496457Y-110783541D01*
X137482597Y-110778582D01*
X137469290Y-110772288D01*
X137456664Y-110764720D01*
X137444841Y-110755952D01*
X137433934Y-110746066D01*
X137424048Y-110735159D01*
X137415280Y-110723336D01*
X137407712Y-110710710D01*
X137401418Y-110697403D01*
X137396459Y-110683543D01*
X137392882Y-110669264D01*
X137390722Y-110654703D01*
X137390000Y-110640000D01*
X137390000Y-110340000D01*
X137390722Y-110325297D01*
X137392882Y-110310736D01*
X137396459Y-110296457D01*
X137401418Y-110282597D01*
X137407712Y-110269290D01*
X137415280Y-110256664D01*
X137424048Y-110244841D01*
X137433934Y-110233934D01*
X137444841Y-110224048D01*
X137456664Y-110215280D01*
X137469290Y-110207712D01*
X137482597Y-110201418D01*
X137496457Y-110196459D01*
X137510736Y-110192882D01*
X137525297Y-110190722D01*
X137540000Y-110190000D01*
X139190000Y-110190000D01*
X139204703Y-110190722D01*
G37*
G04 #@! TD.AperFunction*
G04 #@! TA.AperFunction,SMDPad,CuDef*
G36*
X139204703Y-108920722D02*
G01*
X139219264Y-108922882D01*
X139233543Y-108926459D01*
X139247403Y-108931418D01*
X139260710Y-108937712D01*
X139273336Y-108945280D01*
X139285159Y-108954048D01*
X139296066Y-108963934D01*
X139305952Y-108974841D01*
X139314720Y-108986664D01*
X139322288Y-108999290D01*
X139328582Y-109012597D01*
X139333541Y-109026457D01*
X139337118Y-109040736D01*
X139339278Y-109055297D01*
X139340000Y-109070000D01*
X139340000Y-109370000D01*
X139339278Y-109384703D01*
X139337118Y-109399264D01*
X139333541Y-109413543D01*
X139328582Y-109427403D01*
X139322288Y-109440710D01*
X139314720Y-109453336D01*
X139305952Y-109465159D01*
X139296066Y-109476066D01*
X139285159Y-109485952D01*
X139273336Y-109494720D01*
X139260710Y-109502288D01*
X139247403Y-109508582D01*
X139233543Y-109513541D01*
X139219264Y-109517118D01*
X139204703Y-109519278D01*
X139190000Y-109520000D01*
X137540000Y-109520000D01*
X137525297Y-109519278D01*
X137510736Y-109517118D01*
X137496457Y-109513541D01*
X137482597Y-109508582D01*
X137469290Y-109502288D01*
X137456664Y-109494720D01*
X137444841Y-109485952D01*
X137433934Y-109476066D01*
X137424048Y-109465159D01*
X137415280Y-109453336D01*
X137407712Y-109440710D01*
X137401418Y-109427403D01*
X137396459Y-109413543D01*
X137392882Y-109399264D01*
X137390722Y-109384703D01*
X137390000Y-109370000D01*
X137390000Y-109070000D01*
X137390722Y-109055297D01*
X137392882Y-109040736D01*
X137396459Y-109026457D01*
X137401418Y-109012597D01*
X137407712Y-108999290D01*
X137415280Y-108986664D01*
X137424048Y-108974841D01*
X137433934Y-108963934D01*
X137444841Y-108954048D01*
X137456664Y-108945280D01*
X137469290Y-108937712D01*
X137482597Y-108931418D01*
X137496457Y-108926459D01*
X137510736Y-108922882D01*
X137525297Y-108920722D01*
X137540000Y-108920000D01*
X139190000Y-108920000D01*
X139204703Y-108920722D01*
G37*
G04 #@! TD.AperFunction*
G04 #@! TA.AperFunction,SMDPad,CuDef*
G36*
X139204703Y-107650722D02*
G01*
X139219264Y-107652882D01*
X139233543Y-107656459D01*
X139247403Y-107661418D01*
X139260710Y-107667712D01*
X139273336Y-107675280D01*
X139285159Y-107684048D01*
X139296066Y-107693934D01*
X139305952Y-107704841D01*
X139314720Y-107716664D01*
X139322288Y-107729290D01*
X139328582Y-107742597D01*
X139333541Y-107756457D01*
X139337118Y-107770736D01*
X139339278Y-107785297D01*
X139340000Y-107800000D01*
X139340000Y-108100000D01*
X139339278Y-108114703D01*
X139337118Y-108129264D01*
X139333541Y-108143543D01*
X139328582Y-108157403D01*
X139322288Y-108170710D01*
X139314720Y-108183336D01*
X139305952Y-108195159D01*
X139296066Y-108206066D01*
X139285159Y-108215952D01*
X139273336Y-108224720D01*
X139260710Y-108232288D01*
X139247403Y-108238582D01*
X139233543Y-108243541D01*
X139219264Y-108247118D01*
X139204703Y-108249278D01*
X139190000Y-108250000D01*
X137540000Y-108250000D01*
X137525297Y-108249278D01*
X137510736Y-108247118D01*
X137496457Y-108243541D01*
X137482597Y-108238582D01*
X137469290Y-108232288D01*
X137456664Y-108224720D01*
X137444841Y-108215952D01*
X137433934Y-108206066D01*
X137424048Y-108195159D01*
X137415280Y-108183336D01*
X137407712Y-108170710D01*
X137401418Y-108157403D01*
X137396459Y-108143543D01*
X137392882Y-108129264D01*
X137390722Y-108114703D01*
X137390000Y-108100000D01*
X137390000Y-107800000D01*
X137390722Y-107785297D01*
X137392882Y-107770736D01*
X137396459Y-107756457D01*
X137401418Y-107742597D01*
X137407712Y-107729290D01*
X137415280Y-107716664D01*
X137424048Y-107704841D01*
X137433934Y-107693934D01*
X137444841Y-107684048D01*
X137456664Y-107675280D01*
X137469290Y-107667712D01*
X137482597Y-107661418D01*
X137496457Y-107656459D01*
X137510736Y-107652882D01*
X137525297Y-107650722D01*
X137540000Y-107650000D01*
X139190000Y-107650000D01*
X139204703Y-107650722D01*
G37*
G04 #@! TD.AperFunction*
G04 #@! TA.AperFunction,SMDPad,CuDef*
G36*
X139204703Y-106380722D02*
G01*
X139219264Y-106382882D01*
X139233543Y-106386459D01*
X139247403Y-106391418D01*
X139260710Y-106397712D01*
X139273336Y-106405280D01*
X139285159Y-106414048D01*
X139296066Y-106423934D01*
X139305952Y-106434841D01*
X139314720Y-106446664D01*
X139322288Y-106459290D01*
X139328582Y-106472597D01*
X139333541Y-106486457D01*
X139337118Y-106500736D01*
X139339278Y-106515297D01*
X139340000Y-106530000D01*
X139340000Y-106830000D01*
X139339278Y-106844703D01*
X139337118Y-106859264D01*
X139333541Y-106873543D01*
X139328582Y-106887403D01*
X139322288Y-106900710D01*
X139314720Y-106913336D01*
X139305952Y-106925159D01*
X139296066Y-106936066D01*
X139285159Y-106945952D01*
X139273336Y-106954720D01*
X139260710Y-106962288D01*
X139247403Y-106968582D01*
X139233543Y-106973541D01*
X139219264Y-106977118D01*
X139204703Y-106979278D01*
X139190000Y-106980000D01*
X137540000Y-106980000D01*
X137525297Y-106979278D01*
X137510736Y-106977118D01*
X137496457Y-106973541D01*
X137482597Y-106968582D01*
X137469290Y-106962288D01*
X137456664Y-106954720D01*
X137444841Y-106945952D01*
X137433934Y-106936066D01*
X137424048Y-106925159D01*
X137415280Y-106913336D01*
X137407712Y-106900710D01*
X137401418Y-106887403D01*
X137396459Y-106873543D01*
X137392882Y-106859264D01*
X137390722Y-106844703D01*
X137390000Y-106830000D01*
X137390000Y-106530000D01*
X137390722Y-106515297D01*
X137392882Y-106500736D01*
X137396459Y-106486457D01*
X137401418Y-106472597D01*
X137407712Y-106459290D01*
X137415280Y-106446664D01*
X137424048Y-106434841D01*
X137433934Y-106423934D01*
X137444841Y-106414048D01*
X137456664Y-106405280D01*
X137469290Y-106397712D01*
X137482597Y-106391418D01*
X137496457Y-106386459D01*
X137510736Y-106382882D01*
X137525297Y-106380722D01*
X137540000Y-106380000D01*
X139190000Y-106380000D01*
X139204703Y-106380722D01*
G37*
G04 #@! TD.AperFunction*
G04 #@! TA.AperFunction,SMDPad,CuDef*
G36*
X139204703Y-105110722D02*
G01*
X139219264Y-105112882D01*
X139233543Y-105116459D01*
X139247403Y-105121418D01*
X139260710Y-105127712D01*
X139273336Y-105135280D01*
X139285159Y-105144048D01*
X139296066Y-105153934D01*
X139305952Y-105164841D01*
X139314720Y-105176664D01*
X139322288Y-105189290D01*
X139328582Y-105202597D01*
X139333541Y-105216457D01*
X139337118Y-105230736D01*
X139339278Y-105245297D01*
X139340000Y-105260000D01*
X139340000Y-105560000D01*
X139339278Y-105574703D01*
X139337118Y-105589264D01*
X139333541Y-105603543D01*
X139328582Y-105617403D01*
X139322288Y-105630710D01*
X139314720Y-105643336D01*
X139305952Y-105655159D01*
X139296066Y-105666066D01*
X139285159Y-105675952D01*
X139273336Y-105684720D01*
X139260710Y-105692288D01*
X139247403Y-105698582D01*
X139233543Y-105703541D01*
X139219264Y-105707118D01*
X139204703Y-105709278D01*
X139190000Y-105710000D01*
X137540000Y-105710000D01*
X137525297Y-105709278D01*
X137510736Y-105707118D01*
X137496457Y-105703541D01*
X137482597Y-105698582D01*
X137469290Y-105692288D01*
X137456664Y-105684720D01*
X137444841Y-105675952D01*
X137433934Y-105666066D01*
X137424048Y-105655159D01*
X137415280Y-105643336D01*
X137407712Y-105630710D01*
X137401418Y-105617403D01*
X137396459Y-105603543D01*
X137392882Y-105589264D01*
X137390722Y-105574703D01*
X137390000Y-105560000D01*
X137390000Y-105260000D01*
X137390722Y-105245297D01*
X137392882Y-105230736D01*
X137396459Y-105216457D01*
X137401418Y-105202597D01*
X137407712Y-105189290D01*
X137415280Y-105176664D01*
X137424048Y-105164841D01*
X137433934Y-105153934D01*
X137444841Y-105144048D01*
X137456664Y-105135280D01*
X137469290Y-105127712D01*
X137482597Y-105121418D01*
X137496457Y-105116459D01*
X137510736Y-105112882D01*
X137525297Y-105110722D01*
X137540000Y-105110000D01*
X139190000Y-105110000D01*
X139204703Y-105110722D01*
G37*
G04 #@! TD.AperFunction*
G04 #@! TA.AperFunction,SMDPad,CuDef*
G36*
X139204703Y-103840722D02*
G01*
X139219264Y-103842882D01*
X139233543Y-103846459D01*
X139247403Y-103851418D01*
X139260710Y-103857712D01*
X139273336Y-103865280D01*
X139285159Y-103874048D01*
X139296066Y-103883934D01*
X139305952Y-103894841D01*
X139314720Y-103906664D01*
X139322288Y-103919290D01*
X139328582Y-103932597D01*
X139333541Y-103946457D01*
X139337118Y-103960736D01*
X139339278Y-103975297D01*
X139340000Y-103990000D01*
X139340000Y-104290000D01*
X139339278Y-104304703D01*
X139337118Y-104319264D01*
X139333541Y-104333543D01*
X139328582Y-104347403D01*
X139322288Y-104360710D01*
X139314720Y-104373336D01*
X139305952Y-104385159D01*
X139296066Y-104396066D01*
X139285159Y-104405952D01*
X139273336Y-104414720D01*
X139260710Y-104422288D01*
X139247403Y-104428582D01*
X139233543Y-104433541D01*
X139219264Y-104437118D01*
X139204703Y-104439278D01*
X139190000Y-104440000D01*
X137540000Y-104440000D01*
X137525297Y-104439278D01*
X137510736Y-104437118D01*
X137496457Y-104433541D01*
X137482597Y-104428582D01*
X137469290Y-104422288D01*
X137456664Y-104414720D01*
X137444841Y-104405952D01*
X137433934Y-104396066D01*
X137424048Y-104385159D01*
X137415280Y-104373336D01*
X137407712Y-104360710D01*
X137401418Y-104347403D01*
X137396459Y-104333543D01*
X137392882Y-104319264D01*
X137390722Y-104304703D01*
X137390000Y-104290000D01*
X137390000Y-103990000D01*
X137390722Y-103975297D01*
X137392882Y-103960736D01*
X137396459Y-103946457D01*
X137401418Y-103932597D01*
X137407712Y-103919290D01*
X137415280Y-103906664D01*
X137424048Y-103894841D01*
X137433934Y-103883934D01*
X137444841Y-103874048D01*
X137456664Y-103865280D01*
X137469290Y-103857712D01*
X137482597Y-103851418D01*
X137496457Y-103846459D01*
X137510736Y-103842882D01*
X137525297Y-103840722D01*
X137540000Y-103840000D01*
X139190000Y-103840000D01*
X139204703Y-103840722D01*
G37*
G04 #@! TD.AperFunction*
G04 #@! TA.AperFunction,SMDPad,CuDef*
G36*
X139204703Y-102570722D02*
G01*
X139219264Y-102572882D01*
X139233543Y-102576459D01*
X139247403Y-102581418D01*
X139260710Y-102587712D01*
X139273336Y-102595280D01*
X139285159Y-102604048D01*
X139296066Y-102613934D01*
X139305952Y-102624841D01*
X139314720Y-102636664D01*
X139322288Y-102649290D01*
X139328582Y-102662597D01*
X139333541Y-102676457D01*
X139337118Y-102690736D01*
X139339278Y-102705297D01*
X139340000Y-102720000D01*
X139340000Y-103020000D01*
X139339278Y-103034703D01*
X139337118Y-103049264D01*
X139333541Y-103063543D01*
X139328582Y-103077403D01*
X139322288Y-103090710D01*
X139314720Y-103103336D01*
X139305952Y-103115159D01*
X139296066Y-103126066D01*
X139285159Y-103135952D01*
X139273336Y-103144720D01*
X139260710Y-103152288D01*
X139247403Y-103158582D01*
X139233543Y-103163541D01*
X139219264Y-103167118D01*
X139204703Y-103169278D01*
X139190000Y-103170000D01*
X137540000Y-103170000D01*
X137525297Y-103169278D01*
X137510736Y-103167118D01*
X137496457Y-103163541D01*
X137482597Y-103158582D01*
X137469290Y-103152288D01*
X137456664Y-103144720D01*
X137444841Y-103135952D01*
X137433934Y-103126066D01*
X137424048Y-103115159D01*
X137415280Y-103103336D01*
X137407712Y-103090710D01*
X137401418Y-103077403D01*
X137396459Y-103063543D01*
X137392882Y-103049264D01*
X137390722Y-103034703D01*
X137390000Y-103020000D01*
X137390000Y-102720000D01*
X137390722Y-102705297D01*
X137392882Y-102690736D01*
X137396459Y-102676457D01*
X137401418Y-102662597D01*
X137407712Y-102649290D01*
X137415280Y-102636664D01*
X137424048Y-102624841D01*
X137433934Y-102613934D01*
X137444841Y-102604048D01*
X137456664Y-102595280D01*
X137469290Y-102587712D01*
X137482597Y-102581418D01*
X137496457Y-102576459D01*
X137510736Y-102572882D01*
X137525297Y-102570722D01*
X137540000Y-102570000D01*
X139190000Y-102570000D01*
X139204703Y-102570722D01*
G37*
G04 #@! TD.AperFunction*
D15*
X145780000Y-89850000D03*
X145780000Y-87950000D03*
X143780000Y-88900000D03*
D16*
X138365000Y-105410000D02*
X142240000Y-105410000D01*
X142240000Y-105410000D02*
X144780000Y-107950000D01*
X134620000Y-89925000D02*
X138430000Y-89925000D01*
X139130000Y-89925000D02*
X142695000Y-86360000D01*
X138430000Y-89925000D02*
X139130000Y-89925000D01*
X142695000Y-86360000D02*
X146050000Y-86360000D01*
X145780000Y-86630000D02*
X145780000Y-87950000D01*
X146050000Y-86360000D02*
X145780000Y-86630000D01*
X138430000Y-116840000D02*
X142240000Y-116840000D01*
X142240000Y-116840000D02*
X143510000Y-118110000D01*
X143510000Y-118110000D02*
X146050000Y-118110000D01*
X146050000Y-118110000D02*
X147320000Y-116840000D01*
X147320000Y-110490000D02*
X144780000Y-107950000D01*
X147320000Y-116840000D02*
X147320000Y-110490000D01*
X130810000Y-86115000D02*
X134620000Y-89925000D01*
X127000000Y-86115000D02*
X130810000Y-86115000D01*
X135890000Y-97340000D02*
X136340000Y-97790000D01*
X135890000Y-96765000D02*
X135890000Y-97340000D01*
X136453190Y-97790000D02*
X137160000Y-98496810D01*
X136340000Y-97790000D02*
X136453190Y-97790000D01*
X137390000Y-105410000D02*
X138365000Y-105410000D01*
X137160000Y-105410000D02*
X137390000Y-105410000D01*
X135439990Y-103689990D02*
X137160000Y-105410000D01*
X135439991Y-100853199D02*
X135439990Y-103689990D01*
X137160000Y-99133190D02*
X135439991Y-100853199D01*
X137160000Y-98496810D02*
X137160000Y-99133190D01*
X146480000Y-87950000D02*
X145780000Y-87950000D01*
X147320000Y-88790000D02*
X146480000Y-87950000D01*
X147320000Y-89745002D02*
X147320000Y-88790000D01*
X140300002Y-96765000D02*
X147320000Y-89745002D01*
X135890000Y-96765000D02*
X140300002Y-96765000D01*
X138365000Y-106680000D02*
X140970000Y-106680000D01*
X140970000Y-106680000D02*
X144780000Y-110490000D01*
X130810000Y-96520000D02*
X132080000Y-97790000D01*
X125730000Y-96520000D02*
X130810000Y-96520000D01*
X143080000Y-88900000D02*
X143780000Y-88900000D01*
X141670000Y-88900000D02*
X143080000Y-88900000D01*
X132780000Y-97790000D02*
X141670000Y-88900000D01*
X132080000Y-97790000D02*
X132780000Y-97790000D01*
X140970000Y-97790000D02*
X143510000Y-97790000D01*
X140970000Y-99840000D02*
X137650000Y-99840000D01*
X137650000Y-99840000D02*
X135890000Y-101600000D01*
X135890000Y-102640000D02*
X137390000Y-104140000D01*
X137390000Y-104140000D02*
X138365000Y-104140000D01*
X135890000Y-101600000D02*
X135890000Y-102640000D01*
X129540000Y-104140000D02*
X125730000Y-107950000D01*
X133415000Y-104140000D02*
X129540000Y-104140000D01*
X133415000Y-105410000D02*
X130810000Y-105410000D01*
X130810000Y-105410000D02*
X125730000Y-110490000D01*
X142240000Y-102870000D02*
X144780000Y-105410000D01*
X138365000Y-102870000D02*
X142240000Y-102870000D01*
X125730000Y-105410000D02*
X128270000Y-102870000D01*
X128270000Y-102870000D02*
X133415000Y-102870000D01*
X132080000Y-106680000D02*
X125730000Y-113030000D01*
X133415000Y-106680000D02*
X132080000Y-106680000D01*
X134390000Y-107950000D02*
X133415000Y-107950000D01*
X126905001Y-114394999D02*
X126905001Y-113124999D01*
X125730000Y-115570000D02*
X126905001Y-114394999D01*
X132080000Y-107950000D02*
X133415000Y-107950000D01*
X126905001Y-113124999D02*
X132080000Y-107950000D01*
X143680000Y-115570000D02*
X144780000Y-115570000D01*
X143604999Y-115494999D02*
X143680000Y-115570000D01*
X143604999Y-113484999D02*
X143604999Y-115494999D01*
X139340000Y-109220000D02*
X143604999Y-113484999D01*
X138365000Y-109220000D02*
X139340000Y-109220000D01*
X138365000Y-107950000D02*
X139700000Y-107950000D01*
X139700000Y-107950000D02*
X144780000Y-113030000D01*
X138365000Y-114235000D02*
X138430000Y-114300000D01*
X138365000Y-110490000D02*
X138365000Y-114235000D01*
X133415000Y-111825000D02*
X135890000Y-114300000D01*
X133415000Y-110490000D02*
X133415000Y-111825000D01*
X135890000Y-98815000D02*
X135890000Y-99060000D01*
X135190000Y-98815000D02*
X135890000Y-98815000D01*
X134840010Y-110039990D02*
X134840010Y-99164990D01*
X134390000Y-110490000D02*
X134840010Y-110039990D01*
X134840010Y-99164990D02*
X135190000Y-98815000D01*
X133415000Y-110490000D02*
X134390000Y-110490000D01*
X132080000Y-114300000D02*
X130810000Y-113030000D01*
X132440000Y-109220000D02*
X133415000Y-109220000D01*
X130810000Y-110850000D02*
X132440000Y-109220000D01*
X130810000Y-113030000D02*
X130810000Y-110850000D01*
X129540000Y-77470000D02*
X132080000Y-77470000D01*
X127000000Y-80010000D02*
X129540000Y-77470000D01*
X127000000Y-84065000D02*
X127000000Y-80010000D01*
X132080000Y-77470000D02*
X138580000Y-77470000D01*
X126300000Y-84065000D02*
X123190000Y-87175000D01*
X127000000Y-84065000D02*
X126300000Y-84065000D01*
X123190000Y-87175000D02*
X123190000Y-87630000D01*
X123190000Y-87630000D02*
X123190000Y-116840000D01*
X123190000Y-116840000D02*
X124460000Y-118110000D01*
X124460000Y-118110000D02*
X128270000Y-118110000D01*
X128270000Y-118110000D02*
X132080000Y-114300000D01*
X132080000Y-114300000D02*
X133350000Y-114300000D01*
D10*
G36*
X149685001Y-119205000D02*
G01*
X122095000Y-119205000D01*
X122095000Y-87175000D01*
X122813186Y-87175000D01*
X122815000Y-87193416D01*
X122815000Y-87611582D01*
X122815001Y-116821574D01*
X122813186Y-116840000D01*
X122819767Y-116906813D01*
X122820427Y-116913513D01*
X122841870Y-116984200D01*
X122876692Y-117049347D01*
X122923553Y-117106448D01*
X122937861Y-117118191D01*
X124181814Y-118362145D01*
X124193552Y-118376448D01*
X124207855Y-118388186D01*
X124207858Y-118388189D01*
X124250653Y-118423309D01*
X124315800Y-118458131D01*
X124386487Y-118479574D01*
X124441581Y-118485000D01*
X124441583Y-118485000D01*
X124459999Y-118486814D01*
X124478415Y-118485000D01*
X128251584Y-118485000D01*
X128270000Y-118486814D01*
X128288416Y-118485000D01*
X128288419Y-118485000D01*
X128343513Y-118479574D01*
X128414200Y-118458131D01*
X128479347Y-118423309D01*
X128536448Y-118376448D01*
X128548195Y-118362134D01*
X129650904Y-117259425D01*
X132005914Y-117259425D01*
X132113566Y-117513584D01*
X132268733Y-117741858D01*
X132465453Y-117935474D01*
X132696166Y-118086991D01*
X132930576Y-118184078D01*
X133146000Y-118091989D01*
X133146000Y-117044000D01*
X133554000Y-117044000D01*
X133554000Y-118091989D01*
X133769424Y-118184078D01*
X134003834Y-118086991D01*
X134234547Y-117935474D01*
X134431267Y-117741858D01*
X134586434Y-117513584D01*
X134694086Y-117259425D01*
X134603651Y-117044000D01*
X133554000Y-117044000D01*
X133146000Y-117044000D01*
X132096349Y-117044000D01*
X132005914Y-117259425D01*
X129650904Y-117259425D01*
X130178670Y-116731659D01*
X134790000Y-116731659D01*
X134790000Y-116948341D01*
X134832273Y-117160858D01*
X134915193Y-117361045D01*
X135035575Y-117541209D01*
X135188791Y-117694425D01*
X135368955Y-117814807D01*
X135569142Y-117897727D01*
X135781659Y-117940000D01*
X135998341Y-117940000D01*
X136210858Y-117897727D01*
X136411045Y-117814807D01*
X136591209Y-117694425D01*
X136744425Y-117541209D01*
X136864807Y-117361045D01*
X136947727Y-117160858D01*
X136990000Y-116948341D01*
X136990000Y-116731659D01*
X136947727Y-116519142D01*
X136864807Y-116318955D01*
X136744425Y-116138791D01*
X136591209Y-115985575D01*
X136411045Y-115865193D01*
X136210858Y-115782273D01*
X135998341Y-115740000D01*
X135781659Y-115740000D01*
X135569142Y-115782273D01*
X135368955Y-115865193D01*
X135188791Y-115985575D01*
X135035575Y-116138791D01*
X134915193Y-116318955D01*
X134832273Y-116519142D01*
X134790000Y-116731659D01*
X130178670Y-116731659D01*
X130489754Y-116420575D01*
X132005914Y-116420575D01*
X132096349Y-116636000D01*
X133146000Y-116636000D01*
X133146000Y-115588011D01*
X133554000Y-115588011D01*
X133554000Y-116636000D01*
X134603651Y-116636000D01*
X134694086Y-116420575D01*
X134586434Y-116166416D01*
X134431267Y-115938142D01*
X134234547Y-115744526D01*
X134003834Y-115593009D01*
X133769424Y-115495922D01*
X133554000Y-115588011D01*
X133146000Y-115588011D01*
X132930576Y-115495922D01*
X132696166Y-115593009D01*
X132465453Y-115744526D01*
X132268733Y-115938142D01*
X132113566Y-116166416D01*
X132005914Y-116420575D01*
X130489754Y-116420575D01*
X132235330Y-114675000D01*
X132314699Y-114675000D01*
X132375193Y-114821045D01*
X132495575Y-115001209D01*
X132648791Y-115154425D01*
X132828955Y-115274807D01*
X133029142Y-115357727D01*
X133241659Y-115400000D01*
X133458341Y-115400000D01*
X133670858Y-115357727D01*
X133871045Y-115274807D01*
X134051209Y-115154425D01*
X134204425Y-115001209D01*
X134324807Y-114821045D01*
X134407727Y-114620858D01*
X134450000Y-114408341D01*
X134450000Y-114191659D01*
X134407727Y-113979142D01*
X134324807Y-113778955D01*
X134204425Y-113598791D01*
X134051209Y-113445575D01*
X133871045Y-113325193D01*
X133670858Y-113242273D01*
X133458341Y-113200000D01*
X133241659Y-113200000D01*
X133029142Y-113242273D01*
X132828955Y-113325193D01*
X132648791Y-113445575D01*
X132495575Y-113598791D01*
X132375193Y-113778955D01*
X132314699Y-113925000D01*
X132235331Y-113925000D01*
X131185000Y-112874671D01*
X131185000Y-111005329D01*
X132446589Y-109743740D01*
X132511728Y-109763500D01*
X132590000Y-109771209D01*
X134240000Y-109771209D01*
X134318272Y-109763500D01*
X134393536Y-109740669D01*
X134462900Y-109703593D01*
X134465010Y-109701861D01*
X134465010Y-109884660D01*
X134383410Y-109966259D01*
X134318272Y-109946500D01*
X134240000Y-109938791D01*
X132590000Y-109938791D01*
X132511728Y-109946500D01*
X132436464Y-109969331D01*
X132367100Y-110006407D01*
X132306302Y-110056302D01*
X132256407Y-110117100D01*
X132219331Y-110186464D01*
X132196500Y-110261728D01*
X132188791Y-110340000D01*
X132188791Y-110640000D01*
X132196500Y-110718272D01*
X132219331Y-110793536D01*
X132256407Y-110862900D01*
X132306302Y-110923698D01*
X132367100Y-110973593D01*
X132436464Y-111010669D01*
X132511728Y-111033500D01*
X132590000Y-111041209D01*
X133040000Y-111041209D01*
X133040001Y-111806574D01*
X133038186Y-111825000D01*
X133044767Y-111891813D01*
X133045427Y-111898513D01*
X133066870Y-111969200D01*
X133101692Y-112034347D01*
X133148553Y-112091448D01*
X133162862Y-112103191D01*
X134892767Y-113833097D01*
X134832273Y-113979142D01*
X134790000Y-114191659D01*
X134790000Y-114408341D01*
X134832273Y-114620858D01*
X134915193Y-114821045D01*
X135035575Y-115001209D01*
X135188791Y-115154425D01*
X135368955Y-115274807D01*
X135569142Y-115357727D01*
X135781659Y-115400000D01*
X135998341Y-115400000D01*
X136210858Y-115357727D01*
X136411045Y-115274807D01*
X136591209Y-115154425D01*
X136744425Y-115001209D01*
X136864807Y-114821045D01*
X136947727Y-114620858D01*
X136990000Y-114408341D01*
X136990000Y-114191659D01*
X136947727Y-113979142D01*
X136864807Y-113778955D01*
X136744425Y-113598791D01*
X136591209Y-113445575D01*
X136411045Y-113325193D01*
X136210858Y-113242273D01*
X135998341Y-113200000D01*
X135781659Y-113200000D01*
X135569142Y-113242273D01*
X135423097Y-113302767D01*
X133790000Y-111669671D01*
X133790000Y-111041209D01*
X134240000Y-111041209D01*
X134318272Y-111033500D01*
X134393536Y-111010669D01*
X134462900Y-110973593D01*
X134523698Y-110923698D01*
X134573593Y-110862900D01*
X134610211Y-110794394D01*
X134656448Y-110756448D01*
X134668195Y-110742134D01*
X135070329Y-110340000D01*
X137138791Y-110340000D01*
X137138791Y-110640000D01*
X137146500Y-110718272D01*
X137169331Y-110793536D01*
X137206407Y-110862900D01*
X137256302Y-110923698D01*
X137317100Y-110973593D01*
X137386464Y-111010669D01*
X137461728Y-111033500D01*
X137540000Y-111041209D01*
X137990000Y-111041209D01*
X137990001Y-113198791D01*
X137580000Y-113198791D01*
X137530992Y-113203618D01*
X137483866Y-113217913D01*
X137440436Y-113241127D01*
X137402368Y-113272368D01*
X137371127Y-113310436D01*
X137347913Y-113353866D01*
X137333618Y-113400992D01*
X137328791Y-113450000D01*
X137328791Y-115150000D01*
X137333618Y-115199008D01*
X137347913Y-115246134D01*
X137371127Y-115289564D01*
X137402368Y-115327632D01*
X137440436Y-115358873D01*
X137483866Y-115382087D01*
X137530992Y-115396382D01*
X137580000Y-115401209D01*
X139280000Y-115401209D01*
X139329008Y-115396382D01*
X139376134Y-115382087D01*
X139419564Y-115358873D01*
X139457632Y-115327632D01*
X139488873Y-115289564D01*
X139512087Y-115246134D01*
X139526382Y-115199008D01*
X139531209Y-115150000D01*
X139531209Y-113450000D01*
X139526382Y-113400992D01*
X139512087Y-113353866D01*
X139488873Y-113310436D01*
X139457632Y-113272368D01*
X139419564Y-113241127D01*
X139376134Y-113217913D01*
X139329008Y-113203618D01*
X139280000Y-113198791D01*
X138740000Y-113198791D01*
X138740000Y-111041209D01*
X139190000Y-111041209D01*
X139268272Y-111033500D01*
X139343536Y-111010669D01*
X139412900Y-110973593D01*
X139473698Y-110923698D01*
X139523593Y-110862900D01*
X139560669Y-110793536D01*
X139583500Y-110718272D01*
X139591209Y-110640000D01*
X139591209Y-110340000D01*
X139583500Y-110261728D01*
X139560669Y-110186464D01*
X139523593Y-110117100D01*
X139473698Y-110056302D01*
X139412900Y-110006407D01*
X139343536Y-109969331D01*
X139268272Y-109946500D01*
X139190000Y-109938791D01*
X137540000Y-109938791D01*
X137461728Y-109946500D01*
X137386464Y-109969331D01*
X137317100Y-110006407D01*
X137256302Y-110056302D01*
X137206407Y-110117100D01*
X137169331Y-110186464D01*
X137146500Y-110261728D01*
X137138791Y-110340000D01*
X135070329Y-110340000D01*
X135092155Y-110318175D01*
X135106458Y-110306438D01*
X135118196Y-110292135D01*
X135118199Y-110292132D01*
X135153319Y-110249337D01*
X135188140Y-110184192D01*
X135188141Y-110184189D01*
X135209584Y-110113503D01*
X135215010Y-110058409D01*
X135215010Y-110058407D01*
X135216824Y-110039991D01*
X135215010Y-110021575D01*
X135215010Y-107023500D01*
X136832000Y-107023500D01*
X136842053Y-107098907D01*
X136875780Y-107203522D01*
X136929267Y-107299546D01*
X137000460Y-107383291D01*
X137086623Y-107451537D01*
X137184445Y-107501662D01*
X137252440Y-107521008D01*
X137206407Y-107577100D01*
X137169331Y-107646464D01*
X137146500Y-107721728D01*
X137138791Y-107800000D01*
X137138791Y-108100000D01*
X137146500Y-108178272D01*
X137169331Y-108253536D01*
X137206407Y-108322900D01*
X137256302Y-108383698D01*
X137317100Y-108433593D01*
X137386464Y-108470669D01*
X137461728Y-108493500D01*
X137540000Y-108501209D01*
X139190000Y-108501209D01*
X139268272Y-108493500D01*
X139343536Y-108470669D01*
X139412900Y-108433593D01*
X139473698Y-108383698D01*
X139521870Y-108325000D01*
X139544671Y-108325000D01*
X143782767Y-112563097D01*
X143722273Y-112709142D01*
X143680000Y-112921659D01*
X143680000Y-113029670D01*
X139618195Y-108967866D01*
X139606448Y-108953552D01*
X139560211Y-108915606D01*
X139523593Y-108847100D01*
X139473698Y-108786302D01*
X139412900Y-108736407D01*
X139343536Y-108699331D01*
X139268272Y-108676500D01*
X139190000Y-108668791D01*
X137540000Y-108668791D01*
X137461728Y-108676500D01*
X137386464Y-108699331D01*
X137317100Y-108736407D01*
X137256302Y-108786302D01*
X137206407Y-108847100D01*
X137169331Y-108916464D01*
X137146500Y-108991728D01*
X137138791Y-109070000D01*
X137138791Y-109370000D01*
X137146500Y-109448272D01*
X137169331Y-109523536D01*
X137206407Y-109592900D01*
X137256302Y-109653698D01*
X137317100Y-109703593D01*
X137386464Y-109740669D01*
X137461728Y-109763500D01*
X137540000Y-109771209D01*
X139190000Y-109771209D01*
X139268272Y-109763500D01*
X139333411Y-109743740D01*
X143229999Y-113640329D01*
X143230000Y-115476573D01*
X143228185Y-115494999D01*
X143234766Y-115561812D01*
X143235426Y-115568512D01*
X143256869Y-115639199D01*
X143291691Y-115704346D01*
X143338552Y-115761447D01*
X143352861Y-115773190D01*
X143401805Y-115822134D01*
X143413552Y-115836448D01*
X143470653Y-115883309D01*
X143535800Y-115918131D01*
X143606487Y-115939574D01*
X143661581Y-115945000D01*
X143661583Y-115945000D01*
X143678791Y-115946695D01*
X143678791Y-116420000D01*
X143683618Y-116469008D01*
X143697913Y-116516134D01*
X143721127Y-116559564D01*
X143752368Y-116597632D01*
X143790436Y-116628873D01*
X143833866Y-116652087D01*
X143880992Y-116666382D01*
X143930000Y-116671209D01*
X145630000Y-116671209D01*
X145679008Y-116666382D01*
X145726134Y-116652087D01*
X145769564Y-116628873D01*
X145807632Y-116597632D01*
X145838873Y-116559564D01*
X145862087Y-116516134D01*
X145876382Y-116469008D01*
X145881209Y-116420000D01*
X145881209Y-114720000D01*
X145876382Y-114670992D01*
X145862087Y-114623866D01*
X145838873Y-114580436D01*
X145807632Y-114542368D01*
X145769564Y-114511127D01*
X145726134Y-114487913D01*
X145679008Y-114473618D01*
X145630000Y-114468791D01*
X143979999Y-114468791D01*
X143979999Y-113785633D01*
X144078791Y-113884425D01*
X144258955Y-114004807D01*
X144459142Y-114087727D01*
X144671659Y-114130000D01*
X144888341Y-114130000D01*
X145100858Y-114087727D01*
X145301045Y-114004807D01*
X145481209Y-113884425D01*
X145634425Y-113731209D01*
X145754807Y-113551045D01*
X145837727Y-113350858D01*
X145880000Y-113138341D01*
X145880000Y-112921659D01*
X145837727Y-112709142D01*
X145754807Y-112508955D01*
X145634425Y-112328791D01*
X145481209Y-112175575D01*
X145301045Y-112055193D01*
X145100858Y-111972273D01*
X144888341Y-111930000D01*
X144671659Y-111930000D01*
X144459142Y-111972273D01*
X144313097Y-112032767D01*
X143189754Y-110909424D01*
X143435922Y-110909424D01*
X143533009Y-111143834D01*
X143684526Y-111374547D01*
X143878142Y-111571267D01*
X144106416Y-111726434D01*
X144360575Y-111834086D01*
X144576000Y-111743651D01*
X144576000Y-110694000D01*
X144984000Y-110694000D01*
X144984000Y-111743651D01*
X145199425Y-111834086D01*
X145453584Y-111726434D01*
X145681858Y-111571267D01*
X145875474Y-111374547D01*
X146026991Y-111143834D01*
X146124078Y-110909424D01*
X146031989Y-110694000D01*
X144984000Y-110694000D01*
X144576000Y-110694000D01*
X143528011Y-110694000D01*
X143435922Y-110909424D01*
X143189754Y-110909424D01*
X142350906Y-110070576D01*
X143435922Y-110070576D01*
X143528011Y-110286000D01*
X144576000Y-110286000D01*
X144576000Y-109236349D01*
X144984000Y-109236349D01*
X144984000Y-110286000D01*
X146031989Y-110286000D01*
X146124078Y-110070576D01*
X146026991Y-109836166D01*
X145875474Y-109605453D01*
X145681858Y-109408733D01*
X145453584Y-109253566D01*
X145199425Y-109145914D01*
X144984000Y-109236349D01*
X144576000Y-109236349D01*
X144360575Y-109145914D01*
X144106416Y-109253566D01*
X143878142Y-109408733D01*
X143684526Y-109605453D01*
X143533009Y-109836166D01*
X143435922Y-110070576D01*
X142350906Y-110070576D01*
X139978195Y-107697866D01*
X139966448Y-107683552D01*
X139909347Y-107636691D01*
X139844200Y-107601869D01*
X139773513Y-107580426D01*
X139718419Y-107575000D01*
X139718416Y-107575000D01*
X139700000Y-107573186D01*
X139681584Y-107575000D01*
X139521870Y-107575000D01*
X139477560Y-107521008D01*
X139545555Y-107501662D01*
X139643377Y-107451537D01*
X139729540Y-107383291D01*
X139800733Y-107299546D01*
X139854220Y-107203522D01*
X139887947Y-107098907D01*
X139898000Y-107023500D01*
X139758500Y-106884000D01*
X138569000Y-106884000D01*
X138569000Y-106904000D01*
X138161000Y-106904000D01*
X138161000Y-106884000D01*
X136971500Y-106884000D01*
X136832000Y-107023500D01*
X135215010Y-107023500D01*
X135215010Y-103995339D01*
X136881809Y-105662139D01*
X136893552Y-105676448D01*
X136907859Y-105688189D01*
X136950652Y-105723309D01*
X137015798Y-105758130D01*
X137015800Y-105758131D01*
X137086487Y-105779574D01*
X137141581Y-105785000D01*
X137141583Y-105785000D01*
X137159999Y-105786814D01*
X137178415Y-105785000D01*
X137208130Y-105785000D01*
X137252440Y-105838992D01*
X137184445Y-105858338D01*
X137086623Y-105908463D01*
X137000460Y-105976709D01*
X136929267Y-106060454D01*
X136875780Y-106156478D01*
X136842053Y-106261093D01*
X136832000Y-106336500D01*
X136971500Y-106476000D01*
X138161000Y-106476000D01*
X138161000Y-106456000D01*
X138569000Y-106456000D01*
X138569000Y-106476000D01*
X139758500Y-106476000D01*
X139898000Y-106336500D01*
X139887947Y-106261093D01*
X139854220Y-106156478D01*
X139800733Y-106060454D01*
X139729540Y-105976709D01*
X139643377Y-105908463D01*
X139545555Y-105858338D01*
X139477560Y-105838992D01*
X139521870Y-105785000D01*
X142084671Y-105785000D01*
X143782767Y-107483097D01*
X143722273Y-107629142D01*
X143680000Y-107841659D01*
X143680000Y-108058341D01*
X143722273Y-108270858D01*
X143805193Y-108471045D01*
X143925575Y-108651209D01*
X144078791Y-108804425D01*
X144258955Y-108924807D01*
X144459142Y-109007727D01*
X144671659Y-109050000D01*
X144888341Y-109050000D01*
X145100858Y-109007727D01*
X145246904Y-108947233D01*
X146945001Y-110645331D01*
X146945000Y-116684669D01*
X145894671Y-117735000D01*
X143665331Y-117735000D01*
X142518195Y-116587866D01*
X142506448Y-116573552D01*
X142449347Y-116526691D01*
X142384200Y-116491869D01*
X142313513Y-116470426D01*
X142258419Y-116465000D01*
X142258416Y-116465000D01*
X142240000Y-116463186D01*
X142221584Y-116465000D01*
X139465301Y-116465000D01*
X139404807Y-116318955D01*
X139284425Y-116138791D01*
X139131209Y-115985575D01*
X138951045Y-115865193D01*
X138750858Y-115782273D01*
X138538341Y-115740000D01*
X138321659Y-115740000D01*
X138109142Y-115782273D01*
X137908955Y-115865193D01*
X137728791Y-115985575D01*
X137575575Y-116138791D01*
X137455193Y-116318955D01*
X137372273Y-116519142D01*
X137330000Y-116731659D01*
X137330000Y-116948341D01*
X137372273Y-117160858D01*
X137455193Y-117361045D01*
X137575575Y-117541209D01*
X137728791Y-117694425D01*
X137908955Y-117814807D01*
X138109142Y-117897727D01*
X138321659Y-117940000D01*
X138538341Y-117940000D01*
X138750858Y-117897727D01*
X138951045Y-117814807D01*
X139131209Y-117694425D01*
X139284425Y-117541209D01*
X139404807Y-117361045D01*
X139465301Y-117215000D01*
X142084671Y-117215000D01*
X143231814Y-118362145D01*
X143243552Y-118376448D01*
X143257855Y-118388186D01*
X143257858Y-118388189D01*
X143300653Y-118423309D01*
X143365800Y-118458131D01*
X143436487Y-118479574D01*
X143491581Y-118485000D01*
X143491583Y-118485000D01*
X143509999Y-118486814D01*
X143528415Y-118485000D01*
X146031584Y-118485000D01*
X146050000Y-118486814D01*
X146068416Y-118485000D01*
X146068419Y-118485000D01*
X146123513Y-118479574D01*
X146194200Y-118458131D01*
X146259347Y-118423309D01*
X146316448Y-118376448D01*
X146328195Y-118362134D01*
X147572146Y-117118185D01*
X147586448Y-117106448D01*
X147598186Y-117092145D01*
X147598189Y-117092142D01*
X147633309Y-117049347D01*
X147668130Y-116984202D01*
X147668131Y-116984199D01*
X147689574Y-116913513D01*
X147695000Y-116858419D01*
X147695000Y-116858417D01*
X147696814Y-116840001D01*
X147695000Y-116821585D01*
X147695000Y-110508415D01*
X147696814Y-110489999D01*
X147695000Y-110471581D01*
X147689574Y-110416487D01*
X147668131Y-110345800D01*
X147665031Y-110340000D01*
X147633309Y-110280652D01*
X147598188Y-110237858D01*
X147586448Y-110223552D01*
X147572139Y-110211809D01*
X145777233Y-108416904D01*
X145837727Y-108270858D01*
X145880000Y-108058341D01*
X145880000Y-107841659D01*
X145837727Y-107629142D01*
X145754807Y-107428955D01*
X145634425Y-107248791D01*
X145481209Y-107095575D01*
X145301045Y-106975193D01*
X145100858Y-106892273D01*
X144888341Y-106850000D01*
X144671659Y-106850000D01*
X144459142Y-106892273D01*
X144313097Y-106952767D01*
X142518195Y-105157866D01*
X142506448Y-105143552D01*
X142449347Y-105096691D01*
X142384200Y-105061869D01*
X142313513Y-105040426D01*
X142258419Y-105035000D01*
X142258416Y-105035000D01*
X142240000Y-105033186D01*
X142221584Y-105035000D01*
X139521870Y-105035000D01*
X139473698Y-104976302D01*
X139412900Y-104926407D01*
X139343536Y-104889331D01*
X139268272Y-104866500D01*
X139190000Y-104858791D01*
X137540000Y-104858791D01*
X137461728Y-104866500D01*
X137386464Y-104889331D01*
X137317100Y-104926407D01*
X137256483Y-104976153D01*
X135814989Y-103534660D01*
X135814989Y-103095319D01*
X137111809Y-104392139D01*
X137123552Y-104406448D01*
X137169789Y-104444394D01*
X137206407Y-104512900D01*
X137256302Y-104573698D01*
X137317100Y-104623593D01*
X137386464Y-104660669D01*
X137461728Y-104683500D01*
X137540000Y-104691209D01*
X139190000Y-104691209D01*
X139268272Y-104683500D01*
X139343536Y-104660669D01*
X139412900Y-104623593D01*
X139473698Y-104573698D01*
X139523593Y-104512900D01*
X139560669Y-104443536D01*
X139583500Y-104368272D01*
X139591209Y-104290000D01*
X139591209Y-103990000D01*
X139583500Y-103911728D01*
X139560669Y-103836464D01*
X139523593Y-103767100D01*
X139473698Y-103706302D01*
X139412900Y-103656407D01*
X139343536Y-103619331D01*
X139268272Y-103596500D01*
X139190000Y-103588791D01*
X137540000Y-103588791D01*
X137461728Y-103596500D01*
X137396589Y-103616260D01*
X136500329Y-102720000D01*
X137138791Y-102720000D01*
X137138791Y-103020000D01*
X137146500Y-103098272D01*
X137169331Y-103173536D01*
X137206407Y-103242900D01*
X137256302Y-103303698D01*
X137317100Y-103353593D01*
X137386464Y-103390669D01*
X137461728Y-103413500D01*
X137540000Y-103421209D01*
X139190000Y-103421209D01*
X139268272Y-103413500D01*
X139343536Y-103390669D01*
X139412900Y-103353593D01*
X139473698Y-103303698D01*
X139521870Y-103245000D01*
X142084671Y-103245000D01*
X143782767Y-104943097D01*
X143722273Y-105089142D01*
X143680000Y-105301659D01*
X143680000Y-105518341D01*
X143722273Y-105730858D01*
X143805193Y-105931045D01*
X143925575Y-106111209D01*
X144078791Y-106264425D01*
X144258955Y-106384807D01*
X144459142Y-106467727D01*
X144671659Y-106510000D01*
X144888341Y-106510000D01*
X145100858Y-106467727D01*
X145301045Y-106384807D01*
X145481209Y-106264425D01*
X145634425Y-106111209D01*
X145754807Y-105931045D01*
X145837727Y-105730858D01*
X145880000Y-105518341D01*
X145880000Y-105301659D01*
X145837727Y-105089142D01*
X145754807Y-104888955D01*
X145634425Y-104708791D01*
X145481209Y-104555575D01*
X145301045Y-104435193D01*
X145100858Y-104352273D01*
X144888341Y-104310000D01*
X144671659Y-104310000D01*
X144459142Y-104352273D01*
X144313097Y-104412767D01*
X142518195Y-102617866D01*
X142506448Y-102603552D01*
X142449347Y-102556691D01*
X142384200Y-102521869D01*
X142313513Y-102500426D01*
X142258419Y-102495000D01*
X142258416Y-102495000D01*
X142240000Y-102493186D01*
X142221584Y-102495000D01*
X139521870Y-102495000D01*
X139473698Y-102436302D01*
X139412900Y-102386407D01*
X139343536Y-102349331D01*
X139268272Y-102326500D01*
X139190000Y-102318791D01*
X137540000Y-102318791D01*
X137461728Y-102326500D01*
X137386464Y-102349331D01*
X137317100Y-102386407D01*
X137256302Y-102436302D01*
X137206407Y-102497100D01*
X137169331Y-102566464D01*
X137146500Y-102641728D01*
X137138791Y-102720000D01*
X136500329Y-102720000D01*
X136265000Y-102484671D01*
X136265000Y-101755329D01*
X137805330Y-100215000D01*
X140023716Y-100215000D01*
X140028422Y-100262782D01*
X140056943Y-100356805D01*
X140103260Y-100443457D01*
X140165591Y-100519409D01*
X140241543Y-100581740D01*
X140328195Y-100628057D01*
X140422218Y-100656578D01*
X140519999Y-100666209D01*
X141420001Y-100666209D01*
X141517782Y-100656578D01*
X141611805Y-100628057D01*
X141698457Y-100581740D01*
X141774409Y-100519409D01*
X141836740Y-100443457D01*
X141851950Y-100415000D01*
X142249300Y-100415000D01*
X142260074Y-100524387D01*
X142291981Y-100629571D01*
X142343795Y-100726508D01*
X142413525Y-100811475D01*
X142498492Y-100881205D01*
X142595429Y-100933019D01*
X142700613Y-100964926D01*
X142810000Y-100975700D01*
X143166500Y-100973000D01*
X143306000Y-100833500D01*
X143306000Y-100044000D01*
X143714000Y-100044000D01*
X143714000Y-100833500D01*
X143853500Y-100973000D01*
X144210000Y-100975700D01*
X144319387Y-100964926D01*
X144424571Y-100933019D01*
X144521508Y-100881205D01*
X144606475Y-100811475D01*
X144676205Y-100726508D01*
X144728019Y-100629571D01*
X144759926Y-100524387D01*
X144770700Y-100415000D01*
X144768000Y-100183500D01*
X144628500Y-100044000D01*
X143714000Y-100044000D01*
X143306000Y-100044000D01*
X142391500Y-100044000D01*
X142252000Y-100183500D01*
X142249300Y-100415000D01*
X141851950Y-100415000D01*
X141883057Y-100356805D01*
X141911578Y-100262782D01*
X141921209Y-100165001D01*
X141921209Y-99514999D01*
X141911578Y-99417218D01*
X141883057Y-99323195D01*
X141851951Y-99265000D01*
X142249300Y-99265000D01*
X142252000Y-99496500D01*
X142391500Y-99636000D01*
X143306000Y-99636000D01*
X143306000Y-98846500D01*
X143714000Y-98846500D01*
X143714000Y-99636000D01*
X144628500Y-99636000D01*
X144768000Y-99496500D01*
X144770700Y-99265000D01*
X144759926Y-99155613D01*
X144728019Y-99050429D01*
X144676205Y-98953492D01*
X144606475Y-98868525D01*
X144521508Y-98798795D01*
X144424571Y-98746981D01*
X144319387Y-98715074D01*
X144210000Y-98704300D01*
X143853500Y-98707000D01*
X143714000Y-98846500D01*
X143306000Y-98846500D01*
X143166500Y-98707000D01*
X142810000Y-98704300D01*
X142700613Y-98715074D01*
X142595429Y-98746981D01*
X142498492Y-98798795D01*
X142413525Y-98868525D01*
X142343795Y-98953492D01*
X142291981Y-99050429D01*
X142260074Y-99155613D01*
X142249300Y-99265000D01*
X141851951Y-99265000D01*
X141836740Y-99236543D01*
X141774409Y-99160591D01*
X141698457Y-99098260D01*
X141611805Y-99051943D01*
X141517782Y-99023422D01*
X141420001Y-99013791D01*
X140519999Y-99013791D01*
X140422218Y-99023422D01*
X140328195Y-99051943D01*
X140241543Y-99098260D01*
X140165591Y-99160591D01*
X140103260Y-99236543D01*
X140056943Y-99323195D01*
X140028422Y-99417218D01*
X140023716Y-99465000D01*
X137668416Y-99465000D01*
X137650000Y-99463186D01*
X137631584Y-99465000D01*
X137631581Y-99465000D01*
X137576487Y-99470426D01*
X137505800Y-99491869D01*
X137440653Y-99526691D01*
X137383552Y-99573552D01*
X137371809Y-99587861D01*
X135814991Y-101144680D01*
X135814991Y-101008528D01*
X137412139Y-99411381D01*
X137426448Y-99399638D01*
X137473309Y-99342537D01*
X137508131Y-99277390D01*
X137529574Y-99206703D01*
X137535000Y-99151609D01*
X137535000Y-99151607D01*
X137536814Y-99133191D01*
X137535000Y-99114775D01*
X137535000Y-98515225D01*
X137536814Y-98496809D01*
X137533865Y-98466869D01*
X137529574Y-98423297D01*
X137508131Y-98352610D01*
X137473309Y-98287463D01*
X137438189Y-98244668D01*
X137438186Y-98244665D01*
X137426448Y-98230362D01*
X137412146Y-98218625D01*
X136731385Y-97537866D01*
X136719638Y-97523552D01*
X136662537Y-97476691D01*
X136658017Y-97474275D01*
X136694409Y-97444409D01*
X136756740Y-97368457D01*
X136803057Y-97281805D01*
X136831578Y-97187782D01*
X136836284Y-97140000D01*
X140141456Y-97140000D01*
X140103260Y-97186543D01*
X140056943Y-97273195D01*
X140028422Y-97367218D01*
X140018791Y-97464999D01*
X140018791Y-98115001D01*
X140028422Y-98212782D01*
X140056943Y-98306805D01*
X140103260Y-98393457D01*
X140165591Y-98469409D01*
X140241543Y-98531740D01*
X140328195Y-98578057D01*
X140422218Y-98606578D01*
X140519999Y-98616209D01*
X141420001Y-98616209D01*
X141517782Y-98606578D01*
X141611805Y-98578057D01*
X141698457Y-98531740D01*
X141774409Y-98469409D01*
X141836740Y-98393457D01*
X141883057Y-98306805D01*
X141911578Y-98212782D01*
X141916284Y-98165000D01*
X142563716Y-98165000D01*
X142568422Y-98212782D01*
X142596943Y-98306805D01*
X142643260Y-98393457D01*
X142705591Y-98469409D01*
X142781543Y-98531740D01*
X142868195Y-98578057D01*
X142962218Y-98606578D01*
X143059999Y-98616209D01*
X143960001Y-98616209D01*
X144057782Y-98606578D01*
X144151805Y-98578057D01*
X144238457Y-98531740D01*
X144314409Y-98469409D01*
X144376740Y-98393457D01*
X144423057Y-98306805D01*
X144451578Y-98212782D01*
X144461209Y-98115001D01*
X144461209Y-97464999D01*
X144451578Y-97367218D01*
X144423057Y-97273195D01*
X144376740Y-97186543D01*
X144314409Y-97110591D01*
X144238457Y-97048260D01*
X144151805Y-97001943D01*
X144057782Y-96973422D01*
X143960001Y-96963791D01*
X143059999Y-96963791D01*
X142962218Y-96973422D01*
X142868195Y-97001943D01*
X142781543Y-97048260D01*
X142705591Y-97110591D01*
X142643260Y-97186543D01*
X142596943Y-97273195D01*
X142568422Y-97367218D01*
X142563716Y-97415000D01*
X141916284Y-97415000D01*
X141911578Y-97367218D01*
X141883057Y-97273195D01*
X141836740Y-97186543D01*
X141774409Y-97110591D01*
X141698457Y-97048260D01*
X141611805Y-97001943D01*
X141517782Y-96973422D01*
X141420001Y-96963791D01*
X140631540Y-96963791D01*
X147572140Y-90023192D01*
X147586448Y-90011450D01*
X147611243Y-89981236D01*
X147633309Y-89954350D01*
X147668130Y-89889204D01*
X147668131Y-89889201D01*
X147689574Y-89818515D01*
X147695000Y-89763421D01*
X147695000Y-89763419D01*
X147696814Y-89745003D01*
X147695000Y-89726587D01*
X147695000Y-88808415D01*
X147696814Y-88789999D01*
X147694008Y-88761508D01*
X147689574Y-88716487D01*
X147668131Y-88645800D01*
X147655309Y-88621811D01*
X147633309Y-88580652D01*
X147598188Y-88537858D01*
X147586448Y-88523552D01*
X147572139Y-88511809D01*
X146758195Y-87697866D01*
X146746448Y-87683552D01*
X146689347Y-87636691D01*
X146624200Y-87601869D01*
X146553513Y-87580426D01*
X146498419Y-87575000D01*
X146498416Y-87575000D01*
X146481209Y-87573305D01*
X146481209Y-87550000D01*
X146476382Y-87500992D01*
X146462087Y-87453866D01*
X146438873Y-87410436D01*
X146407632Y-87372368D01*
X146369564Y-87341127D01*
X146326134Y-87317913D01*
X146279008Y-87303618D01*
X146230000Y-87298791D01*
X146155000Y-87298791D01*
X146155000Y-86785329D01*
X146302139Y-86638191D01*
X146316448Y-86626448D01*
X146336423Y-86602108D01*
X146363310Y-86569347D01*
X146387070Y-86524893D01*
X146398131Y-86504200D01*
X146419574Y-86433513D01*
X146426814Y-86360000D01*
X146419574Y-86286487D01*
X146398131Y-86215800D01*
X146363309Y-86150653D01*
X146316448Y-86093552D01*
X146259347Y-86046691D01*
X146259348Y-86046691D01*
X146259346Y-86046690D01*
X146226773Y-86029280D01*
X146194200Y-86011869D01*
X146123513Y-85990426D01*
X146068419Y-85985000D01*
X146068416Y-85985000D01*
X146050000Y-85983186D01*
X146031584Y-85985000D01*
X142713415Y-85985000D01*
X142694999Y-85983186D01*
X142676583Y-85985000D01*
X142676581Y-85985000D01*
X142621487Y-85990426D01*
X142550800Y-86011869D01*
X142485653Y-86046691D01*
X142428552Y-86093552D01*
X142416809Y-86107861D01*
X139254544Y-89270127D01*
X139234409Y-89245591D01*
X139158457Y-89183260D01*
X139071805Y-89136943D01*
X138977782Y-89108422D01*
X138880001Y-89098791D01*
X137979999Y-89098791D01*
X137882218Y-89108422D01*
X137788195Y-89136943D01*
X137701543Y-89183260D01*
X137625591Y-89245591D01*
X137563260Y-89321543D01*
X137516943Y-89408195D01*
X137488422Y-89502218D01*
X137483716Y-89550000D01*
X135566284Y-89550000D01*
X135561578Y-89502218D01*
X135533057Y-89408195D01*
X135486740Y-89321543D01*
X135424409Y-89245591D01*
X135348457Y-89183260D01*
X135261805Y-89136943D01*
X135167782Y-89108422D01*
X135070001Y-89098791D01*
X134324121Y-89098791D01*
X134233654Y-89008324D01*
X134276500Y-89008000D01*
X134416000Y-88868500D01*
X134416000Y-88079000D01*
X134824000Y-88079000D01*
X134824000Y-88868500D01*
X134963500Y-89008000D01*
X135320000Y-89010700D01*
X135429387Y-88999926D01*
X135534571Y-88968019D01*
X135631508Y-88916205D01*
X135716475Y-88846475D01*
X135786205Y-88761508D01*
X135838019Y-88664571D01*
X135869926Y-88559387D01*
X135880700Y-88450000D01*
X137169300Y-88450000D01*
X137180074Y-88559387D01*
X137211981Y-88664571D01*
X137263795Y-88761508D01*
X137333525Y-88846475D01*
X137418492Y-88916205D01*
X137515429Y-88968019D01*
X137620613Y-88999926D01*
X137730000Y-89010700D01*
X138086500Y-89008000D01*
X138226000Y-88868500D01*
X138226000Y-88079000D01*
X138634000Y-88079000D01*
X138634000Y-88868500D01*
X138773500Y-89008000D01*
X139130000Y-89010700D01*
X139239387Y-88999926D01*
X139344571Y-88968019D01*
X139441508Y-88916205D01*
X139526475Y-88846475D01*
X139596205Y-88761508D01*
X139648019Y-88664571D01*
X139679926Y-88559387D01*
X139690700Y-88450000D01*
X139688000Y-88218500D01*
X139548500Y-88079000D01*
X138634000Y-88079000D01*
X138226000Y-88079000D01*
X137311500Y-88079000D01*
X137172000Y-88218500D01*
X137169300Y-88450000D01*
X135880700Y-88450000D01*
X135878000Y-88218500D01*
X135738500Y-88079000D01*
X134824000Y-88079000D01*
X134416000Y-88079000D01*
X133501500Y-88079000D01*
X133402915Y-88177585D01*
X132525330Y-87300000D01*
X133359300Y-87300000D01*
X133362000Y-87531500D01*
X133501500Y-87671000D01*
X134416000Y-87671000D01*
X134416000Y-86881500D01*
X134824000Y-86881500D01*
X134824000Y-87671000D01*
X135738500Y-87671000D01*
X135878000Y-87531500D01*
X135880700Y-87300000D01*
X137169300Y-87300000D01*
X137172000Y-87531500D01*
X137311500Y-87671000D01*
X138226000Y-87671000D01*
X138226000Y-86881500D01*
X138634000Y-86881500D01*
X138634000Y-87671000D01*
X139548500Y-87671000D01*
X139688000Y-87531500D01*
X139690700Y-87300000D01*
X139679926Y-87190613D01*
X139648019Y-87085429D01*
X139596205Y-86988492D01*
X139526475Y-86903525D01*
X139441508Y-86833795D01*
X139344571Y-86781981D01*
X139239387Y-86750074D01*
X139130000Y-86739300D01*
X138773500Y-86742000D01*
X138634000Y-86881500D01*
X138226000Y-86881500D01*
X138086500Y-86742000D01*
X137730000Y-86739300D01*
X137620613Y-86750074D01*
X137515429Y-86781981D01*
X137418492Y-86833795D01*
X137333525Y-86903525D01*
X137263795Y-86988492D01*
X137211981Y-87085429D01*
X137180074Y-87190613D01*
X137169300Y-87300000D01*
X135880700Y-87300000D01*
X135869926Y-87190613D01*
X135838019Y-87085429D01*
X135786205Y-86988492D01*
X135716475Y-86903525D01*
X135631508Y-86833795D01*
X135534571Y-86781981D01*
X135429387Y-86750074D01*
X135320000Y-86739300D01*
X134963500Y-86742000D01*
X134824000Y-86881500D01*
X134416000Y-86881500D01*
X134276500Y-86742000D01*
X133920000Y-86739300D01*
X133810613Y-86750074D01*
X133705429Y-86781981D01*
X133608492Y-86833795D01*
X133523525Y-86903525D01*
X133453795Y-86988492D01*
X133401981Y-87085429D01*
X133370074Y-87190613D01*
X133359300Y-87300000D01*
X132525330Y-87300000D01*
X131088195Y-85862866D01*
X131076448Y-85848552D01*
X131019347Y-85801691D01*
X130954200Y-85766869D01*
X130883513Y-85745426D01*
X130828419Y-85740000D01*
X130828416Y-85740000D01*
X130810000Y-85738186D01*
X130791584Y-85740000D01*
X127946284Y-85740000D01*
X127941578Y-85692218D01*
X127913057Y-85598195D01*
X127866740Y-85511543D01*
X127804409Y-85435591D01*
X127728457Y-85373260D01*
X127641805Y-85326943D01*
X127547782Y-85298422D01*
X127450001Y-85288791D01*
X126549999Y-85288791D01*
X126452218Y-85298422D01*
X126358195Y-85326943D01*
X126271543Y-85373260D01*
X126195591Y-85435591D01*
X126133260Y-85511543D01*
X126086943Y-85598195D01*
X126058422Y-85692218D01*
X126048791Y-85789999D01*
X126048791Y-86440001D01*
X126058422Y-86537782D01*
X126086943Y-86631805D01*
X126133260Y-86718457D01*
X126195591Y-86794409D01*
X126271543Y-86856740D01*
X126358195Y-86903057D01*
X126452218Y-86931578D01*
X126549999Y-86941209D01*
X127450001Y-86941209D01*
X127547782Y-86931578D01*
X127641805Y-86903057D01*
X127728457Y-86856740D01*
X127804409Y-86794409D01*
X127866740Y-86718457D01*
X127913057Y-86631805D01*
X127941578Y-86537782D01*
X127946284Y-86490000D01*
X130654671Y-86490000D01*
X133677388Y-89512718D01*
X133668791Y-89599999D01*
X133668791Y-90250001D01*
X133678422Y-90347782D01*
X133706943Y-90441805D01*
X133753260Y-90528457D01*
X133815591Y-90604409D01*
X133891543Y-90666740D01*
X133978195Y-90713057D01*
X134072218Y-90741578D01*
X134169999Y-90751209D01*
X135070001Y-90751209D01*
X135167782Y-90741578D01*
X135261805Y-90713057D01*
X135348457Y-90666740D01*
X135424409Y-90604409D01*
X135486740Y-90528457D01*
X135533057Y-90441805D01*
X135561578Y-90347782D01*
X135566284Y-90300000D01*
X137483716Y-90300000D01*
X137488422Y-90347782D01*
X137516943Y-90441805D01*
X137563260Y-90528457D01*
X137625591Y-90604409D01*
X137701543Y-90666740D01*
X137788195Y-90713057D01*
X137882218Y-90741578D01*
X137979999Y-90751209D01*
X138880001Y-90751209D01*
X138977782Y-90741578D01*
X139071805Y-90713057D01*
X139158457Y-90666740D01*
X139234409Y-90604409D01*
X139296740Y-90528457D01*
X139343057Y-90441805D01*
X139371578Y-90347782D01*
X139381209Y-90250001D01*
X139381209Y-90203954D01*
X139396448Y-90191448D01*
X139408195Y-90177134D01*
X142850330Y-86735000D01*
X145405000Y-86735000D01*
X145405001Y-87298791D01*
X145330000Y-87298791D01*
X145280992Y-87303618D01*
X145233866Y-87317913D01*
X145190436Y-87341127D01*
X145152368Y-87372368D01*
X145121127Y-87410436D01*
X145097913Y-87453866D01*
X145083618Y-87500992D01*
X145078791Y-87550000D01*
X145078791Y-88350000D01*
X145083618Y-88399008D01*
X145097913Y-88446134D01*
X145121127Y-88489564D01*
X145152368Y-88527632D01*
X145190436Y-88558873D01*
X145233866Y-88582087D01*
X145280992Y-88596382D01*
X145330000Y-88601209D01*
X146230000Y-88601209D01*
X146279008Y-88596382D01*
X146326134Y-88582087D01*
X146369564Y-88558873D01*
X146407632Y-88527632D01*
X146438873Y-88489564D01*
X146456415Y-88456745D01*
X146945001Y-88945331D01*
X146945000Y-89589672D01*
X146481209Y-90053463D01*
X146481209Y-89450000D01*
X146476382Y-89400992D01*
X146462087Y-89353866D01*
X146438873Y-89310436D01*
X146407632Y-89272368D01*
X146369564Y-89241127D01*
X146326134Y-89217913D01*
X146279008Y-89203618D01*
X146230000Y-89198791D01*
X145330000Y-89198791D01*
X145280992Y-89203618D01*
X145233866Y-89217913D01*
X145190436Y-89241127D01*
X145152368Y-89272368D01*
X145121127Y-89310436D01*
X145097913Y-89353866D01*
X145083618Y-89400992D01*
X145078791Y-89450000D01*
X145078791Y-90250000D01*
X145083618Y-90299008D01*
X145097913Y-90346134D01*
X145121127Y-90389564D01*
X145152368Y-90427632D01*
X145190436Y-90458873D01*
X145233866Y-90482087D01*
X145280992Y-90496382D01*
X145330000Y-90501209D01*
X146033463Y-90501209D01*
X140144673Y-96390000D01*
X136836284Y-96390000D01*
X136831578Y-96342218D01*
X136803057Y-96248195D01*
X136756740Y-96161543D01*
X136694409Y-96085591D01*
X136618457Y-96023260D01*
X136531805Y-95976943D01*
X136437782Y-95948422D01*
X136340001Y-95938791D01*
X135439999Y-95938791D01*
X135342218Y-95948422D01*
X135248195Y-95976943D01*
X135161543Y-96023260D01*
X135085591Y-96085591D01*
X135023260Y-96161543D01*
X134976943Y-96248195D01*
X134948422Y-96342218D01*
X134938791Y-96439999D01*
X134938791Y-97090001D01*
X134948422Y-97187782D01*
X134976943Y-97281805D01*
X135023260Y-97368457D01*
X135085591Y-97444409D01*
X135161543Y-97506740D01*
X135248195Y-97553057D01*
X135342218Y-97581578D01*
X135439999Y-97591209D01*
X135611047Y-97591209D01*
X135623553Y-97606448D01*
X135637861Y-97618190D01*
X136008461Y-97988791D01*
X135439999Y-97988791D01*
X135342218Y-97998422D01*
X135248195Y-98026943D01*
X135161543Y-98073260D01*
X135085591Y-98135591D01*
X135023260Y-98211543D01*
X134976943Y-98298195D01*
X134948422Y-98392218D01*
X134938791Y-98489999D01*
X134938791Y-98536046D01*
X134923552Y-98548552D01*
X134911809Y-98562861D01*
X134587871Y-98886800D01*
X134573563Y-98898542D01*
X134561821Y-98912850D01*
X134526701Y-98955644D01*
X134495621Y-99013791D01*
X134491880Y-99020790D01*
X134473480Y-99081448D01*
X134470437Y-99091478D01*
X134463196Y-99164990D01*
X134465011Y-99183416D01*
X134465011Y-102388139D01*
X134462900Y-102386407D01*
X134393536Y-102349331D01*
X134318272Y-102326500D01*
X134240000Y-102318791D01*
X132590000Y-102318791D01*
X132511728Y-102326500D01*
X132436464Y-102349331D01*
X132367100Y-102386407D01*
X132306302Y-102436302D01*
X132258130Y-102495000D01*
X128288415Y-102495000D01*
X128269999Y-102493186D01*
X128251583Y-102495000D01*
X128251581Y-102495000D01*
X128196487Y-102500426D01*
X128125800Y-102521869D01*
X128125798Y-102521870D01*
X128060652Y-102556691D01*
X128048744Y-102566464D01*
X128003552Y-102603552D01*
X127991809Y-102617861D01*
X126300880Y-104308791D01*
X124880000Y-104308791D01*
X124830992Y-104313618D01*
X124783866Y-104327913D01*
X124740436Y-104351127D01*
X124702368Y-104382368D01*
X124671127Y-104420436D01*
X124647913Y-104463866D01*
X124633618Y-104510992D01*
X124628791Y-104560000D01*
X124628791Y-106260000D01*
X124633618Y-106309008D01*
X124647913Y-106356134D01*
X124671127Y-106399564D01*
X124702368Y-106437632D01*
X124740436Y-106468873D01*
X124783866Y-106492087D01*
X124830992Y-106506382D01*
X124880000Y-106511209D01*
X126580000Y-106511209D01*
X126629008Y-106506382D01*
X126649507Y-106500164D01*
X126196904Y-106952767D01*
X126050858Y-106892273D01*
X125838341Y-106850000D01*
X125621659Y-106850000D01*
X125409142Y-106892273D01*
X125208955Y-106975193D01*
X125028791Y-107095575D01*
X124875575Y-107248791D01*
X124755193Y-107428955D01*
X124672273Y-107629142D01*
X124630000Y-107841659D01*
X124630000Y-108058341D01*
X124672273Y-108270858D01*
X124755193Y-108471045D01*
X124875575Y-108651209D01*
X125028791Y-108804425D01*
X125208955Y-108924807D01*
X125409142Y-109007727D01*
X125621659Y-109050000D01*
X125838341Y-109050000D01*
X126050858Y-109007727D01*
X126251045Y-108924807D01*
X126431209Y-108804425D01*
X126584425Y-108651209D01*
X126704807Y-108471045D01*
X126787727Y-108270858D01*
X126830000Y-108058341D01*
X126830000Y-107841659D01*
X126787727Y-107629142D01*
X126727233Y-107483096D01*
X129695330Y-104515000D01*
X132258130Y-104515000D01*
X132306302Y-104573698D01*
X132367100Y-104623593D01*
X132436464Y-104660669D01*
X132511728Y-104683500D01*
X132590000Y-104691209D01*
X134240000Y-104691209D01*
X134318272Y-104683500D01*
X134393536Y-104660669D01*
X134462900Y-104623593D01*
X134465010Y-104621861D01*
X134465010Y-104928139D01*
X134462900Y-104926407D01*
X134393536Y-104889331D01*
X134318272Y-104866500D01*
X134240000Y-104858791D01*
X132590000Y-104858791D01*
X132511728Y-104866500D01*
X132436464Y-104889331D01*
X132367100Y-104926407D01*
X132306302Y-104976302D01*
X132258130Y-105035000D01*
X130828416Y-105035000D01*
X130810000Y-105033186D01*
X130791584Y-105035000D01*
X130791581Y-105035000D01*
X130736487Y-105040426D01*
X130665800Y-105061869D01*
X130600653Y-105096691D01*
X130543552Y-105143552D01*
X130531812Y-105157858D01*
X126196904Y-109492767D01*
X126050858Y-109432273D01*
X125838341Y-109390000D01*
X125621659Y-109390000D01*
X125409142Y-109432273D01*
X125208955Y-109515193D01*
X125028791Y-109635575D01*
X124875575Y-109788791D01*
X124755193Y-109968955D01*
X124672273Y-110169142D01*
X124630000Y-110381659D01*
X124630000Y-110598341D01*
X124672273Y-110810858D01*
X124755193Y-111011045D01*
X124875575Y-111191209D01*
X125028791Y-111344425D01*
X125208955Y-111464807D01*
X125409142Y-111547727D01*
X125621659Y-111590000D01*
X125838341Y-111590000D01*
X126050858Y-111547727D01*
X126251045Y-111464807D01*
X126431209Y-111344425D01*
X126584425Y-111191209D01*
X126704807Y-111011045D01*
X126787727Y-110810858D01*
X126830000Y-110598341D01*
X126830000Y-110381659D01*
X126787727Y-110169142D01*
X126727233Y-110023096D01*
X130965330Y-105785000D01*
X132258130Y-105785000D01*
X132306302Y-105843698D01*
X132367100Y-105893593D01*
X132436464Y-105930669D01*
X132511728Y-105953500D01*
X132590000Y-105961209D01*
X134240000Y-105961209D01*
X134318272Y-105953500D01*
X134393536Y-105930669D01*
X134462900Y-105893593D01*
X134465010Y-105891861D01*
X134465010Y-106198139D01*
X134462900Y-106196407D01*
X134393536Y-106159331D01*
X134318272Y-106136500D01*
X134240000Y-106128791D01*
X132590000Y-106128791D01*
X132511728Y-106136500D01*
X132436464Y-106159331D01*
X132367100Y-106196407D01*
X132306302Y-106246302D01*
X132258130Y-106305000D01*
X132098415Y-106305000D01*
X132079999Y-106303186D01*
X132061583Y-106305000D01*
X132061581Y-106305000D01*
X132006487Y-106310426D01*
X131935800Y-106331869D01*
X131870653Y-106366691D01*
X131813552Y-106413552D01*
X131801809Y-106427861D01*
X126196904Y-112032767D01*
X126050858Y-111972273D01*
X125838341Y-111930000D01*
X125621659Y-111930000D01*
X125409142Y-111972273D01*
X125208955Y-112055193D01*
X125028791Y-112175575D01*
X124875575Y-112328791D01*
X124755193Y-112508955D01*
X124672273Y-112709142D01*
X124630000Y-112921659D01*
X124630000Y-113138341D01*
X124672273Y-113350858D01*
X124755193Y-113551045D01*
X124875575Y-113731209D01*
X125028791Y-113884425D01*
X125208955Y-114004807D01*
X125409142Y-114087727D01*
X125621659Y-114130000D01*
X125838341Y-114130000D01*
X126050858Y-114087727D01*
X126251045Y-114004807D01*
X126431209Y-113884425D01*
X126530001Y-113785633D01*
X126530001Y-114239669D01*
X126196903Y-114572767D01*
X126050858Y-114512273D01*
X125838341Y-114470000D01*
X125621659Y-114470000D01*
X125409142Y-114512273D01*
X125208955Y-114595193D01*
X125028791Y-114715575D01*
X124875575Y-114868791D01*
X124755193Y-115048955D01*
X124672273Y-115249142D01*
X124630000Y-115461659D01*
X124630000Y-115678341D01*
X124672273Y-115890858D01*
X124755193Y-116091045D01*
X124875575Y-116271209D01*
X125028791Y-116424425D01*
X125208955Y-116544807D01*
X125409142Y-116627727D01*
X125621659Y-116670000D01*
X125838341Y-116670000D01*
X126050858Y-116627727D01*
X126251045Y-116544807D01*
X126431209Y-116424425D01*
X126584425Y-116271209D01*
X126704807Y-116091045D01*
X126787727Y-115890858D01*
X126830000Y-115678341D01*
X126830000Y-115461659D01*
X126787727Y-115249142D01*
X126727233Y-115103097D01*
X127157141Y-114673189D01*
X127171449Y-114661447D01*
X127218310Y-114604346D01*
X127253132Y-114539199D01*
X127274575Y-114468512D01*
X127280001Y-114413418D01*
X127280001Y-114413416D01*
X127281815Y-114395000D01*
X127280001Y-114376584D01*
X127280001Y-113280328D01*
X132235330Y-108325000D01*
X132258130Y-108325000D01*
X132306302Y-108383698D01*
X132367100Y-108433593D01*
X132436464Y-108470669D01*
X132511728Y-108493500D01*
X132590000Y-108501209D01*
X134240000Y-108501209D01*
X134318272Y-108493500D01*
X134393536Y-108470669D01*
X134462900Y-108433593D01*
X134465010Y-108431861D01*
X134465010Y-108738139D01*
X134462900Y-108736407D01*
X134393536Y-108699331D01*
X134318272Y-108676500D01*
X134240000Y-108668791D01*
X132590000Y-108668791D01*
X132511728Y-108676500D01*
X132436464Y-108699331D01*
X132367100Y-108736407D01*
X132306302Y-108786302D01*
X132256407Y-108847100D01*
X132219789Y-108915606D01*
X132173552Y-108953552D01*
X132161809Y-108967861D01*
X130557862Y-110571809D01*
X130543553Y-110583552D01*
X130531811Y-110597860D01*
X130496691Y-110640654D01*
X130461870Y-110705800D01*
X130440427Y-110776488D01*
X130433186Y-110850000D01*
X130435001Y-110868426D01*
X130435000Y-113011584D01*
X130433186Y-113030000D01*
X130435000Y-113048416D01*
X130435000Y-113048418D01*
X130440426Y-113103512D01*
X130461869Y-113174199D01*
X130496691Y-113239346D01*
X130543552Y-113296448D01*
X130557866Y-113308195D01*
X131549670Y-114300000D01*
X128114671Y-117735000D01*
X124615331Y-117735000D01*
X123565000Y-116684671D01*
X123565000Y-94899806D01*
X124361058Y-94899806D01*
X124427435Y-95071897D01*
X124554849Y-95261760D01*
X124716855Y-95423118D01*
X124907228Y-95549770D01*
X125118651Y-95636848D01*
X125280937Y-95668791D01*
X125104999Y-95668791D01*
X125007218Y-95678422D01*
X124913195Y-95706943D01*
X124826543Y-95753260D01*
X124750591Y-95815591D01*
X124688260Y-95891543D01*
X124641943Y-95978195D01*
X124613422Y-96072218D01*
X124603791Y-96169999D01*
X124603791Y-96870001D01*
X124613422Y-96967782D01*
X124641943Y-97061805D01*
X124688260Y-97148457D01*
X124750591Y-97224409D01*
X124826543Y-97286740D01*
X124913195Y-97333057D01*
X125007218Y-97361578D01*
X125104999Y-97371209D01*
X126355001Y-97371209D01*
X126452782Y-97361578D01*
X126546805Y-97333057D01*
X126633457Y-97286740D01*
X126709409Y-97224409D01*
X126771740Y-97148457D01*
X126818057Y-97061805D01*
X126846578Y-96967782D01*
X126853747Y-96895000D01*
X130654671Y-96895000D01*
X131137388Y-97377718D01*
X131128791Y-97464999D01*
X131128791Y-98115001D01*
X131138422Y-98212782D01*
X131166943Y-98306805D01*
X131213260Y-98393457D01*
X131275591Y-98469409D01*
X131351543Y-98531740D01*
X131438195Y-98578057D01*
X131532218Y-98606578D01*
X131629999Y-98616209D01*
X132530001Y-98616209D01*
X132627782Y-98606578D01*
X132721805Y-98578057D01*
X132808457Y-98531740D01*
X132884409Y-98469409D01*
X132946740Y-98393457D01*
X132993057Y-98306805D01*
X133021578Y-98212782D01*
X133031209Y-98115001D01*
X133031209Y-98068954D01*
X133046448Y-98056448D01*
X133058195Y-98042134D01*
X141825330Y-89275000D01*
X143078791Y-89275000D01*
X143078791Y-89300000D01*
X143083618Y-89349008D01*
X143097913Y-89396134D01*
X143121127Y-89439564D01*
X143152368Y-89477632D01*
X143190436Y-89508873D01*
X143233866Y-89532087D01*
X143280992Y-89546382D01*
X143330000Y-89551209D01*
X144230000Y-89551209D01*
X144279008Y-89546382D01*
X144326134Y-89532087D01*
X144369564Y-89508873D01*
X144407632Y-89477632D01*
X144438873Y-89439564D01*
X144462087Y-89396134D01*
X144476382Y-89349008D01*
X144481209Y-89300000D01*
X144481209Y-88500000D01*
X144476382Y-88450992D01*
X144462087Y-88403866D01*
X144438873Y-88360436D01*
X144407632Y-88322368D01*
X144369564Y-88291127D01*
X144326134Y-88267913D01*
X144279008Y-88253618D01*
X144230000Y-88248791D01*
X143330000Y-88248791D01*
X143280992Y-88253618D01*
X143233866Y-88267913D01*
X143190436Y-88291127D01*
X143152368Y-88322368D01*
X143121127Y-88360436D01*
X143097913Y-88403866D01*
X143083618Y-88450992D01*
X143078791Y-88500000D01*
X143078791Y-88525000D01*
X141688416Y-88525000D01*
X141670000Y-88523186D01*
X141651584Y-88525000D01*
X141651581Y-88525000D01*
X141596487Y-88530426D01*
X141525800Y-88551869D01*
X141512697Y-88558873D01*
X141460653Y-88586690D01*
X141427892Y-88613577D01*
X141403552Y-88633552D01*
X141391809Y-88647861D01*
X132904544Y-97135127D01*
X132884409Y-97110591D01*
X132808457Y-97048260D01*
X132721805Y-97001943D01*
X132627782Y-96973422D01*
X132530001Y-96963791D01*
X131784121Y-96963791D01*
X131693654Y-96873324D01*
X131736500Y-96873000D01*
X131876000Y-96733500D01*
X131876000Y-95944000D01*
X132284000Y-95944000D01*
X132284000Y-96733500D01*
X132423500Y-96873000D01*
X132780000Y-96875700D01*
X132889387Y-96864926D01*
X132994571Y-96833019D01*
X133091508Y-96781205D01*
X133176475Y-96711475D01*
X133246205Y-96626508D01*
X133298019Y-96529571D01*
X133329926Y-96424387D01*
X133340700Y-96315000D01*
X133338000Y-96083500D01*
X133198500Y-95944000D01*
X132284000Y-95944000D01*
X131876000Y-95944000D01*
X130961500Y-95944000D01*
X130822000Y-96083500D01*
X130821291Y-96144298D01*
X130810000Y-96143186D01*
X130791584Y-96145000D01*
X126853747Y-96145000D01*
X126846578Y-96072218D01*
X126818057Y-95978195D01*
X126771740Y-95891543D01*
X126709409Y-95815591D01*
X126633457Y-95753260D01*
X126546805Y-95706943D01*
X126452782Y-95678422D01*
X126355001Y-95668791D01*
X126179063Y-95668791D01*
X126341349Y-95636848D01*
X126552772Y-95549770D01*
X126743145Y-95423118D01*
X126905151Y-95261760D01*
X126970085Y-95165000D01*
X130819300Y-95165000D01*
X130822000Y-95396500D01*
X130961500Y-95536000D01*
X131876000Y-95536000D01*
X131876000Y-94746500D01*
X132284000Y-94746500D01*
X132284000Y-95536000D01*
X133198500Y-95536000D01*
X133338000Y-95396500D01*
X133340700Y-95165000D01*
X133329926Y-95055613D01*
X133298019Y-94950429D01*
X133246205Y-94853492D01*
X133176475Y-94768525D01*
X133091508Y-94698795D01*
X132994571Y-94646981D01*
X132889387Y-94615074D01*
X132780000Y-94604300D01*
X132423500Y-94607000D01*
X132284000Y-94746500D01*
X131876000Y-94746500D01*
X131736500Y-94607000D01*
X131380000Y-94604300D01*
X131270613Y-94615074D01*
X131165429Y-94646981D01*
X131068492Y-94698795D01*
X130983525Y-94768525D01*
X130913795Y-94853492D01*
X130861981Y-94950429D01*
X130830074Y-95055613D01*
X130819300Y-95165000D01*
X126970085Y-95165000D01*
X127032565Y-95071897D01*
X127098942Y-94899806D01*
X127002861Y-94724000D01*
X125934000Y-94724000D01*
X125934000Y-94744000D01*
X125526000Y-94744000D01*
X125526000Y-94724000D01*
X124457139Y-94724000D01*
X124361058Y-94899806D01*
X123565000Y-94899806D01*
X123565000Y-94140194D01*
X124361058Y-94140194D01*
X124457139Y-94316000D01*
X125526000Y-94316000D01*
X125526000Y-93495266D01*
X125934000Y-93495266D01*
X125934000Y-94316000D01*
X127002861Y-94316000D01*
X127098942Y-94140194D01*
X127032565Y-93968103D01*
X126905151Y-93778240D01*
X126743145Y-93616882D01*
X126552772Y-93490230D01*
X126341349Y-93403152D01*
X126117000Y-93358993D01*
X125934000Y-93495266D01*
X125526000Y-93495266D01*
X125343000Y-93358993D01*
X125118651Y-93403152D01*
X124907228Y-93490230D01*
X124716855Y-93616882D01*
X124554849Y-93778240D01*
X124427435Y-93968103D01*
X124361058Y-94140194D01*
X123565000Y-94140194D01*
X123565000Y-87330329D01*
X126175456Y-84719874D01*
X126195591Y-84744409D01*
X126271543Y-84806740D01*
X126358195Y-84853057D01*
X126452218Y-84881578D01*
X126549999Y-84891209D01*
X127450001Y-84891209D01*
X127547782Y-84881578D01*
X127641805Y-84853057D01*
X127728457Y-84806740D01*
X127804409Y-84744409D01*
X127866740Y-84668457D01*
X127913057Y-84581805D01*
X127941578Y-84487782D01*
X127951209Y-84390001D01*
X127951209Y-83739999D01*
X127941578Y-83642218D01*
X127913057Y-83548195D01*
X127866740Y-83461543D01*
X127804409Y-83385591D01*
X127728457Y-83323260D01*
X127641805Y-83276943D01*
X127547782Y-83248422D01*
X127450001Y-83238791D01*
X127375000Y-83238791D01*
X127375000Y-83112240D01*
X131226260Y-83112240D01*
X131332685Y-83345656D01*
X131615422Y-83465017D01*
X131916011Y-83526925D01*
X132222903Y-83529002D01*
X132524304Y-83471167D01*
X132808630Y-83355643D01*
X132827315Y-83345656D01*
X132933740Y-83112240D01*
X137726260Y-83112240D01*
X137832685Y-83345656D01*
X138115422Y-83465017D01*
X138416011Y-83526925D01*
X138722903Y-83529002D01*
X139024304Y-83471167D01*
X139308630Y-83355643D01*
X139327315Y-83345656D01*
X139433740Y-83112240D01*
X138580000Y-82258500D01*
X137726260Y-83112240D01*
X132933740Y-83112240D01*
X132080000Y-82258500D01*
X131226260Y-83112240D01*
X127375000Y-83112240D01*
X127375000Y-82112903D01*
X130520998Y-82112903D01*
X130578833Y-82414304D01*
X130694357Y-82698630D01*
X130704344Y-82717315D01*
X130937760Y-82823740D01*
X131791500Y-81970000D01*
X132368500Y-81970000D01*
X133222240Y-82823740D01*
X133455656Y-82717315D01*
X133575017Y-82434578D01*
X133636925Y-82133989D01*
X133637067Y-82112903D01*
X137020998Y-82112903D01*
X137078833Y-82414304D01*
X137194357Y-82698630D01*
X137204344Y-82717315D01*
X137437760Y-82823740D01*
X138291500Y-81970000D01*
X138868500Y-81970000D01*
X139722240Y-82823740D01*
X139955656Y-82717315D01*
X140075017Y-82434578D01*
X140136925Y-82133989D01*
X140139002Y-81827097D01*
X140081167Y-81525696D01*
X139965643Y-81241370D01*
X139955656Y-81222685D01*
X139722240Y-81116260D01*
X138868500Y-81970000D01*
X138291500Y-81970000D01*
X137437760Y-81116260D01*
X137204344Y-81222685D01*
X137084983Y-81505422D01*
X137023075Y-81806011D01*
X137020998Y-82112903D01*
X133637067Y-82112903D01*
X133639002Y-81827097D01*
X133581167Y-81525696D01*
X133465643Y-81241370D01*
X133455656Y-81222685D01*
X133222240Y-81116260D01*
X132368500Y-81970000D01*
X131791500Y-81970000D01*
X130937760Y-81116260D01*
X130704344Y-81222685D01*
X130584983Y-81505422D01*
X130523075Y-81806011D01*
X130520998Y-82112903D01*
X127375000Y-82112903D01*
X127375000Y-80827760D01*
X131226260Y-80827760D01*
X132080000Y-81681500D01*
X132933740Y-80827760D01*
X137726260Y-80827760D01*
X138580000Y-81681500D01*
X139433740Y-80827760D01*
X139327315Y-80594344D01*
X139044578Y-80474983D01*
X138743989Y-80413075D01*
X138437097Y-80410998D01*
X138135696Y-80468833D01*
X137851370Y-80584357D01*
X137832685Y-80594344D01*
X137726260Y-80827760D01*
X132933740Y-80827760D01*
X132827315Y-80594344D01*
X132544578Y-80474983D01*
X132243989Y-80413075D01*
X131937097Y-80410998D01*
X131635696Y-80468833D01*
X131351370Y-80584357D01*
X131332685Y-80594344D01*
X131226260Y-80827760D01*
X127375000Y-80827760D01*
X127375000Y-80165329D01*
X129695330Y-77845000D01*
X130882340Y-77845000D01*
X130972265Y-78062097D01*
X131109062Y-78266828D01*
X131283172Y-78440938D01*
X131487903Y-78577735D01*
X131715389Y-78671963D01*
X131956886Y-78720000D01*
X132203114Y-78720000D01*
X132444611Y-78671963D01*
X132672097Y-78577735D01*
X132876828Y-78440938D01*
X133050938Y-78266828D01*
X133187735Y-78062097D01*
X133277660Y-77845000D01*
X137382340Y-77845000D01*
X137472265Y-78062097D01*
X137609062Y-78266828D01*
X137783172Y-78440938D01*
X137987903Y-78577735D01*
X138215389Y-78671963D01*
X138456886Y-78720000D01*
X138703114Y-78720000D01*
X138944611Y-78671963D01*
X139172097Y-78577735D01*
X139376828Y-78440938D01*
X139550938Y-78266828D01*
X139687735Y-78062097D01*
X139781963Y-77834611D01*
X139830000Y-77593114D01*
X139830000Y-77346886D01*
X139781963Y-77105389D01*
X139687735Y-76877903D01*
X139550938Y-76673172D01*
X139376828Y-76499062D01*
X139172097Y-76362265D01*
X138944611Y-76268037D01*
X138703114Y-76220000D01*
X138456886Y-76220000D01*
X138215389Y-76268037D01*
X137987903Y-76362265D01*
X137783172Y-76499062D01*
X137609062Y-76673172D01*
X137472265Y-76877903D01*
X137382340Y-77095000D01*
X133277660Y-77095000D01*
X133187735Y-76877903D01*
X133050938Y-76673172D01*
X132876828Y-76499062D01*
X132672097Y-76362265D01*
X132444611Y-76268037D01*
X132203114Y-76220000D01*
X131956886Y-76220000D01*
X131715389Y-76268037D01*
X131487903Y-76362265D01*
X131283172Y-76499062D01*
X131109062Y-76673172D01*
X130972265Y-76877903D01*
X130882340Y-77095000D01*
X129558415Y-77095000D01*
X129539999Y-77093186D01*
X129521583Y-77095000D01*
X129521581Y-77095000D01*
X129466487Y-77100426D01*
X129395800Y-77121869D01*
X129395798Y-77121870D01*
X129330652Y-77156691D01*
X129303766Y-77178757D01*
X129273552Y-77203552D01*
X129261809Y-77217861D01*
X126747862Y-79731809D01*
X126733553Y-79743552D01*
X126721811Y-79757860D01*
X126686691Y-79800654D01*
X126651870Y-79865800D01*
X126630427Y-79936488D01*
X126623186Y-80010000D01*
X126625001Y-80028426D01*
X126625000Y-83238791D01*
X126549999Y-83238791D01*
X126452218Y-83248422D01*
X126358195Y-83276943D01*
X126271543Y-83323260D01*
X126195591Y-83385591D01*
X126133260Y-83461543D01*
X126086943Y-83548195D01*
X126058422Y-83642218D01*
X126048791Y-83739999D01*
X126048791Y-83786046D01*
X126033552Y-83798552D01*
X126021809Y-83812861D01*
X122937866Y-86896805D01*
X122923552Y-86908552D01*
X122876691Y-86965654D01*
X122841869Y-87030801D01*
X122820426Y-87101488D01*
X122815000Y-87156581D01*
X122813186Y-87175000D01*
X122095000Y-87175000D01*
X122095000Y-75105000D01*
X149685000Y-75105000D01*
X149685001Y-119205000D01*
G37*
X149685001Y-119205000D02*
X122095000Y-119205000D01*
X122095000Y-87175000D01*
X122813186Y-87175000D01*
X122815000Y-87193416D01*
X122815000Y-87611582D01*
X122815001Y-116821574D01*
X122813186Y-116840000D01*
X122819767Y-116906813D01*
X122820427Y-116913513D01*
X122841870Y-116984200D01*
X122876692Y-117049347D01*
X122923553Y-117106448D01*
X122937861Y-117118191D01*
X124181814Y-118362145D01*
X124193552Y-118376448D01*
X124207855Y-118388186D01*
X124207858Y-118388189D01*
X124250653Y-118423309D01*
X124315800Y-118458131D01*
X124386487Y-118479574D01*
X124441581Y-118485000D01*
X124441583Y-118485000D01*
X124459999Y-118486814D01*
X124478415Y-118485000D01*
X128251584Y-118485000D01*
X128270000Y-118486814D01*
X128288416Y-118485000D01*
X128288419Y-118485000D01*
X128343513Y-118479574D01*
X128414200Y-118458131D01*
X128479347Y-118423309D01*
X128536448Y-118376448D01*
X128548195Y-118362134D01*
X129650904Y-117259425D01*
X132005914Y-117259425D01*
X132113566Y-117513584D01*
X132268733Y-117741858D01*
X132465453Y-117935474D01*
X132696166Y-118086991D01*
X132930576Y-118184078D01*
X133146000Y-118091989D01*
X133146000Y-117044000D01*
X133554000Y-117044000D01*
X133554000Y-118091989D01*
X133769424Y-118184078D01*
X134003834Y-118086991D01*
X134234547Y-117935474D01*
X134431267Y-117741858D01*
X134586434Y-117513584D01*
X134694086Y-117259425D01*
X134603651Y-117044000D01*
X133554000Y-117044000D01*
X133146000Y-117044000D01*
X132096349Y-117044000D01*
X132005914Y-117259425D01*
X129650904Y-117259425D01*
X130178670Y-116731659D01*
X134790000Y-116731659D01*
X134790000Y-116948341D01*
X134832273Y-117160858D01*
X134915193Y-117361045D01*
X135035575Y-117541209D01*
X135188791Y-117694425D01*
X135368955Y-117814807D01*
X135569142Y-117897727D01*
X135781659Y-117940000D01*
X135998341Y-117940000D01*
X136210858Y-117897727D01*
X136411045Y-117814807D01*
X136591209Y-117694425D01*
X136744425Y-117541209D01*
X136864807Y-117361045D01*
X136947727Y-117160858D01*
X136990000Y-116948341D01*
X136990000Y-116731659D01*
X136947727Y-116519142D01*
X136864807Y-116318955D01*
X136744425Y-116138791D01*
X136591209Y-115985575D01*
X136411045Y-115865193D01*
X136210858Y-115782273D01*
X135998341Y-115740000D01*
X135781659Y-115740000D01*
X135569142Y-115782273D01*
X135368955Y-115865193D01*
X135188791Y-115985575D01*
X135035575Y-116138791D01*
X134915193Y-116318955D01*
X134832273Y-116519142D01*
X134790000Y-116731659D01*
X130178670Y-116731659D01*
X130489754Y-116420575D01*
X132005914Y-116420575D01*
X132096349Y-116636000D01*
X133146000Y-116636000D01*
X133146000Y-115588011D01*
X133554000Y-115588011D01*
X133554000Y-116636000D01*
X134603651Y-116636000D01*
X134694086Y-116420575D01*
X134586434Y-116166416D01*
X134431267Y-115938142D01*
X134234547Y-115744526D01*
X134003834Y-115593009D01*
X133769424Y-115495922D01*
X133554000Y-115588011D01*
X133146000Y-115588011D01*
X132930576Y-115495922D01*
X132696166Y-115593009D01*
X132465453Y-115744526D01*
X132268733Y-115938142D01*
X132113566Y-116166416D01*
X132005914Y-116420575D01*
X130489754Y-116420575D01*
X132235330Y-114675000D01*
X132314699Y-114675000D01*
X132375193Y-114821045D01*
X132495575Y-115001209D01*
X132648791Y-115154425D01*
X132828955Y-115274807D01*
X133029142Y-115357727D01*
X133241659Y-115400000D01*
X133458341Y-115400000D01*
X133670858Y-115357727D01*
X133871045Y-115274807D01*
X134051209Y-115154425D01*
X134204425Y-115001209D01*
X134324807Y-114821045D01*
X134407727Y-114620858D01*
X134450000Y-114408341D01*
X134450000Y-114191659D01*
X134407727Y-113979142D01*
X134324807Y-113778955D01*
X134204425Y-113598791D01*
X134051209Y-113445575D01*
X133871045Y-113325193D01*
X133670858Y-113242273D01*
X133458341Y-113200000D01*
X133241659Y-113200000D01*
X133029142Y-113242273D01*
X132828955Y-113325193D01*
X132648791Y-113445575D01*
X132495575Y-113598791D01*
X132375193Y-113778955D01*
X132314699Y-113925000D01*
X132235331Y-113925000D01*
X131185000Y-112874671D01*
X131185000Y-111005329D01*
X132446589Y-109743740D01*
X132511728Y-109763500D01*
X132590000Y-109771209D01*
X134240000Y-109771209D01*
X134318272Y-109763500D01*
X134393536Y-109740669D01*
X134462900Y-109703593D01*
X134465010Y-109701861D01*
X134465010Y-109884660D01*
X134383410Y-109966259D01*
X134318272Y-109946500D01*
X134240000Y-109938791D01*
X132590000Y-109938791D01*
X132511728Y-109946500D01*
X132436464Y-109969331D01*
X132367100Y-110006407D01*
X132306302Y-110056302D01*
X132256407Y-110117100D01*
X132219331Y-110186464D01*
X132196500Y-110261728D01*
X132188791Y-110340000D01*
X132188791Y-110640000D01*
X132196500Y-110718272D01*
X132219331Y-110793536D01*
X132256407Y-110862900D01*
X132306302Y-110923698D01*
X132367100Y-110973593D01*
X132436464Y-111010669D01*
X132511728Y-111033500D01*
X132590000Y-111041209D01*
X133040000Y-111041209D01*
X133040001Y-111806574D01*
X133038186Y-111825000D01*
X133044767Y-111891813D01*
X133045427Y-111898513D01*
X133066870Y-111969200D01*
X133101692Y-112034347D01*
X133148553Y-112091448D01*
X133162862Y-112103191D01*
X134892767Y-113833097D01*
X134832273Y-113979142D01*
X134790000Y-114191659D01*
X134790000Y-114408341D01*
X134832273Y-114620858D01*
X134915193Y-114821045D01*
X135035575Y-115001209D01*
X135188791Y-115154425D01*
X135368955Y-115274807D01*
X135569142Y-115357727D01*
X135781659Y-115400000D01*
X135998341Y-115400000D01*
X136210858Y-115357727D01*
X136411045Y-115274807D01*
X136591209Y-115154425D01*
X136744425Y-115001209D01*
X136864807Y-114821045D01*
X136947727Y-114620858D01*
X136990000Y-114408341D01*
X136990000Y-114191659D01*
X136947727Y-113979142D01*
X136864807Y-113778955D01*
X136744425Y-113598791D01*
X136591209Y-113445575D01*
X136411045Y-113325193D01*
X136210858Y-113242273D01*
X135998341Y-113200000D01*
X135781659Y-113200000D01*
X135569142Y-113242273D01*
X135423097Y-113302767D01*
X133790000Y-111669671D01*
X133790000Y-111041209D01*
X134240000Y-111041209D01*
X134318272Y-111033500D01*
X134393536Y-111010669D01*
X134462900Y-110973593D01*
X134523698Y-110923698D01*
X134573593Y-110862900D01*
X134610211Y-110794394D01*
X134656448Y-110756448D01*
X134668195Y-110742134D01*
X135070329Y-110340000D01*
X137138791Y-110340000D01*
X137138791Y-110640000D01*
X137146500Y-110718272D01*
X137169331Y-110793536D01*
X137206407Y-110862900D01*
X137256302Y-110923698D01*
X137317100Y-110973593D01*
X137386464Y-111010669D01*
X137461728Y-111033500D01*
X137540000Y-111041209D01*
X137990000Y-111041209D01*
X137990001Y-113198791D01*
X137580000Y-113198791D01*
X137530992Y-113203618D01*
X137483866Y-113217913D01*
X137440436Y-113241127D01*
X137402368Y-113272368D01*
X137371127Y-113310436D01*
X137347913Y-113353866D01*
X137333618Y-113400992D01*
X137328791Y-113450000D01*
X137328791Y-115150000D01*
X137333618Y-115199008D01*
X137347913Y-115246134D01*
X137371127Y-115289564D01*
X137402368Y-115327632D01*
X137440436Y-115358873D01*
X137483866Y-115382087D01*
X137530992Y-115396382D01*
X137580000Y-115401209D01*
X139280000Y-115401209D01*
X139329008Y-115396382D01*
X139376134Y-115382087D01*
X139419564Y-115358873D01*
X139457632Y-115327632D01*
X139488873Y-115289564D01*
X139512087Y-115246134D01*
X139526382Y-115199008D01*
X139531209Y-115150000D01*
X139531209Y-113450000D01*
X139526382Y-113400992D01*
X139512087Y-113353866D01*
X139488873Y-113310436D01*
X139457632Y-113272368D01*
X139419564Y-113241127D01*
X139376134Y-113217913D01*
X139329008Y-113203618D01*
X139280000Y-113198791D01*
X138740000Y-113198791D01*
X138740000Y-111041209D01*
X139190000Y-111041209D01*
X139268272Y-111033500D01*
X139343536Y-111010669D01*
X139412900Y-110973593D01*
X139473698Y-110923698D01*
X139523593Y-110862900D01*
X139560669Y-110793536D01*
X139583500Y-110718272D01*
X139591209Y-110640000D01*
X139591209Y-110340000D01*
X139583500Y-110261728D01*
X139560669Y-110186464D01*
X139523593Y-110117100D01*
X139473698Y-110056302D01*
X139412900Y-110006407D01*
X139343536Y-109969331D01*
X139268272Y-109946500D01*
X139190000Y-109938791D01*
X137540000Y-109938791D01*
X137461728Y-109946500D01*
X137386464Y-109969331D01*
X137317100Y-110006407D01*
X137256302Y-110056302D01*
X137206407Y-110117100D01*
X137169331Y-110186464D01*
X137146500Y-110261728D01*
X137138791Y-110340000D01*
X135070329Y-110340000D01*
X135092155Y-110318175D01*
X135106458Y-110306438D01*
X135118196Y-110292135D01*
X135118199Y-110292132D01*
X135153319Y-110249337D01*
X135188140Y-110184192D01*
X135188141Y-110184189D01*
X135209584Y-110113503D01*
X135215010Y-110058409D01*
X135215010Y-110058407D01*
X135216824Y-110039991D01*
X135215010Y-110021575D01*
X135215010Y-107023500D01*
X136832000Y-107023500D01*
X136842053Y-107098907D01*
X136875780Y-107203522D01*
X136929267Y-107299546D01*
X137000460Y-107383291D01*
X137086623Y-107451537D01*
X137184445Y-107501662D01*
X137252440Y-107521008D01*
X137206407Y-107577100D01*
X137169331Y-107646464D01*
X137146500Y-107721728D01*
X137138791Y-107800000D01*
X137138791Y-108100000D01*
X137146500Y-108178272D01*
X137169331Y-108253536D01*
X137206407Y-108322900D01*
X137256302Y-108383698D01*
X137317100Y-108433593D01*
X137386464Y-108470669D01*
X137461728Y-108493500D01*
X137540000Y-108501209D01*
X139190000Y-108501209D01*
X139268272Y-108493500D01*
X139343536Y-108470669D01*
X139412900Y-108433593D01*
X139473698Y-108383698D01*
X139521870Y-108325000D01*
X139544671Y-108325000D01*
X143782767Y-112563097D01*
X143722273Y-112709142D01*
X143680000Y-112921659D01*
X143680000Y-113029670D01*
X139618195Y-108967866D01*
X139606448Y-108953552D01*
X139560211Y-108915606D01*
X139523593Y-108847100D01*
X139473698Y-108786302D01*
X139412900Y-108736407D01*
X139343536Y-108699331D01*
X139268272Y-108676500D01*
X139190000Y-108668791D01*
X137540000Y-108668791D01*
X137461728Y-108676500D01*
X137386464Y-108699331D01*
X137317100Y-108736407D01*
X137256302Y-108786302D01*
X137206407Y-108847100D01*
X137169331Y-108916464D01*
X137146500Y-108991728D01*
X137138791Y-109070000D01*
X137138791Y-109370000D01*
X137146500Y-109448272D01*
X137169331Y-109523536D01*
X137206407Y-109592900D01*
X137256302Y-109653698D01*
X137317100Y-109703593D01*
X137386464Y-109740669D01*
X137461728Y-109763500D01*
X137540000Y-109771209D01*
X139190000Y-109771209D01*
X139268272Y-109763500D01*
X139333411Y-109743740D01*
X143229999Y-113640329D01*
X143230000Y-115476573D01*
X143228185Y-115494999D01*
X143234766Y-115561812D01*
X143235426Y-115568512D01*
X143256869Y-115639199D01*
X143291691Y-115704346D01*
X143338552Y-115761447D01*
X143352861Y-115773190D01*
X143401805Y-115822134D01*
X143413552Y-115836448D01*
X143470653Y-115883309D01*
X143535800Y-115918131D01*
X143606487Y-115939574D01*
X143661581Y-115945000D01*
X143661583Y-115945000D01*
X143678791Y-115946695D01*
X143678791Y-116420000D01*
X143683618Y-116469008D01*
X143697913Y-116516134D01*
X143721127Y-116559564D01*
X143752368Y-116597632D01*
X143790436Y-116628873D01*
X143833866Y-116652087D01*
X143880992Y-116666382D01*
X143930000Y-116671209D01*
X145630000Y-116671209D01*
X145679008Y-116666382D01*
X145726134Y-116652087D01*
X145769564Y-116628873D01*
X145807632Y-116597632D01*
X145838873Y-116559564D01*
X145862087Y-116516134D01*
X145876382Y-116469008D01*
X145881209Y-116420000D01*
X145881209Y-114720000D01*
X145876382Y-114670992D01*
X145862087Y-114623866D01*
X145838873Y-114580436D01*
X145807632Y-114542368D01*
X145769564Y-114511127D01*
X145726134Y-114487913D01*
X145679008Y-114473618D01*
X145630000Y-114468791D01*
X143979999Y-114468791D01*
X143979999Y-113785633D01*
X144078791Y-113884425D01*
X144258955Y-114004807D01*
X144459142Y-114087727D01*
X144671659Y-114130000D01*
X144888341Y-114130000D01*
X145100858Y-114087727D01*
X145301045Y-114004807D01*
X145481209Y-113884425D01*
X145634425Y-113731209D01*
X145754807Y-113551045D01*
X145837727Y-113350858D01*
X145880000Y-113138341D01*
X145880000Y-112921659D01*
X145837727Y-112709142D01*
X145754807Y-112508955D01*
X145634425Y-112328791D01*
X145481209Y-112175575D01*
X145301045Y-112055193D01*
X145100858Y-111972273D01*
X144888341Y-111930000D01*
X144671659Y-111930000D01*
X144459142Y-111972273D01*
X144313097Y-112032767D01*
X143189754Y-110909424D01*
X143435922Y-110909424D01*
X143533009Y-111143834D01*
X143684526Y-111374547D01*
X143878142Y-111571267D01*
X144106416Y-111726434D01*
X144360575Y-111834086D01*
X144576000Y-111743651D01*
X144576000Y-110694000D01*
X144984000Y-110694000D01*
X144984000Y-111743651D01*
X145199425Y-111834086D01*
X145453584Y-111726434D01*
X145681858Y-111571267D01*
X145875474Y-111374547D01*
X146026991Y-111143834D01*
X146124078Y-110909424D01*
X146031989Y-110694000D01*
X144984000Y-110694000D01*
X144576000Y-110694000D01*
X143528011Y-110694000D01*
X143435922Y-110909424D01*
X143189754Y-110909424D01*
X142350906Y-110070576D01*
X143435922Y-110070576D01*
X143528011Y-110286000D01*
X144576000Y-110286000D01*
X144576000Y-109236349D01*
X144984000Y-109236349D01*
X144984000Y-110286000D01*
X146031989Y-110286000D01*
X146124078Y-110070576D01*
X146026991Y-109836166D01*
X145875474Y-109605453D01*
X145681858Y-109408733D01*
X145453584Y-109253566D01*
X145199425Y-109145914D01*
X144984000Y-109236349D01*
X144576000Y-109236349D01*
X144360575Y-109145914D01*
X144106416Y-109253566D01*
X143878142Y-109408733D01*
X143684526Y-109605453D01*
X143533009Y-109836166D01*
X143435922Y-110070576D01*
X142350906Y-110070576D01*
X139978195Y-107697866D01*
X139966448Y-107683552D01*
X139909347Y-107636691D01*
X139844200Y-107601869D01*
X139773513Y-107580426D01*
X139718419Y-107575000D01*
X139718416Y-107575000D01*
X139700000Y-107573186D01*
X139681584Y-107575000D01*
X139521870Y-107575000D01*
X139477560Y-107521008D01*
X139545555Y-107501662D01*
X139643377Y-107451537D01*
X139729540Y-107383291D01*
X139800733Y-107299546D01*
X139854220Y-107203522D01*
X139887947Y-107098907D01*
X139898000Y-107023500D01*
X139758500Y-106884000D01*
X138569000Y-106884000D01*
X138569000Y-106904000D01*
X138161000Y-106904000D01*
X138161000Y-106884000D01*
X136971500Y-106884000D01*
X136832000Y-107023500D01*
X135215010Y-107023500D01*
X135215010Y-103995339D01*
X136881809Y-105662139D01*
X136893552Y-105676448D01*
X136907859Y-105688189D01*
X136950652Y-105723309D01*
X137015798Y-105758130D01*
X137015800Y-105758131D01*
X137086487Y-105779574D01*
X137141581Y-105785000D01*
X137141583Y-105785000D01*
X137159999Y-105786814D01*
X137178415Y-105785000D01*
X137208130Y-105785000D01*
X137252440Y-105838992D01*
X137184445Y-105858338D01*
X137086623Y-105908463D01*
X137000460Y-105976709D01*
X136929267Y-106060454D01*
X136875780Y-106156478D01*
X136842053Y-106261093D01*
X136832000Y-106336500D01*
X136971500Y-106476000D01*
X138161000Y-106476000D01*
X138161000Y-106456000D01*
X138569000Y-106456000D01*
X138569000Y-106476000D01*
X139758500Y-106476000D01*
X139898000Y-106336500D01*
X139887947Y-106261093D01*
X139854220Y-106156478D01*
X139800733Y-106060454D01*
X139729540Y-105976709D01*
X139643377Y-105908463D01*
X139545555Y-105858338D01*
X139477560Y-105838992D01*
X139521870Y-105785000D01*
X142084671Y-105785000D01*
X143782767Y-107483097D01*
X143722273Y-107629142D01*
X143680000Y-107841659D01*
X143680000Y-108058341D01*
X143722273Y-108270858D01*
X143805193Y-108471045D01*
X143925575Y-108651209D01*
X144078791Y-108804425D01*
X144258955Y-108924807D01*
X144459142Y-109007727D01*
X144671659Y-109050000D01*
X144888341Y-109050000D01*
X145100858Y-109007727D01*
X145246904Y-108947233D01*
X146945001Y-110645331D01*
X146945000Y-116684669D01*
X145894671Y-117735000D01*
X143665331Y-117735000D01*
X142518195Y-116587866D01*
X142506448Y-116573552D01*
X142449347Y-116526691D01*
X142384200Y-116491869D01*
X142313513Y-116470426D01*
X142258419Y-116465000D01*
X142258416Y-116465000D01*
X142240000Y-116463186D01*
X142221584Y-116465000D01*
X139465301Y-116465000D01*
X139404807Y-116318955D01*
X139284425Y-116138791D01*
X139131209Y-115985575D01*
X138951045Y-115865193D01*
X138750858Y-115782273D01*
X138538341Y-115740000D01*
X138321659Y-115740000D01*
X138109142Y-115782273D01*
X137908955Y-115865193D01*
X137728791Y-115985575D01*
X137575575Y-116138791D01*
X137455193Y-116318955D01*
X137372273Y-116519142D01*
X137330000Y-116731659D01*
X137330000Y-116948341D01*
X137372273Y-117160858D01*
X137455193Y-117361045D01*
X137575575Y-117541209D01*
X137728791Y-117694425D01*
X137908955Y-117814807D01*
X138109142Y-117897727D01*
X138321659Y-117940000D01*
X138538341Y-117940000D01*
X138750858Y-117897727D01*
X138951045Y-117814807D01*
X139131209Y-117694425D01*
X139284425Y-117541209D01*
X139404807Y-117361045D01*
X139465301Y-117215000D01*
X142084671Y-117215000D01*
X143231814Y-118362145D01*
X143243552Y-118376448D01*
X143257855Y-118388186D01*
X143257858Y-118388189D01*
X143300653Y-118423309D01*
X143365800Y-118458131D01*
X143436487Y-118479574D01*
X143491581Y-118485000D01*
X143491583Y-118485000D01*
X143509999Y-118486814D01*
X143528415Y-118485000D01*
X146031584Y-118485000D01*
X146050000Y-118486814D01*
X146068416Y-118485000D01*
X146068419Y-118485000D01*
X146123513Y-118479574D01*
X146194200Y-118458131D01*
X146259347Y-118423309D01*
X146316448Y-118376448D01*
X146328195Y-118362134D01*
X147572146Y-117118185D01*
X147586448Y-117106448D01*
X147598186Y-117092145D01*
X147598189Y-117092142D01*
X147633309Y-117049347D01*
X147668130Y-116984202D01*
X147668131Y-116984199D01*
X147689574Y-116913513D01*
X147695000Y-116858419D01*
X147695000Y-116858417D01*
X147696814Y-116840001D01*
X147695000Y-116821585D01*
X147695000Y-110508415D01*
X147696814Y-110489999D01*
X147695000Y-110471581D01*
X147689574Y-110416487D01*
X147668131Y-110345800D01*
X147665031Y-110340000D01*
X147633309Y-110280652D01*
X147598188Y-110237858D01*
X147586448Y-110223552D01*
X147572139Y-110211809D01*
X145777233Y-108416904D01*
X145837727Y-108270858D01*
X145880000Y-108058341D01*
X145880000Y-107841659D01*
X145837727Y-107629142D01*
X145754807Y-107428955D01*
X145634425Y-107248791D01*
X145481209Y-107095575D01*
X145301045Y-106975193D01*
X145100858Y-106892273D01*
X144888341Y-106850000D01*
X144671659Y-106850000D01*
X144459142Y-106892273D01*
X144313097Y-106952767D01*
X142518195Y-105157866D01*
X142506448Y-105143552D01*
X142449347Y-105096691D01*
X142384200Y-105061869D01*
X142313513Y-105040426D01*
X142258419Y-105035000D01*
X142258416Y-105035000D01*
X142240000Y-105033186D01*
X142221584Y-105035000D01*
X139521870Y-105035000D01*
X139473698Y-104976302D01*
X139412900Y-104926407D01*
X139343536Y-104889331D01*
X139268272Y-104866500D01*
X139190000Y-104858791D01*
X137540000Y-104858791D01*
X137461728Y-104866500D01*
X137386464Y-104889331D01*
X137317100Y-104926407D01*
X137256483Y-104976153D01*
X135814989Y-103534660D01*
X135814989Y-103095319D01*
X137111809Y-104392139D01*
X137123552Y-104406448D01*
X137169789Y-104444394D01*
X137206407Y-104512900D01*
X137256302Y-104573698D01*
X137317100Y-104623593D01*
X137386464Y-104660669D01*
X137461728Y-104683500D01*
X137540000Y-104691209D01*
X139190000Y-104691209D01*
X139268272Y-104683500D01*
X139343536Y-104660669D01*
X139412900Y-104623593D01*
X139473698Y-104573698D01*
X139523593Y-104512900D01*
X139560669Y-104443536D01*
X139583500Y-104368272D01*
X139591209Y-104290000D01*
X139591209Y-103990000D01*
X139583500Y-103911728D01*
X139560669Y-103836464D01*
X139523593Y-103767100D01*
X139473698Y-103706302D01*
X139412900Y-103656407D01*
X139343536Y-103619331D01*
X139268272Y-103596500D01*
X139190000Y-103588791D01*
X137540000Y-103588791D01*
X137461728Y-103596500D01*
X137396589Y-103616260D01*
X136500329Y-102720000D01*
X137138791Y-102720000D01*
X137138791Y-103020000D01*
X137146500Y-103098272D01*
X137169331Y-103173536D01*
X137206407Y-103242900D01*
X137256302Y-103303698D01*
X137317100Y-103353593D01*
X137386464Y-103390669D01*
X137461728Y-103413500D01*
X137540000Y-103421209D01*
X139190000Y-103421209D01*
X139268272Y-103413500D01*
X139343536Y-103390669D01*
X139412900Y-103353593D01*
X139473698Y-103303698D01*
X139521870Y-103245000D01*
X142084671Y-103245000D01*
X143782767Y-104943097D01*
X143722273Y-105089142D01*
X143680000Y-105301659D01*
X143680000Y-105518341D01*
X143722273Y-105730858D01*
X143805193Y-105931045D01*
X143925575Y-106111209D01*
X144078791Y-106264425D01*
X144258955Y-106384807D01*
X144459142Y-106467727D01*
X144671659Y-106510000D01*
X144888341Y-106510000D01*
X145100858Y-106467727D01*
X145301045Y-106384807D01*
X145481209Y-106264425D01*
X145634425Y-106111209D01*
X145754807Y-105931045D01*
X145837727Y-105730858D01*
X145880000Y-105518341D01*
X145880000Y-105301659D01*
X145837727Y-105089142D01*
X145754807Y-104888955D01*
X145634425Y-104708791D01*
X145481209Y-104555575D01*
X145301045Y-104435193D01*
X145100858Y-104352273D01*
X144888341Y-104310000D01*
X144671659Y-104310000D01*
X144459142Y-104352273D01*
X144313097Y-104412767D01*
X142518195Y-102617866D01*
X142506448Y-102603552D01*
X142449347Y-102556691D01*
X142384200Y-102521869D01*
X142313513Y-102500426D01*
X142258419Y-102495000D01*
X142258416Y-102495000D01*
X142240000Y-102493186D01*
X142221584Y-102495000D01*
X139521870Y-102495000D01*
X139473698Y-102436302D01*
X139412900Y-102386407D01*
X139343536Y-102349331D01*
X139268272Y-102326500D01*
X139190000Y-102318791D01*
X137540000Y-102318791D01*
X137461728Y-102326500D01*
X137386464Y-102349331D01*
X137317100Y-102386407D01*
X137256302Y-102436302D01*
X137206407Y-102497100D01*
X137169331Y-102566464D01*
X137146500Y-102641728D01*
X137138791Y-102720000D01*
X136500329Y-102720000D01*
X136265000Y-102484671D01*
X136265000Y-101755329D01*
X137805330Y-100215000D01*
X140023716Y-100215000D01*
X140028422Y-100262782D01*
X140056943Y-100356805D01*
X140103260Y-100443457D01*
X140165591Y-100519409D01*
X140241543Y-100581740D01*
X140328195Y-100628057D01*
X140422218Y-100656578D01*
X140519999Y-100666209D01*
X141420001Y-100666209D01*
X141517782Y-100656578D01*
X141611805Y-100628057D01*
X141698457Y-100581740D01*
X141774409Y-100519409D01*
X141836740Y-100443457D01*
X141851950Y-100415000D01*
X142249300Y-100415000D01*
X142260074Y-100524387D01*
X142291981Y-100629571D01*
X142343795Y-100726508D01*
X142413525Y-100811475D01*
X142498492Y-100881205D01*
X142595429Y-100933019D01*
X142700613Y-100964926D01*
X142810000Y-100975700D01*
X143166500Y-100973000D01*
X143306000Y-100833500D01*
X143306000Y-100044000D01*
X143714000Y-100044000D01*
X143714000Y-100833500D01*
X143853500Y-100973000D01*
X144210000Y-100975700D01*
X144319387Y-100964926D01*
X144424571Y-100933019D01*
X144521508Y-100881205D01*
X144606475Y-100811475D01*
X144676205Y-100726508D01*
X144728019Y-100629571D01*
X144759926Y-100524387D01*
X144770700Y-100415000D01*
X144768000Y-100183500D01*
X144628500Y-100044000D01*
X143714000Y-100044000D01*
X143306000Y-100044000D01*
X142391500Y-100044000D01*
X142252000Y-100183500D01*
X142249300Y-100415000D01*
X141851950Y-100415000D01*
X141883057Y-100356805D01*
X141911578Y-100262782D01*
X141921209Y-100165001D01*
X141921209Y-99514999D01*
X141911578Y-99417218D01*
X141883057Y-99323195D01*
X141851951Y-99265000D01*
X142249300Y-99265000D01*
X142252000Y-99496500D01*
X142391500Y-99636000D01*
X143306000Y-99636000D01*
X143306000Y-98846500D01*
X143714000Y-98846500D01*
X143714000Y-99636000D01*
X144628500Y-99636000D01*
X144768000Y-99496500D01*
X144770700Y-99265000D01*
X144759926Y-99155613D01*
X144728019Y-99050429D01*
X144676205Y-98953492D01*
X144606475Y-98868525D01*
X144521508Y-98798795D01*
X144424571Y-98746981D01*
X144319387Y-98715074D01*
X144210000Y-98704300D01*
X143853500Y-98707000D01*
X143714000Y-98846500D01*
X143306000Y-98846500D01*
X143166500Y-98707000D01*
X142810000Y-98704300D01*
X142700613Y-98715074D01*
X142595429Y-98746981D01*
X142498492Y-98798795D01*
X142413525Y-98868525D01*
X142343795Y-98953492D01*
X142291981Y-99050429D01*
X142260074Y-99155613D01*
X142249300Y-99265000D01*
X141851951Y-99265000D01*
X141836740Y-99236543D01*
X141774409Y-99160591D01*
X141698457Y-99098260D01*
X141611805Y-99051943D01*
X141517782Y-99023422D01*
X141420001Y-99013791D01*
X140519999Y-99013791D01*
X140422218Y-99023422D01*
X140328195Y-99051943D01*
X140241543Y-99098260D01*
X140165591Y-99160591D01*
X140103260Y-99236543D01*
X140056943Y-99323195D01*
X140028422Y-99417218D01*
X140023716Y-99465000D01*
X137668416Y-99465000D01*
X137650000Y-99463186D01*
X137631584Y-99465000D01*
X137631581Y-99465000D01*
X137576487Y-99470426D01*
X137505800Y-99491869D01*
X137440653Y-99526691D01*
X137383552Y-99573552D01*
X137371809Y-99587861D01*
X135814991Y-101144680D01*
X135814991Y-101008528D01*
X137412139Y-99411381D01*
X137426448Y-99399638D01*
X137473309Y-99342537D01*
X137508131Y-99277390D01*
X137529574Y-99206703D01*
X137535000Y-99151609D01*
X137535000Y-99151607D01*
X137536814Y-99133191D01*
X137535000Y-99114775D01*
X137535000Y-98515225D01*
X137536814Y-98496809D01*
X137533865Y-98466869D01*
X137529574Y-98423297D01*
X137508131Y-98352610D01*
X137473309Y-98287463D01*
X137438189Y-98244668D01*
X137438186Y-98244665D01*
X137426448Y-98230362D01*
X137412146Y-98218625D01*
X136731385Y-97537866D01*
X136719638Y-97523552D01*
X136662537Y-97476691D01*
X136658017Y-97474275D01*
X136694409Y-97444409D01*
X136756740Y-97368457D01*
X136803057Y-97281805D01*
X136831578Y-97187782D01*
X136836284Y-97140000D01*
X140141456Y-97140000D01*
X140103260Y-97186543D01*
X140056943Y-97273195D01*
X140028422Y-97367218D01*
X140018791Y-97464999D01*
X140018791Y-98115001D01*
X140028422Y-98212782D01*
X140056943Y-98306805D01*
X140103260Y-98393457D01*
X140165591Y-98469409D01*
X140241543Y-98531740D01*
X140328195Y-98578057D01*
X140422218Y-98606578D01*
X140519999Y-98616209D01*
X141420001Y-98616209D01*
X141517782Y-98606578D01*
X141611805Y-98578057D01*
X141698457Y-98531740D01*
X141774409Y-98469409D01*
X141836740Y-98393457D01*
X141883057Y-98306805D01*
X141911578Y-98212782D01*
X141916284Y-98165000D01*
X142563716Y-98165000D01*
X142568422Y-98212782D01*
X142596943Y-98306805D01*
X142643260Y-98393457D01*
X142705591Y-98469409D01*
X142781543Y-98531740D01*
X142868195Y-98578057D01*
X142962218Y-98606578D01*
X143059999Y-98616209D01*
X143960001Y-98616209D01*
X144057782Y-98606578D01*
X144151805Y-98578057D01*
X144238457Y-98531740D01*
X144314409Y-98469409D01*
X144376740Y-98393457D01*
X144423057Y-98306805D01*
X144451578Y-98212782D01*
X144461209Y-98115001D01*
X144461209Y-97464999D01*
X144451578Y-97367218D01*
X144423057Y-97273195D01*
X144376740Y-97186543D01*
X144314409Y-97110591D01*
X144238457Y-97048260D01*
X144151805Y-97001943D01*
X144057782Y-96973422D01*
X143960001Y-96963791D01*
X143059999Y-96963791D01*
X142962218Y-96973422D01*
X142868195Y-97001943D01*
X142781543Y-97048260D01*
X142705591Y-97110591D01*
X142643260Y-97186543D01*
X142596943Y-97273195D01*
X142568422Y-97367218D01*
X142563716Y-97415000D01*
X141916284Y-97415000D01*
X141911578Y-97367218D01*
X141883057Y-97273195D01*
X141836740Y-97186543D01*
X141774409Y-97110591D01*
X141698457Y-97048260D01*
X141611805Y-97001943D01*
X141517782Y-96973422D01*
X141420001Y-96963791D01*
X140631540Y-96963791D01*
X147572140Y-90023192D01*
X147586448Y-90011450D01*
X147611243Y-89981236D01*
X147633309Y-89954350D01*
X147668130Y-89889204D01*
X147668131Y-89889201D01*
X147689574Y-89818515D01*
X147695000Y-89763421D01*
X147695000Y-89763419D01*
X147696814Y-89745003D01*
X147695000Y-89726587D01*
X147695000Y-88808415D01*
X147696814Y-88789999D01*
X147694008Y-88761508D01*
X147689574Y-88716487D01*
X147668131Y-88645800D01*
X147655309Y-88621811D01*
X147633309Y-88580652D01*
X147598188Y-88537858D01*
X147586448Y-88523552D01*
X147572139Y-88511809D01*
X146758195Y-87697866D01*
X146746448Y-87683552D01*
X146689347Y-87636691D01*
X146624200Y-87601869D01*
X146553513Y-87580426D01*
X146498419Y-87575000D01*
X146498416Y-87575000D01*
X146481209Y-87573305D01*
X146481209Y-87550000D01*
X146476382Y-87500992D01*
X146462087Y-87453866D01*
X146438873Y-87410436D01*
X146407632Y-87372368D01*
X146369564Y-87341127D01*
X146326134Y-87317913D01*
X146279008Y-87303618D01*
X146230000Y-87298791D01*
X146155000Y-87298791D01*
X146155000Y-86785329D01*
X146302139Y-86638191D01*
X146316448Y-86626448D01*
X146336423Y-86602108D01*
X146363310Y-86569347D01*
X146387070Y-86524893D01*
X146398131Y-86504200D01*
X146419574Y-86433513D01*
X146426814Y-86360000D01*
X146419574Y-86286487D01*
X146398131Y-86215800D01*
X146363309Y-86150653D01*
X146316448Y-86093552D01*
X146259347Y-86046691D01*
X146259348Y-86046691D01*
X146259346Y-86046690D01*
X146226773Y-86029280D01*
X146194200Y-86011869D01*
X146123513Y-85990426D01*
X146068419Y-85985000D01*
X146068416Y-85985000D01*
X146050000Y-85983186D01*
X146031584Y-85985000D01*
X142713415Y-85985000D01*
X142694999Y-85983186D01*
X142676583Y-85985000D01*
X142676581Y-85985000D01*
X142621487Y-85990426D01*
X142550800Y-86011869D01*
X142485653Y-86046691D01*
X142428552Y-86093552D01*
X142416809Y-86107861D01*
X139254544Y-89270127D01*
X139234409Y-89245591D01*
X139158457Y-89183260D01*
X139071805Y-89136943D01*
X138977782Y-89108422D01*
X138880001Y-89098791D01*
X137979999Y-89098791D01*
X137882218Y-89108422D01*
X137788195Y-89136943D01*
X137701543Y-89183260D01*
X137625591Y-89245591D01*
X137563260Y-89321543D01*
X137516943Y-89408195D01*
X137488422Y-89502218D01*
X137483716Y-89550000D01*
X135566284Y-89550000D01*
X135561578Y-89502218D01*
X135533057Y-89408195D01*
X135486740Y-89321543D01*
X135424409Y-89245591D01*
X135348457Y-89183260D01*
X135261805Y-89136943D01*
X135167782Y-89108422D01*
X135070001Y-89098791D01*
X134324121Y-89098791D01*
X134233654Y-89008324D01*
X134276500Y-89008000D01*
X134416000Y-88868500D01*
X134416000Y-88079000D01*
X134824000Y-88079000D01*
X134824000Y-88868500D01*
X134963500Y-89008000D01*
X135320000Y-89010700D01*
X135429387Y-88999926D01*
X135534571Y-88968019D01*
X135631508Y-88916205D01*
X135716475Y-88846475D01*
X135786205Y-88761508D01*
X135838019Y-88664571D01*
X135869926Y-88559387D01*
X135880700Y-88450000D01*
X137169300Y-88450000D01*
X137180074Y-88559387D01*
X137211981Y-88664571D01*
X137263795Y-88761508D01*
X137333525Y-88846475D01*
X137418492Y-88916205D01*
X137515429Y-88968019D01*
X137620613Y-88999926D01*
X137730000Y-89010700D01*
X138086500Y-89008000D01*
X138226000Y-88868500D01*
X138226000Y-88079000D01*
X138634000Y-88079000D01*
X138634000Y-88868500D01*
X138773500Y-89008000D01*
X139130000Y-89010700D01*
X139239387Y-88999926D01*
X139344571Y-88968019D01*
X139441508Y-88916205D01*
X139526475Y-88846475D01*
X139596205Y-88761508D01*
X139648019Y-88664571D01*
X139679926Y-88559387D01*
X139690700Y-88450000D01*
X139688000Y-88218500D01*
X139548500Y-88079000D01*
X138634000Y-88079000D01*
X138226000Y-88079000D01*
X137311500Y-88079000D01*
X137172000Y-88218500D01*
X137169300Y-88450000D01*
X135880700Y-88450000D01*
X135878000Y-88218500D01*
X135738500Y-88079000D01*
X134824000Y-88079000D01*
X134416000Y-88079000D01*
X133501500Y-88079000D01*
X133402915Y-88177585D01*
X132525330Y-87300000D01*
X133359300Y-87300000D01*
X133362000Y-87531500D01*
X133501500Y-87671000D01*
X134416000Y-87671000D01*
X134416000Y-86881500D01*
X134824000Y-86881500D01*
X134824000Y-87671000D01*
X135738500Y-87671000D01*
X135878000Y-87531500D01*
X135880700Y-87300000D01*
X137169300Y-87300000D01*
X137172000Y-87531500D01*
X137311500Y-87671000D01*
X138226000Y-87671000D01*
X138226000Y-86881500D01*
X138634000Y-86881500D01*
X138634000Y-87671000D01*
X139548500Y-87671000D01*
X139688000Y-87531500D01*
X139690700Y-87300000D01*
X139679926Y-87190613D01*
X139648019Y-87085429D01*
X139596205Y-86988492D01*
X139526475Y-86903525D01*
X139441508Y-86833795D01*
X139344571Y-86781981D01*
X139239387Y-86750074D01*
X139130000Y-86739300D01*
X138773500Y-86742000D01*
X138634000Y-86881500D01*
X138226000Y-86881500D01*
X138086500Y-86742000D01*
X137730000Y-86739300D01*
X137620613Y-86750074D01*
X137515429Y-86781981D01*
X137418492Y-86833795D01*
X137333525Y-86903525D01*
X137263795Y-86988492D01*
X137211981Y-87085429D01*
X137180074Y-87190613D01*
X137169300Y-87300000D01*
X135880700Y-87300000D01*
X135869926Y-87190613D01*
X135838019Y-87085429D01*
X135786205Y-86988492D01*
X135716475Y-86903525D01*
X135631508Y-86833795D01*
X135534571Y-86781981D01*
X135429387Y-86750074D01*
X135320000Y-86739300D01*
X134963500Y-86742000D01*
X134824000Y-86881500D01*
X134416000Y-86881500D01*
X134276500Y-86742000D01*
X133920000Y-86739300D01*
X133810613Y-86750074D01*
X133705429Y-86781981D01*
X133608492Y-86833795D01*
X133523525Y-86903525D01*
X133453795Y-86988492D01*
X133401981Y-87085429D01*
X133370074Y-87190613D01*
X133359300Y-87300000D01*
X132525330Y-87300000D01*
X131088195Y-85862866D01*
X131076448Y-85848552D01*
X131019347Y-85801691D01*
X130954200Y-85766869D01*
X130883513Y-85745426D01*
X130828419Y-85740000D01*
X130828416Y-85740000D01*
X130810000Y-85738186D01*
X130791584Y-85740000D01*
X127946284Y-85740000D01*
X127941578Y-85692218D01*
X127913057Y-85598195D01*
X127866740Y-85511543D01*
X127804409Y-85435591D01*
X127728457Y-85373260D01*
X127641805Y-85326943D01*
X127547782Y-85298422D01*
X127450001Y-85288791D01*
X126549999Y-85288791D01*
X126452218Y-85298422D01*
X126358195Y-85326943D01*
X126271543Y-85373260D01*
X126195591Y-85435591D01*
X126133260Y-85511543D01*
X126086943Y-85598195D01*
X126058422Y-85692218D01*
X126048791Y-85789999D01*
X126048791Y-86440001D01*
X126058422Y-86537782D01*
X126086943Y-86631805D01*
X126133260Y-86718457D01*
X126195591Y-86794409D01*
X126271543Y-86856740D01*
X126358195Y-86903057D01*
X126452218Y-86931578D01*
X126549999Y-86941209D01*
X127450001Y-86941209D01*
X127547782Y-86931578D01*
X127641805Y-86903057D01*
X127728457Y-86856740D01*
X127804409Y-86794409D01*
X127866740Y-86718457D01*
X127913057Y-86631805D01*
X127941578Y-86537782D01*
X127946284Y-86490000D01*
X130654671Y-86490000D01*
X133677388Y-89512718D01*
X133668791Y-89599999D01*
X133668791Y-90250001D01*
X133678422Y-90347782D01*
X133706943Y-90441805D01*
X133753260Y-90528457D01*
X133815591Y-90604409D01*
X133891543Y-90666740D01*
X133978195Y-90713057D01*
X134072218Y-90741578D01*
X134169999Y-90751209D01*
X135070001Y-90751209D01*
X135167782Y-90741578D01*
X135261805Y-90713057D01*
X135348457Y-90666740D01*
X135424409Y-90604409D01*
X135486740Y-90528457D01*
X135533057Y-90441805D01*
X135561578Y-90347782D01*
X135566284Y-90300000D01*
X137483716Y-90300000D01*
X137488422Y-90347782D01*
X137516943Y-90441805D01*
X137563260Y-90528457D01*
X137625591Y-90604409D01*
X137701543Y-90666740D01*
X137788195Y-90713057D01*
X137882218Y-90741578D01*
X137979999Y-90751209D01*
X138880001Y-90751209D01*
X138977782Y-90741578D01*
X139071805Y-90713057D01*
X139158457Y-90666740D01*
X139234409Y-90604409D01*
X139296740Y-90528457D01*
X139343057Y-90441805D01*
X139371578Y-90347782D01*
X139381209Y-90250001D01*
X139381209Y-90203954D01*
X139396448Y-90191448D01*
X139408195Y-90177134D01*
X142850330Y-86735000D01*
X145405000Y-86735000D01*
X145405001Y-87298791D01*
X145330000Y-87298791D01*
X145280992Y-87303618D01*
X145233866Y-87317913D01*
X145190436Y-87341127D01*
X145152368Y-87372368D01*
X145121127Y-87410436D01*
X145097913Y-87453866D01*
X145083618Y-87500992D01*
X145078791Y-87550000D01*
X145078791Y-88350000D01*
X145083618Y-88399008D01*
X145097913Y-88446134D01*
X145121127Y-88489564D01*
X145152368Y-88527632D01*
X145190436Y-88558873D01*
X145233866Y-88582087D01*
X145280992Y-88596382D01*
X145330000Y-88601209D01*
X146230000Y-88601209D01*
X146279008Y-88596382D01*
X146326134Y-88582087D01*
X146369564Y-88558873D01*
X146407632Y-88527632D01*
X146438873Y-88489564D01*
X146456415Y-88456745D01*
X146945001Y-88945331D01*
X146945000Y-89589672D01*
X146481209Y-90053463D01*
X146481209Y-89450000D01*
X146476382Y-89400992D01*
X146462087Y-89353866D01*
X146438873Y-89310436D01*
X146407632Y-89272368D01*
X146369564Y-89241127D01*
X146326134Y-89217913D01*
X146279008Y-89203618D01*
X146230000Y-89198791D01*
X145330000Y-89198791D01*
X145280992Y-89203618D01*
X145233866Y-89217913D01*
X145190436Y-89241127D01*
X145152368Y-89272368D01*
X145121127Y-89310436D01*
X145097913Y-89353866D01*
X145083618Y-89400992D01*
X145078791Y-89450000D01*
X145078791Y-90250000D01*
X145083618Y-90299008D01*
X145097913Y-90346134D01*
X145121127Y-90389564D01*
X145152368Y-90427632D01*
X145190436Y-90458873D01*
X145233866Y-90482087D01*
X145280992Y-90496382D01*
X145330000Y-90501209D01*
X146033463Y-90501209D01*
X140144673Y-96390000D01*
X136836284Y-96390000D01*
X136831578Y-96342218D01*
X136803057Y-96248195D01*
X136756740Y-96161543D01*
X136694409Y-96085591D01*
X136618457Y-96023260D01*
X136531805Y-95976943D01*
X136437782Y-95948422D01*
X136340001Y-95938791D01*
X135439999Y-95938791D01*
X135342218Y-95948422D01*
X135248195Y-95976943D01*
X135161543Y-96023260D01*
X135085591Y-96085591D01*
X135023260Y-96161543D01*
X134976943Y-96248195D01*
X134948422Y-96342218D01*
X134938791Y-96439999D01*
X134938791Y-97090001D01*
X134948422Y-97187782D01*
X134976943Y-97281805D01*
X135023260Y-97368457D01*
X135085591Y-97444409D01*
X135161543Y-97506740D01*
X135248195Y-97553057D01*
X135342218Y-97581578D01*
X135439999Y-97591209D01*
X135611047Y-97591209D01*
X135623553Y-97606448D01*
X135637861Y-97618190D01*
X136008461Y-97988791D01*
X135439999Y-97988791D01*
X135342218Y-97998422D01*
X135248195Y-98026943D01*
X135161543Y-98073260D01*
X135085591Y-98135591D01*
X135023260Y-98211543D01*
X134976943Y-98298195D01*
X134948422Y-98392218D01*
X134938791Y-98489999D01*
X134938791Y-98536046D01*
X134923552Y-98548552D01*
X134911809Y-98562861D01*
X134587871Y-98886800D01*
X134573563Y-98898542D01*
X134561821Y-98912850D01*
X134526701Y-98955644D01*
X134495621Y-99013791D01*
X134491880Y-99020790D01*
X134473480Y-99081448D01*
X134470437Y-99091478D01*
X134463196Y-99164990D01*
X134465011Y-99183416D01*
X134465011Y-102388139D01*
X134462900Y-102386407D01*
X134393536Y-102349331D01*
X134318272Y-102326500D01*
X134240000Y-102318791D01*
X132590000Y-102318791D01*
X132511728Y-102326500D01*
X132436464Y-102349331D01*
X132367100Y-102386407D01*
X132306302Y-102436302D01*
X132258130Y-102495000D01*
X128288415Y-102495000D01*
X128269999Y-102493186D01*
X128251583Y-102495000D01*
X128251581Y-102495000D01*
X128196487Y-102500426D01*
X128125800Y-102521869D01*
X128125798Y-102521870D01*
X128060652Y-102556691D01*
X128048744Y-102566464D01*
X128003552Y-102603552D01*
X127991809Y-102617861D01*
X126300880Y-104308791D01*
X124880000Y-104308791D01*
X124830992Y-104313618D01*
X124783866Y-104327913D01*
X124740436Y-104351127D01*
X124702368Y-104382368D01*
X124671127Y-104420436D01*
X124647913Y-104463866D01*
X124633618Y-104510992D01*
X124628791Y-104560000D01*
X124628791Y-106260000D01*
X124633618Y-106309008D01*
X124647913Y-106356134D01*
X124671127Y-106399564D01*
X124702368Y-106437632D01*
X124740436Y-106468873D01*
X124783866Y-106492087D01*
X124830992Y-106506382D01*
X124880000Y-106511209D01*
X126580000Y-106511209D01*
X126629008Y-106506382D01*
X126649507Y-106500164D01*
X126196904Y-106952767D01*
X126050858Y-106892273D01*
X125838341Y-106850000D01*
X125621659Y-106850000D01*
X125409142Y-106892273D01*
X125208955Y-106975193D01*
X125028791Y-107095575D01*
X124875575Y-107248791D01*
X124755193Y-107428955D01*
X124672273Y-107629142D01*
X124630000Y-107841659D01*
X124630000Y-108058341D01*
X124672273Y-108270858D01*
X124755193Y-108471045D01*
X124875575Y-108651209D01*
X125028791Y-108804425D01*
X125208955Y-108924807D01*
X125409142Y-109007727D01*
X125621659Y-109050000D01*
X125838341Y-109050000D01*
X126050858Y-109007727D01*
X126251045Y-108924807D01*
X126431209Y-108804425D01*
X126584425Y-108651209D01*
X126704807Y-108471045D01*
X126787727Y-108270858D01*
X126830000Y-108058341D01*
X126830000Y-107841659D01*
X126787727Y-107629142D01*
X126727233Y-107483096D01*
X129695330Y-104515000D01*
X132258130Y-104515000D01*
X132306302Y-104573698D01*
X132367100Y-104623593D01*
X132436464Y-104660669D01*
X132511728Y-104683500D01*
X132590000Y-104691209D01*
X134240000Y-104691209D01*
X134318272Y-104683500D01*
X134393536Y-104660669D01*
X134462900Y-104623593D01*
X134465010Y-104621861D01*
X134465010Y-104928139D01*
X134462900Y-104926407D01*
X134393536Y-104889331D01*
X134318272Y-104866500D01*
X134240000Y-104858791D01*
X132590000Y-104858791D01*
X132511728Y-104866500D01*
X132436464Y-104889331D01*
X132367100Y-104926407D01*
X132306302Y-104976302D01*
X132258130Y-105035000D01*
X130828416Y-105035000D01*
X130810000Y-105033186D01*
X130791584Y-105035000D01*
X130791581Y-105035000D01*
X130736487Y-105040426D01*
X130665800Y-105061869D01*
X130600653Y-105096691D01*
X130543552Y-105143552D01*
X130531812Y-105157858D01*
X126196904Y-109492767D01*
X126050858Y-109432273D01*
X125838341Y-109390000D01*
X125621659Y-109390000D01*
X125409142Y-109432273D01*
X125208955Y-109515193D01*
X125028791Y-109635575D01*
X124875575Y-109788791D01*
X124755193Y-109968955D01*
X124672273Y-110169142D01*
X124630000Y-110381659D01*
X124630000Y-110598341D01*
X124672273Y-110810858D01*
X124755193Y-111011045D01*
X124875575Y-111191209D01*
X125028791Y-111344425D01*
X125208955Y-111464807D01*
X125409142Y-111547727D01*
X125621659Y-111590000D01*
X125838341Y-111590000D01*
X126050858Y-111547727D01*
X126251045Y-111464807D01*
X126431209Y-111344425D01*
X126584425Y-111191209D01*
X126704807Y-111011045D01*
X126787727Y-110810858D01*
X126830000Y-110598341D01*
X126830000Y-110381659D01*
X126787727Y-110169142D01*
X126727233Y-110023096D01*
X130965330Y-105785000D01*
X132258130Y-105785000D01*
X132306302Y-105843698D01*
X132367100Y-105893593D01*
X132436464Y-105930669D01*
X132511728Y-105953500D01*
X132590000Y-105961209D01*
X134240000Y-105961209D01*
X134318272Y-105953500D01*
X134393536Y-105930669D01*
X134462900Y-105893593D01*
X134465010Y-105891861D01*
X134465010Y-106198139D01*
X134462900Y-106196407D01*
X134393536Y-106159331D01*
X134318272Y-106136500D01*
X134240000Y-106128791D01*
X132590000Y-106128791D01*
X132511728Y-106136500D01*
X132436464Y-106159331D01*
X132367100Y-106196407D01*
X132306302Y-106246302D01*
X132258130Y-106305000D01*
X132098415Y-106305000D01*
X132079999Y-106303186D01*
X132061583Y-106305000D01*
X132061581Y-106305000D01*
X132006487Y-106310426D01*
X131935800Y-106331869D01*
X131870653Y-106366691D01*
X131813552Y-106413552D01*
X131801809Y-106427861D01*
X126196904Y-112032767D01*
X126050858Y-111972273D01*
X125838341Y-111930000D01*
X125621659Y-111930000D01*
X125409142Y-111972273D01*
X125208955Y-112055193D01*
X125028791Y-112175575D01*
X124875575Y-112328791D01*
X124755193Y-112508955D01*
X124672273Y-112709142D01*
X124630000Y-112921659D01*
X124630000Y-113138341D01*
X124672273Y-113350858D01*
X124755193Y-113551045D01*
X124875575Y-113731209D01*
X125028791Y-113884425D01*
X125208955Y-114004807D01*
X125409142Y-114087727D01*
X125621659Y-114130000D01*
X125838341Y-114130000D01*
X126050858Y-114087727D01*
X126251045Y-114004807D01*
X126431209Y-113884425D01*
X126530001Y-113785633D01*
X126530001Y-114239669D01*
X126196903Y-114572767D01*
X126050858Y-114512273D01*
X125838341Y-114470000D01*
X125621659Y-114470000D01*
X125409142Y-114512273D01*
X125208955Y-114595193D01*
X125028791Y-114715575D01*
X124875575Y-114868791D01*
X124755193Y-115048955D01*
X124672273Y-115249142D01*
X124630000Y-115461659D01*
X124630000Y-115678341D01*
X124672273Y-115890858D01*
X124755193Y-116091045D01*
X124875575Y-116271209D01*
X125028791Y-116424425D01*
X125208955Y-116544807D01*
X125409142Y-116627727D01*
X125621659Y-116670000D01*
X125838341Y-116670000D01*
X126050858Y-116627727D01*
X126251045Y-116544807D01*
X126431209Y-116424425D01*
X126584425Y-116271209D01*
X126704807Y-116091045D01*
X126787727Y-115890858D01*
X126830000Y-115678341D01*
X126830000Y-115461659D01*
X126787727Y-115249142D01*
X126727233Y-115103097D01*
X127157141Y-114673189D01*
X127171449Y-114661447D01*
X127218310Y-114604346D01*
X127253132Y-114539199D01*
X127274575Y-114468512D01*
X127280001Y-114413418D01*
X127280001Y-114413416D01*
X127281815Y-114395000D01*
X127280001Y-114376584D01*
X127280001Y-113280328D01*
X132235330Y-108325000D01*
X132258130Y-108325000D01*
X132306302Y-108383698D01*
X132367100Y-108433593D01*
X132436464Y-108470669D01*
X132511728Y-108493500D01*
X132590000Y-108501209D01*
X134240000Y-108501209D01*
X134318272Y-108493500D01*
X134393536Y-108470669D01*
X134462900Y-108433593D01*
X134465010Y-108431861D01*
X134465010Y-108738139D01*
X134462900Y-108736407D01*
X134393536Y-108699331D01*
X134318272Y-108676500D01*
X134240000Y-108668791D01*
X132590000Y-108668791D01*
X132511728Y-108676500D01*
X132436464Y-108699331D01*
X132367100Y-108736407D01*
X132306302Y-108786302D01*
X132256407Y-108847100D01*
X132219789Y-108915606D01*
X132173552Y-108953552D01*
X132161809Y-108967861D01*
X130557862Y-110571809D01*
X130543553Y-110583552D01*
X130531811Y-110597860D01*
X130496691Y-110640654D01*
X130461870Y-110705800D01*
X130440427Y-110776488D01*
X130433186Y-110850000D01*
X130435001Y-110868426D01*
X130435000Y-113011584D01*
X130433186Y-113030000D01*
X130435000Y-113048416D01*
X130435000Y-113048418D01*
X130440426Y-113103512D01*
X130461869Y-113174199D01*
X130496691Y-113239346D01*
X130543552Y-113296448D01*
X130557866Y-113308195D01*
X131549670Y-114300000D01*
X128114671Y-117735000D01*
X124615331Y-117735000D01*
X123565000Y-116684671D01*
X123565000Y-94899806D01*
X124361058Y-94899806D01*
X124427435Y-95071897D01*
X124554849Y-95261760D01*
X124716855Y-95423118D01*
X124907228Y-95549770D01*
X125118651Y-95636848D01*
X125280937Y-95668791D01*
X125104999Y-95668791D01*
X125007218Y-95678422D01*
X124913195Y-95706943D01*
X124826543Y-95753260D01*
X124750591Y-95815591D01*
X124688260Y-95891543D01*
X124641943Y-95978195D01*
X124613422Y-96072218D01*
X124603791Y-96169999D01*
X124603791Y-96870001D01*
X124613422Y-96967782D01*
X124641943Y-97061805D01*
X124688260Y-97148457D01*
X124750591Y-97224409D01*
X124826543Y-97286740D01*
X124913195Y-97333057D01*
X125007218Y-97361578D01*
X125104999Y-97371209D01*
X126355001Y-97371209D01*
X126452782Y-97361578D01*
X126546805Y-97333057D01*
X126633457Y-97286740D01*
X126709409Y-97224409D01*
X126771740Y-97148457D01*
X126818057Y-97061805D01*
X126846578Y-96967782D01*
X126853747Y-96895000D01*
X130654671Y-96895000D01*
X131137388Y-97377718D01*
X131128791Y-97464999D01*
X131128791Y-98115001D01*
X131138422Y-98212782D01*
X131166943Y-98306805D01*
X131213260Y-98393457D01*
X131275591Y-98469409D01*
X131351543Y-98531740D01*
X131438195Y-98578057D01*
X131532218Y-98606578D01*
X131629999Y-98616209D01*
X132530001Y-98616209D01*
X132627782Y-98606578D01*
X132721805Y-98578057D01*
X132808457Y-98531740D01*
X132884409Y-98469409D01*
X132946740Y-98393457D01*
X132993057Y-98306805D01*
X133021578Y-98212782D01*
X133031209Y-98115001D01*
X133031209Y-98068954D01*
X133046448Y-98056448D01*
X133058195Y-98042134D01*
X141825330Y-89275000D01*
X143078791Y-89275000D01*
X143078791Y-89300000D01*
X143083618Y-89349008D01*
X143097913Y-89396134D01*
X143121127Y-89439564D01*
X143152368Y-89477632D01*
X143190436Y-89508873D01*
X143233866Y-89532087D01*
X143280992Y-89546382D01*
X143330000Y-89551209D01*
X144230000Y-89551209D01*
X144279008Y-89546382D01*
X144326134Y-89532087D01*
X144369564Y-89508873D01*
X144407632Y-89477632D01*
X144438873Y-89439564D01*
X144462087Y-89396134D01*
X144476382Y-89349008D01*
X144481209Y-89300000D01*
X144481209Y-88500000D01*
X144476382Y-88450992D01*
X144462087Y-88403866D01*
X144438873Y-88360436D01*
X144407632Y-88322368D01*
X144369564Y-88291127D01*
X144326134Y-88267913D01*
X144279008Y-88253618D01*
X144230000Y-88248791D01*
X143330000Y-88248791D01*
X143280992Y-88253618D01*
X143233866Y-88267913D01*
X143190436Y-88291127D01*
X143152368Y-88322368D01*
X143121127Y-88360436D01*
X143097913Y-88403866D01*
X143083618Y-88450992D01*
X143078791Y-88500000D01*
X143078791Y-88525000D01*
X141688416Y-88525000D01*
X141670000Y-88523186D01*
X141651584Y-88525000D01*
X141651581Y-88525000D01*
X141596487Y-88530426D01*
X141525800Y-88551869D01*
X141512697Y-88558873D01*
X141460653Y-88586690D01*
X141427892Y-88613577D01*
X141403552Y-88633552D01*
X141391809Y-88647861D01*
X132904544Y-97135127D01*
X132884409Y-97110591D01*
X132808457Y-97048260D01*
X132721805Y-97001943D01*
X132627782Y-96973422D01*
X132530001Y-96963791D01*
X131784121Y-96963791D01*
X131693654Y-96873324D01*
X131736500Y-96873000D01*
X131876000Y-96733500D01*
X131876000Y-95944000D01*
X132284000Y-95944000D01*
X132284000Y-96733500D01*
X132423500Y-96873000D01*
X132780000Y-96875700D01*
X132889387Y-96864926D01*
X132994571Y-96833019D01*
X133091508Y-96781205D01*
X133176475Y-96711475D01*
X133246205Y-96626508D01*
X133298019Y-96529571D01*
X133329926Y-96424387D01*
X133340700Y-96315000D01*
X133338000Y-96083500D01*
X133198500Y-95944000D01*
X132284000Y-95944000D01*
X131876000Y-95944000D01*
X130961500Y-95944000D01*
X130822000Y-96083500D01*
X130821291Y-96144298D01*
X130810000Y-96143186D01*
X130791584Y-96145000D01*
X126853747Y-96145000D01*
X126846578Y-96072218D01*
X126818057Y-95978195D01*
X126771740Y-95891543D01*
X126709409Y-95815591D01*
X126633457Y-95753260D01*
X126546805Y-95706943D01*
X126452782Y-95678422D01*
X126355001Y-95668791D01*
X126179063Y-95668791D01*
X126341349Y-95636848D01*
X126552772Y-95549770D01*
X126743145Y-95423118D01*
X126905151Y-95261760D01*
X126970085Y-95165000D01*
X130819300Y-95165000D01*
X130822000Y-95396500D01*
X130961500Y-95536000D01*
X131876000Y-95536000D01*
X131876000Y-94746500D01*
X132284000Y-94746500D01*
X132284000Y-95536000D01*
X133198500Y-95536000D01*
X133338000Y-95396500D01*
X133340700Y-95165000D01*
X133329926Y-95055613D01*
X133298019Y-94950429D01*
X133246205Y-94853492D01*
X133176475Y-94768525D01*
X133091508Y-94698795D01*
X132994571Y-94646981D01*
X132889387Y-94615074D01*
X132780000Y-94604300D01*
X132423500Y-94607000D01*
X132284000Y-94746500D01*
X131876000Y-94746500D01*
X131736500Y-94607000D01*
X131380000Y-94604300D01*
X131270613Y-94615074D01*
X131165429Y-94646981D01*
X131068492Y-94698795D01*
X130983525Y-94768525D01*
X130913795Y-94853492D01*
X130861981Y-94950429D01*
X130830074Y-95055613D01*
X130819300Y-95165000D01*
X126970085Y-95165000D01*
X127032565Y-95071897D01*
X127098942Y-94899806D01*
X127002861Y-94724000D01*
X125934000Y-94724000D01*
X125934000Y-94744000D01*
X125526000Y-94744000D01*
X125526000Y-94724000D01*
X124457139Y-94724000D01*
X124361058Y-94899806D01*
X123565000Y-94899806D01*
X123565000Y-94140194D01*
X124361058Y-94140194D01*
X124457139Y-94316000D01*
X125526000Y-94316000D01*
X125526000Y-93495266D01*
X125934000Y-93495266D01*
X125934000Y-94316000D01*
X127002861Y-94316000D01*
X127098942Y-94140194D01*
X127032565Y-93968103D01*
X126905151Y-93778240D01*
X126743145Y-93616882D01*
X126552772Y-93490230D01*
X126341349Y-93403152D01*
X126117000Y-93358993D01*
X125934000Y-93495266D01*
X125526000Y-93495266D01*
X125343000Y-93358993D01*
X125118651Y-93403152D01*
X124907228Y-93490230D01*
X124716855Y-93616882D01*
X124554849Y-93778240D01*
X124427435Y-93968103D01*
X124361058Y-94140194D01*
X123565000Y-94140194D01*
X123565000Y-87330329D01*
X126175456Y-84719874D01*
X126195591Y-84744409D01*
X126271543Y-84806740D01*
X126358195Y-84853057D01*
X126452218Y-84881578D01*
X126549999Y-84891209D01*
X127450001Y-84891209D01*
X127547782Y-84881578D01*
X127641805Y-84853057D01*
X127728457Y-84806740D01*
X127804409Y-84744409D01*
X127866740Y-84668457D01*
X127913057Y-84581805D01*
X127941578Y-84487782D01*
X127951209Y-84390001D01*
X127951209Y-83739999D01*
X127941578Y-83642218D01*
X127913057Y-83548195D01*
X127866740Y-83461543D01*
X127804409Y-83385591D01*
X127728457Y-83323260D01*
X127641805Y-83276943D01*
X127547782Y-83248422D01*
X127450001Y-83238791D01*
X127375000Y-83238791D01*
X127375000Y-83112240D01*
X131226260Y-83112240D01*
X131332685Y-83345656D01*
X131615422Y-83465017D01*
X131916011Y-83526925D01*
X132222903Y-83529002D01*
X132524304Y-83471167D01*
X132808630Y-83355643D01*
X132827315Y-83345656D01*
X132933740Y-83112240D01*
X137726260Y-83112240D01*
X137832685Y-83345656D01*
X138115422Y-83465017D01*
X138416011Y-83526925D01*
X138722903Y-83529002D01*
X139024304Y-83471167D01*
X139308630Y-83355643D01*
X139327315Y-83345656D01*
X139433740Y-83112240D01*
X138580000Y-82258500D01*
X137726260Y-83112240D01*
X132933740Y-83112240D01*
X132080000Y-82258500D01*
X131226260Y-83112240D01*
X127375000Y-83112240D01*
X127375000Y-82112903D01*
X130520998Y-82112903D01*
X130578833Y-82414304D01*
X130694357Y-82698630D01*
X130704344Y-82717315D01*
X130937760Y-82823740D01*
X131791500Y-81970000D01*
X132368500Y-81970000D01*
X133222240Y-82823740D01*
X133455656Y-82717315D01*
X133575017Y-82434578D01*
X133636925Y-82133989D01*
X133637067Y-82112903D01*
X137020998Y-82112903D01*
X137078833Y-82414304D01*
X137194357Y-82698630D01*
X137204344Y-82717315D01*
X137437760Y-82823740D01*
X138291500Y-81970000D01*
X138868500Y-81970000D01*
X139722240Y-82823740D01*
X139955656Y-82717315D01*
X140075017Y-82434578D01*
X140136925Y-82133989D01*
X140139002Y-81827097D01*
X140081167Y-81525696D01*
X139965643Y-81241370D01*
X139955656Y-81222685D01*
X139722240Y-81116260D01*
X138868500Y-81970000D01*
X138291500Y-81970000D01*
X137437760Y-81116260D01*
X137204344Y-81222685D01*
X137084983Y-81505422D01*
X137023075Y-81806011D01*
X137020998Y-82112903D01*
X133637067Y-82112903D01*
X133639002Y-81827097D01*
X133581167Y-81525696D01*
X133465643Y-81241370D01*
X133455656Y-81222685D01*
X133222240Y-81116260D01*
X132368500Y-81970000D01*
X131791500Y-81970000D01*
X130937760Y-81116260D01*
X130704344Y-81222685D01*
X130584983Y-81505422D01*
X130523075Y-81806011D01*
X130520998Y-82112903D01*
X127375000Y-82112903D01*
X127375000Y-80827760D01*
X131226260Y-80827760D01*
X132080000Y-81681500D01*
X132933740Y-80827760D01*
X137726260Y-80827760D01*
X138580000Y-81681500D01*
X139433740Y-80827760D01*
X139327315Y-80594344D01*
X139044578Y-80474983D01*
X138743989Y-80413075D01*
X138437097Y-80410998D01*
X138135696Y-80468833D01*
X137851370Y-80584357D01*
X137832685Y-80594344D01*
X137726260Y-80827760D01*
X132933740Y-80827760D01*
X132827315Y-80594344D01*
X132544578Y-80474983D01*
X132243989Y-80413075D01*
X131937097Y-80410998D01*
X131635696Y-80468833D01*
X131351370Y-80584357D01*
X131332685Y-80594344D01*
X131226260Y-80827760D01*
X127375000Y-80827760D01*
X127375000Y-80165329D01*
X129695330Y-77845000D01*
X130882340Y-77845000D01*
X130972265Y-78062097D01*
X131109062Y-78266828D01*
X131283172Y-78440938D01*
X131487903Y-78577735D01*
X131715389Y-78671963D01*
X131956886Y-78720000D01*
X132203114Y-78720000D01*
X132444611Y-78671963D01*
X132672097Y-78577735D01*
X132876828Y-78440938D01*
X133050938Y-78266828D01*
X133187735Y-78062097D01*
X133277660Y-77845000D01*
X137382340Y-77845000D01*
X137472265Y-78062097D01*
X137609062Y-78266828D01*
X137783172Y-78440938D01*
X137987903Y-78577735D01*
X138215389Y-78671963D01*
X138456886Y-78720000D01*
X138703114Y-78720000D01*
X138944611Y-78671963D01*
X139172097Y-78577735D01*
X139376828Y-78440938D01*
X139550938Y-78266828D01*
X139687735Y-78062097D01*
X139781963Y-77834611D01*
X139830000Y-77593114D01*
X139830000Y-77346886D01*
X139781963Y-77105389D01*
X139687735Y-76877903D01*
X139550938Y-76673172D01*
X139376828Y-76499062D01*
X139172097Y-76362265D01*
X138944611Y-76268037D01*
X138703114Y-76220000D01*
X138456886Y-76220000D01*
X138215389Y-76268037D01*
X137987903Y-76362265D01*
X137783172Y-76499062D01*
X137609062Y-76673172D01*
X137472265Y-76877903D01*
X137382340Y-77095000D01*
X133277660Y-77095000D01*
X133187735Y-76877903D01*
X133050938Y-76673172D01*
X132876828Y-76499062D01*
X132672097Y-76362265D01*
X132444611Y-76268037D01*
X132203114Y-76220000D01*
X131956886Y-76220000D01*
X131715389Y-76268037D01*
X131487903Y-76362265D01*
X131283172Y-76499062D01*
X131109062Y-76673172D01*
X130972265Y-76877903D01*
X130882340Y-77095000D01*
X129558415Y-77095000D01*
X129539999Y-77093186D01*
X129521583Y-77095000D01*
X129521581Y-77095000D01*
X129466487Y-77100426D01*
X129395800Y-77121869D01*
X129395798Y-77121870D01*
X129330652Y-77156691D01*
X129303766Y-77178757D01*
X129273552Y-77203552D01*
X129261809Y-77217861D01*
X126747862Y-79731809D01*
X126733553Y-79743552D01*
X126721811Y-79757860D01*
X126686691Y-79800654D01*
X126651870Y-79865800D01*
X126630427Y-79936488D01*
X126623186Y-80010000D01*
X126625001Y-80028426D01*
X126625000Y-83238791D01*
X126549999Y-83238791D01*
X126452218Y-83248422D01*
X126358195Y-83276943D01*
X126271543Y-83323260D01*
X126195591Y-83385591D01*
X126133260Y-83461543D01*
X126086943Y-83548195D01*
X126058422Y-83642218D01*
X126048791Y-83739999D01*
X126048791Y-83786046D01*
X126033552Y-83798552D01*
X126021809Y-83812861D01*
X122937866Y-86896805D01*
X122923552Y-86908552D01*
X122876691Y-86965654D01*
X122841869Y-87030801D01*
X122820426Y-87101488D01*
X122815000Y-87156581D01*
X122813186Y-87175000D01*
X122095000Y-87175000D01*
X122095000Y-75105000D01*
X149685000Y-75105000D01*
X149685001Y-119205000D01*
M02*
