M48
; DRILL file {KiCad 5.1.5+dfsg1-2build2} date Fri 19 Mar 2021 02:08:47 PM EDT
; FORMAT={-:-/ absolute / metric / decimal}
; #@! TF.CreationDate,2021-03-19T14:08:47-04:00
; #@! TF.GenerationSoftware,Kicad,Pcbnew,5.1.5+dfsg1-2build2
; #@! TF.FileFunction,Plated,1,2,PTH
FMAT,2
METRIC
T1C0.750
T2C1.000
T3C1.100
%
G90
G05
T1
X125.73Y-94.52
X125.73Y-96.52
T2
X133.35Y-114.3
X133.35Y-116.84
X135.89Y-114.3
X135.89Y-116.84
X138.43Y-114.3
X138.43Y-116.84
X144.78Y-105.41
X144.78Y-107.95
X144.78Y-110.49
X144.78Y-113.03
X144.78Y-115.57
X125.73Y-105.41
X125.73Y-107.95
X125.73Y-110.49
X125.73Y-113.03
X125.73Y-115.57
T3
X132.08Y-77.47
X132.08Y-81.97
X138.58Y-77.47
X138.58Y-81.97
T0
M30
