G04 #@! TF.GenerationSoftware,KiCad,Pcbnew,5.1.5+dfsg1-2build2*
G04 #@! TF.CreationDate,2021-03-19T14:08:30-04:00*
G04 #@! TF.ProjectId,hawk,6861776b-2e6b-4696-9361-645f70636258,rev?*
G04 #@! TF.SameCoordinates,Original*
G04 #@! TF.FileFunction,Legend,Top*
G04 #@! TF.FilePolarity,Positive*
%FSLAX46Y46*%
G04 Gerber Fmt 4.6, Leading zero omitted, Abs format (unit mm)*
G04 Created by KiCad (PCBNEW 5.1.5+dfsg1-2build2) date 2021-03-19 14:08:30*
%MOMM*%
%LPD*%
G04 APERTURE LIST*
%ADD10C,0.150000*%
%ADD11C,0.120000*%
G04 APERTURE END LIST*
D10*
X141851428Y-77922380D02*
X141851428Y-76922380D01*
X142184761Y-77636666D01*
X142518095Y-76922380D01*
X142518095Y-77922380D01*
X142994285Y-77922380D02*
X142994285Y-77255714D01*
X142994285Y-77446190D02*
X143041904Y-77350952D01*
X143089523Y-77303333D01*
X143184761Y-77255714D01*
X143280000Y-77255714D01*
X143613333Y-77827142D02*
X143660952Y-77874761D01*
X143613333Y-77922380D01*
X143565714Y-77874761D01*
X143613333Y-77827142D01*
X143613333Y-77922380D01*
X144851428Y-77922380D02*
X144851428Y-76922380D01*
X145232380Y-76922380D01*
X145327619Y-76970000D01*
X145375238Y-77017619D01*
X145422857Y-77112857D01*
X145422857Y-77255714D01*
X145375238Y-77350952D01*
X145327619Y-77398571D01*
X145232380Y-77446190D01*
X144851428Y-77446190D01*
X146280000Y-77922380D02*
X146280000Y-77398571D01*
X146232380Y-77303333D01*
X146137142Y-77255714D01*
X145946666Y-77255714D01*
X145851428Y-77303333D01*
X146280000Y-77874761D02*
X146184761Y-77922380D01*
X145946666Y-77922380D01*
X145851428Y-77874761D01*
X145803809Y-77779523D01*
X145803809Y-77684285D01*
X145851428Y-77589047D01*
X145946666Y-77541428D01*
X146184761Y-77541428D01*
X146280000Y-77493809D01*
X147184761Y-77255714D02*
X147184761Y-77922380D01*
X146756190Y-77255714D02*
X146756190Y-77779523D01*
X146803809Y-77874761D01*
X146899047Y-77922380D01*
X147041904Y-77922380D01*
X147137142Y-77874761D01*
X147184761Y-77827142D01*
X147803809Y-77922380D02*
X147708571Y-77874761D01*
X147660952Y-77779523D01*
X147660952Y-76922380D01*
X141113333Y-76652380D02*
X141113333Y-75652380D01*
X141113333Y-76128571D02*
X141684761Y-76128571D01*
X141684761Y-76652380D02*
X141684761Y-75652380D01*
X142113333Y-76366666D02*
X142589523Y-76366666D01*
X142018095Y-76652380D02*
X142351428Y-75652380D01*
X142684761Y-76652380D01*
X142922857Y-75652380D02*
X143160952Y-76652380D01*
X143351428Y-75938095D01*
X143541904Y-76652380D01*
X143780000Y-75652380D01*
X144160952Y-76652380D02*
X144160952Y-75652380D01*
X144732380Y-76652380D02*
X144303809Y-76080952D01*
X144732380Y-75652380D02*
X144160952Y-76223809D01*
X145922857Y-76652380D02*
X145922857Y-75652380D01*
X146303809Y-75652380D01*
X146399047Y-75700000D01*
X146446666Y-75747619D01*
X146494285Y-75842857D01*
X146494285Y-75985714D01*
X146446666Y-76080952D01*
X146399047Y-76128571D01*
X146303809Y-76176190D01*
X145922857Y-76176190D01*
X147494285Y-76557142D02*
X147446666Y-76604761D01*
X147303809Y-76652380D01*
X147208571Y-76652380D01*
X147065714Y-76604761D01*
X146970476Y-76509523D01*
X146922857Y-76414285D01*
X146875238Y-76223809D01*
X146875238Y-76080952D01*
X146922857Y-75890476D01*
X146970476Y-75795238D01*
X147065714Y-75700000D01*
X147208571Y-75652380D01*
X147303809Y-75652380D01*
X147446666Y-75700000D01*
X147494285Y-75747619D01*
X148256190Y-76128571D02*
X148399047Y-76176190D01*
X148446666Y-76223809D01*
X148494285Y-76319047D01*
X148494285Y-76461904D01*
X148446666Y-76557142D01*
X148399047Y-76604761D01*
X148303809Y-76652380D01*
X147922857Y-76652380D01*
X147922857Y-75652380D01*
X148256190Y-75652380D01*
X148351428Y-75700000D01*
X148399047Y-75747619D01*
X148446666Y-75842857D01*
X148446666Y-75938095D01*
X148399047Y-76033333D01*
X148351428Y-76080952D01*
X148256190Y-76128571D01*
X147922857Y-76128571D01*
D11*
X133910000Y-89161252D02*
X133910000Y-88638748D01*
X135330000Y-89161252D02*
X135330000Y-88638748D01*
X131370000Y-97026252D02*
X131370000Y-96503748D01*
X132790000Y-97026252D02*
X132790000Y-96503748D01*
X139140000Y-89161252D02*
X139140000Y-88638748D01*
X137720000Y-89161252D02*
X137720000Y-88638748D01*
X141930000Y-99815000D02*
X141930000Y-96955000D01*
X141930000Y-96955000D02*
X140010000Y-96955000D01*
X140010000Y-96955000D02*
X140010000Y-99815000D01*
X124400000Y-116900000D02*
X127060000Y-116900000D01*
X124400000Y-106680000D02*
X124400000Y-116900000D01*
X127060000Y-106680000D02*
X127060000Y-116900000D01*
X124400000Y-106680000D02*
X127060000Y-106680000D01*
X124400000Y-105410000D02*
X124400000Y-104080000D01*
X124400000Y-104080000D02*
X125730000Y-104080000D01*
X146110000Y-116900000D02*
X144780000Y-116900000D01*
X146110000Y-115570000D02*
X146110000Y-116900000D01*
X146110000Y-114300000D02*
X143450000Y-114300000D01*
X143450000Y-114300000D02*
X143450000Y-104080000D01*
X146110000Y-114300000D02*
X146110000Y-104080000D01*
X146110000Y-104080000D02*
X143450000Y-104080000D01*
X132020000Y-112970000D02*
X132020000Y-118170000D01*
X137160000Y-112970000D02*
X132020000Y-112970000D01*
X139760000Y-118170000D02*
X132020000Y-118170000D01*
X137160000Y-112970000D02*
X137160000Y-115570000D01*
X137160000Y-115570000D02*
X139760000Y-115570000D01*
X139760000Y-115570000D02*
X139760000Y-118170000D01*
X138430000Y-112970000D02*
X139760000Y-112970000D01*
X139760000Y-112970000D02*
X139760000Y-114300000D01*
X123920000Y-98580000D02*
X128640000Y-98580000D01*
X128640000Y-98580000D02*
X128640000Y-92460000D01*
X128640000Y-92460000D02*
X123920000Y-92460000D01*
X123920000Y-92460000D02*
X123920000Y-98580000D01*
X123920000Y-96820000D02*
X123720000Y-96820000D01*
X123720000Y-96820000D02*
X123720000Y-97120000D01*
X123720000Y-97120000D02*
X123920000Y-97120000D01*
X123820000Y-96820000D02*
X123820000Y-97120000D01*
X123920000Y-96020000D02*
X124530000Y-96020000D01*
X124530000Y-96020000D02*
X124530000Y-97970000D01*
X124530000Y-97970000D02*
X128030000Y-97970000D01*
X128030000Y-97970000D02*
X128030000Y-93070000D01*
X128030000Y-93070000D02*
X124530000Y-93070000D01*
X124530000Y-93070000D02*
X124530000Y-95020000D01*
X124530000Y-95020000D02*
X123920000Y-95020000D01*
X125230000Y-98580000D02*
X125230000Y-97970000D01*
X126530000Y-98580000D02*
X126530000Y-97970000D01*
X125230000Y-92460000D02*
X125230000Y-93070000D01*
X126530000Y-92460000D02*
X126530000Y-93070000D01*
X128030000Y-95620000D02*
X127530000Y-95620000D01*
X127530000Y-95620000D02*
X127530000Y-95420000D01*
X127530000Y-95420000D02*
X128030000Y-95420000D01*
X128030000Y-95520000D02*
X127530000Y-95520000D01*
X123620000Y-97630000D02*
X123620000Y-98880000D01*
X123620000Y-98880000D02*
X124870000Y-98880000D01*
X126290000Y-85351252D02*
X126290000Y-84828748D01*
X127710000Y-85351252D02*
X127710000Y-84828748D01*
X144220000Y-99076252D02*
X144220000Y-98553748D01*
X142800000Y-99076252D02*
X142800000Y-98553748D01*
X136600000Y-97528748D02*
X136600000Y-98051252D01*
X135180000Y-97528748D02*
X135180000Y-98051252D01*
X133080000Y-82970000D02*
X137580000Y-82970000D01*
X131830000Y-78970000D02*
X131830000Y-80470000D01*
X137580000Y-76470000D02*
X133080000Y-76470000D01*
X138830000Y-80470000D02*
X138830000Y-78970000D01*
X135890000Y-111115000D02*
X137840000Y-111115000D01*
X135890000Y-111115000D02*
X133940000Y-111115000D01*
X135890000Y-102245000D02*
X137840000Y-102245000D01*
X135890000Y-102245000D02*
X132440000Y-102245000D01*
X144020000Y-87320000D02*
X144020000Y-88250000D01*
X144020000Y-90480000D02*
X144020000Y-89550000D01*
X144020000Y-90480000D02*
X146180000Y-90480000D01*
X144020000Y-87320000D02*
X145480000Y-87320000D01*
D10*
X134453333Y-86717142D02*
X134405714Y-86764761D01*
X134262857Y-86812380D01*
X134167619Y-86812380D01*
X134024761Y-86764761D01*
X133929523Y-86669523D01*
X133881904Y-86574285D01*
X133834285Y-86383809D01*
X133834285Y-86240952D01*
X133881904Y-86050476D01*
X133929523Y-85955238D01*
X134024761Y-85860000D01*
X134167619Y-85812380D01*
X134262857Y-85812380D01*
X134405714Y-85860000D01*
X134453333Y-85907619D01*
X135405714Y-86812380D02*
X134834285Y-86812380D01*
X135120000Y-86812380D02*
X135120000Y-85812380D01*
X135024761Y-85955238D01*
X134929523Y-86050476D01*
X134834285Y-86098095D01*
X131913333Y-94337142D02*
X131865714Y-94384761D01*
X131722857Y-94432380D01*
X131627619Y-94432380D01*
X131484761Y-94384761D01*
X131389523Y-94289523D01*
X131341904Y-94194285D01*
X131294285Y-94003809D01*
X131294285Y-93860952D01*
X131341904Y-93670476D01*
X131389523Y-93575238D01*
X131484761Y-93480000D01*
X131627619Y-93432380D01*
X131722857Y-93432380D01*
X131865714Y-93480000D01*
X131913333Y-93527619D01*
X132294285Y-93527619D02*
X132341904Y-93480000D01*
X132437142Y-93432380D01*
X132675238Y-93432380D01*
X132770476Y-93480000D01*
X132818095Y-93527619D01*
X132865714Y-93622857D01*
X132865714Y-93718095D01*
X132818095Y-93860952D01*
X132246666Y-94432380D01*
X132865714Y-94432380D01*
X138263333Y-86717142D02*
X138215714Y-86764761D01*
X138072857Y-86812380D01*
X137977619Y-86812380D01*
X137834761Y-86764761D01*
X137739523Y-86669523D01*
X137691904Y-86574285D01*
X137644285Y-86383809D01*
X137644285Y-86240952D01*
X137691904Y-86050476D01*
X137739523Y-85955238D01*
X137834761Y-85860000D01*
X137977619Y-85812380D01*
X138072857Y-85812380D01*
X138215714Y-85860000D01*
X138263333Y-85907619D01*
X138596666Y-85812380D02*
X139215714Y-85812380D01*
X138882380Y-86193333D01*
X139025238Y-86193333D01*
X139120476Y-86240952D01*
X139168095Y-86288571D01*
X139215714Y-86383809D01*
X139215714Y-86621904D01*
X139168095Y-86717142D01*
X139120476Y-86764761D01*
X139025238Y-86812380D01*
X138739523Y-86812380D01*
X138644285Y-86764761D01*
X138596666Y-86717142D01*
X142771904Y-102052380D02*
X142771904Y-101052380D01*
X143010000Y-101052380D01*
X143152857Y-101100000D01*
X143248095Y-101195238D01*
X143295714Y-101290476D01*
X143343333Y-101480952D01*
X143343333Y-101623809D01*
X143295714Y-101814285D01*
X143248095Y-101909523D01*
X143152857Y-102004761D01*
X143010000Y-102052380D01*
X142771904Y-102052380D01*
X144295714Y-102052380D02*
X143724285Y-102052380D01*
X144010000Y-102052380D02*
X144010000Y-101052380D01*
X143914761Y-101195238D01*
X143819523Y-101290476D01*
X143724285Y-101338095D01*
X127936666Y-115022380D02*
X127936666Y-115736666D01*
X127889047Y-115879523D01*
X127793809Y-115974761D01*
X127650952Y-116022380D01*
X127555714Y-116022380D01*
X128936666Y-116022380D02*
X128365238Y-116022380D01*
X128650952Y-116022380D02*
X128650952Y-115022380D01*
X128555714Y-115165238D01*
X128460476Y-115260476D01*
X128365238Y-115308095D01*
X146986666Y-104862380D02*
X146986666Y-105576666D01*
X146939047Y-105719523D01*
X146843809Y-105814761D01*
X146700952Y-105862380D01*
X146605714Y-105862380D01*
X147415238Y-104957619D02*
X147462857Y-104910000D01*
X147558095Y-104862380D01*
X147796190Y-104862380D01*
X147891428Y-104910000D01*
X147939047Y-104957619D01*
X147986666Y-105052857D01*
X147986666Y-105148095D01*
X147939047Y-105290952D01*
X147367619Y-105862380D01*
X147986666Y-105862380D01*
X140426666Y-113752380D02*
X140426666Y-114466666D01*
X140379047Y-114609523D01*
X140283809Y-114704761D01*
X140140952Y-114752380D01*
X140045714Y-114752380D01*
X140807619Y-113752380D02*
X141426666Y-113752380D01*
X141093333Y-114133333D01*
X141236190Y-114133333D01*
X141331428Y-114180952D01*
X141379047Y-114228571D01*
X141426666Y-114323809D01*
X141426666Y-114561904D01*
X141379047Y-114657142D01*
X141331428Y-114704761D01*
X141236190Y-114752380D01*
X140950476Y-114752380D01*
X140855238Y-114704761D01*
X140807619Y-114657142D01*
X125396666Y-99782380D02*
X125396666Y-100496666D01*
X125349047Y-100639523D01*
X125253809Y-100734761D01*
X125110952Y-100782380D01*
X125015714Y-100782380D01*
X126301428Y-100115714D02*
X126301428Y-100782380D01*
X126063333Y-99734761D02*
X125825238Y-100449047D01*
X126444285Y-100449047D01*
X126833333Y-88082380D02*
X126500000Y-87606190D01*
X126261904Y-88082380D02*
X126261904Y-87082380D01*
X126642857Y-87082380D01*
X126738095Y-87130000D01*
X126785714Y-87177619D01*
X126833333Y-87272857D01*
X126833333Y-87415714D01*
X126785714Y-87510952D01*
X126738095Y-87558571D01*
X126642857Y-87606190D01*
X126261904Y-87606190D01*
X127785714Y-88082380D02*
X127214285Y-88082380D01*
X127500000Y-88082380D02*
X127500000Y-87082380D01*
X127404761Y-87225238D01*
X127309523Y-87320476D01*
X127214285Y-87368095D01*
X140803333Y-102052380D02*
X140470000Y-101576190D01*
X140231904Y-102052380D02*
X140231904Y-101052380D01*
X140612857Y-101052380D01*
X140708095Y-101100000D01*
X140755714Y-101147619D01*
X140803333Y-101242857D01*
X140803333Y-101385714D01*
X140755714Y-101480952D01*
X140708095Y-101528571D01*
X140612857Y-101576190D01*
X140231904Y-101576190D01*
X141184285Y-101147619D02*
X141231904Y-101100000D01*
X141327142Y-101052380D01*
X141565238Y-101052380D01*
X141660476Y-101100000D01*
X141708095Y-101147619D01*
X141755714Y-101242857D01*
X141755714Y-101338095D01*
X141708095Y-101480952D01*
X141136666Y-102052380D01*
X141755714Y-102052380D01*
X136993333Y-95702380D02*
X136660000Y-95226190D01*
X136421904Y-95702380D02*
X136421904Y-94702380D01*
X136802857Y-94702380D01*
X136898095Y-94750000D01*
X136945714Y-94797619D01*
X136993333Y-94892857D01*
X136993333Y-95035714D01*
X136945714Y-95130952D01*
X136898095Y-95178571D01*
X136802857Y-95226190D01*
X136421904Y-95226190D01*
X137326666Y-94702380D02*
X137945714Y-94702380D01*
X137612380Y-95083333D01*
X137755238Y-95083333D01*
X137850476Y-95130952D01*
X137898095Y-95178571D01*
X137945714Y-95273809D01*
X137945714Y-95511904D01*
X137898095Y-95607142D01*
X137850476Y-95654761D01*
X137755238Y-95702380D01*
X137469523Y-95702380D01*
X137374285Y-95654761D01*
X137326666Y-95607142D01*
X126936666Y-76604761D02*
X127079523Y-76652380D01*
X127317619Y-76652380D01*
X127412857Y-76604761D01*
X127460476Y-76557142D01*
X127508095Y-76461904D01*
X127508095Y-76366666D01*
X127460476Y-76271428D01*
X127412857Y-76223809D01*
X127317619Y-76176190D01*
X127127142Y-76128571D01*
X127031904Y-76080952D01*
X126984285Y-76033333D01*
X126936666Y-75938095D01*
X126936666Y-75842857D01*
X126984285Y-75747619D01*
X127031904Y-75700000D01*
X127127142Y-75652380D01*
X127365238Y-75652380D01*
X127508095Y-75700000D01*
X127841428Y-75652380D02*
X128079523Y-76652380D01*
X128270000Y-75938095D01*
X128460476Y-76652380D01*
X128698571Y-75652380D01*
X129603333Y-76652380D02*
X129031904Y-76652380D01*
X129317619Y-76652380D02*
X129317619Y-75652380D01*
X129222380Y-75795238D01*
X129127142Y-75890476D01*
X129031904Y-75938095D01*
X135128095Y-111212380D02*
X135128095Y-112021904D01*
X135175714Y-112117142D01*
X135223333Y-112164761D01*
X135318571Y-112212380D01*
X135509047Y-112212380D01*
X135604285Y-112164761D01*
X135651904Y-112117142D01*
X135699523Y-112021904D01*
X135699523Y-111212380D01*
X136699523Y-112212380D02*
X136128095Y-112212380D01*
X136413809Y-112212380D02*
X136413809Y-111212380D01*
X136318571Y-111355238D01*
X136223333Y-111450476D01*
X136128095Y-111498095D01*
X145288095Y-84542380D02*
X145288095Y-85351904D01*
X145335714Y-85447142D01*
X145383333Y-85494761D01*
X145478571Y-85542380D01*
X145669047Y-85542380D01*
X145764285Y-85494761D01*
X145811904Y-85447142D01*
X145859523Y-85351904D01*
X145859523Y-84542380D01*
X146288095Y-84637619D02*
X146335714Y-84590000D01*
X146430952Y-84542380D01*
X146669047Y-84542380D01*
X146764285Y-84590000D01*
X146811904Y-84637619D01*
X146859523Y-84732857D01*
X146859523Y-84828095D01*
X146811904Y-84970952D01*
X146240476Y-85542380D01*
X146859523Y-85542380D01*
M02*
