G04 #@! TF.GenerationSoftware,KiCad,Pcbnew,5.1.5+dfsg1-2build2*
G04 #@! TF.CreationDate,2021-03-19T14:08:30-04:00*
G04 #@! TF.ProjectId,hawk,6861776b-2e6b-4696-9361-645f70636258,rev?*
G04 #@! TF.SameCoordinates,Original*
G04 #@! TF.FileFunction,Copper,L2,Bot*
G04 #@! TF.FilePolarity,Positive*
%FSLAX46Y46*%
G04 Gerber Fmt 4.6, Leading zero omitted, Abs format (unit mm)*
G04 Created by KiCad (PCBNEW 5.1.5+dfsg1-2build2) date 2021-03-19 14:08:30*
%MOMM*%
%LPD*%
G04 APERTURE LIST*
%ADD10R,1.700000X1.700000*%
%ADD11O,1.700000X1.700000*%
%ADD12C,0.100000*%
%ADD13O,1.750000X1.200000*%
%ADD14C,2.000000*%
G04 APERTURE END LIST*
D10*
X125730000Y-105410000D03*
D11*
X125730000Y-107950000D03*
X125730000Y-110490000D03*
X125730000Y-113030000D03*
X125730000Y-115570000D03*
X144780000Y-105410000D03*
X144780000Y-107950000D03*
X144780000Y-110490000D03*
X144780000Y-113030000D03*
D10*
X144780000Y-115570000D03*
X138430000Y-114300000D03*
D11*
X138430000Y-116840000D03*
X135890000Y-114300000D03*
X135890000Y-116840000D03*
X133350000Y-114300000D03*
X133350000Y-116840000D03*
G04 #@! TA.AperFunction,ComponentPad*
D12*
G36*
X126379505Y-95921204D02*
G01*
X126403773Y-95924804D01*
X126427572Y-95930765D01*
X126450671Y-95939030D01*
X126472850Y-95949520D01*
X126493893Y-95962132D01*
X126513599Y-95976747D01*
X126531777Y-95993223D01*
X126548253Y-96011401D01*
X126562868Y-96031107D01*
X126575480Y-96052150D01*
X126585970Y-96074329D01*
X126594235Y-96097428D01*
X126600196Y-96121227D01*
X126603796Y-96145495D01*
X126605000Y-96169999D01*
X126605000Y-96870001D01*
X126603796Y-96894505D01*
X126600196Y-96918773D01*
X126594235Y-96942572D01*
X126585970Y-96965671D01*
X126575480Y-96987850D01*
X126562868Y-97008893D01*
X126548253Y-97028599D01*
X126531777Y-97046777D01*
X126513599Y-97063253D01*
X126493893Y-97077868D01*
X126472850Y-97090480D01*
X126450671Y-97100970D01*
X126427572Y-97109235D01*
X126403773Y-97115196D01*
X126379505Y-97118796D01*
X126355001Y-97120000D01*
X125104999Y-97120000D01*
X125080495Y-97118796D01*
X125056227Y-97115196D01*
X125032428Y-97109235D01*
X125009329Y-97100970D01*
X124987150Y-97090480D01*
X124966107Y-97077868D01*
X124946401Y-97063253D01*
X124928223Y-97046777D01*
X124911747Y-97028599D01*
X124897132Y-97008893D01*
X124884520Y-96987850D01*
X124874030Y-96965671D01*
X124865765Y-96942572D01*
X124859804Y-96918773D01*
X124856204Y-96894505D01*
X124855000Y-96870001D01*
X124855000Y-96169999D01*
X124856204Y-96145495D01*
X124859804Y-96121227D01*
X124865765Y-96097428D01*
X124874030Y-96074329D01*
X124884520Y-96052150D01*
X124897132Y-96031107D01*
X124911747Y-96011401D01*
X124928223Y-95993223D01*
X124946401Y-95976747D01*
X124966107Y-95962132D01*
X124987150Y-95949520D01*
X125009329Y-95939030D01*
X125032428Y-95930765D01*
X125056227Y-95924804D01*
X125080495Y-95921204D01*
X125104999Y-95920000D01*
X126355001Y-95920000D01*
X126379505Y-95921204D01*
G37*
G04 #@! TD.AperFunction*
D13*
X125730000Y-94520000D03*
D14*
X132080000Y-81970000D03*
X132080000Y-77470000D03*
X138580000Y-81970000D03*
X138580000Y-77470000D03*
M02*
