G04 #@! TF.GenerationSoftware,KiCad,Pcbnew,5.1.5+dfsg1-2build2*
G04 #@! TF.CreationDate,2021-03-19T14:08:30-04:00*
G04 #@! TF.ProjectId,hawk,6861776b-2e6b-4696-9361-645f70636258,rev?*
G04 #@! TF.SameCoordinates,Original*
G04 #@! TF.FileFunction,Paste,Top*
G04 #@! TF.FilePolarity,Positive*
%FSLAX46Y46*%
G04 Gerber Fmt 4.6, Leading zero omitted, Abs format (unit mm)*
G04 Created by KiCad (PCBNEW 5.1.5+dfsg1-2build2) date 2021-03-19 14:08:30*
%MOMM*%
%LPD*%
G04 APERTURE LIST*
%ADD10C,0.100000*%
%ADD11R,0.900000X0.800000*%
G04 APERTURE END LIST*
D10*
G36*
X135094505Y-89351204D02*
G01*
X135118773Y-89354804D01*
X135142572Y-89360765D01*
X135165671Y-89369030D01*
X135187850Y-89379520D01*
X135208893Y-89392132D01*
X135228599Y-89406747D01*
X135246777Y-89423223D01*
X135263253Y-89441401D01*
X135277868Y-89461107D01*
X135290480Y-89482150D01*
X135300970Y-89504329D01*
X135309235Y-89527428D01*
X135315196Y-89551227D01*
X135318796Y-89575495D01*
X135320000Y-89599999D01*
X135320000Y-90250001D01*
X135318796Y-90274505D01*
X135315196Y-90298773D01*
X135309235Y-90322572D01*
X135300970Y-90345671D01*
X135290480Y-90367850D01*
X135277868Y-90388893D01*
X135263253Y-90408599D01*
X135246777Y-90426777D01*
X135228599Y-90443253D01*
X135208893Y-90457868D01*
X135187850Y-90470480D01*
X135165671Y-90480970D01*
X135142572Y-90489235D01*
X135118773Y-90495196D01*
X135094505Y-90498796D01*
X135070001Y-90500000D01*
X134169999Y-90500000D01*
X134145495Y-90498796D01*
X134121227Y-90495196D01*
X134097428Y-90489235D01*
X134074329Y-90480970D01*
X134052150Y-90470480D01*
X134031107Y-90457868D01*
X134011401Y-90443253D01*
X133993223Y-90426777D01*
X133976747Y-90408599D01*
X133962132Y-90388893D01*
X133949520Y-90367850D01*
X133939030Y-90345671D01*
X133930765Y-90322572D01*
X133924804Y-90298773D01*
X133921204Y-90274505D01*
X133920000Y-90250001D01*
X133920000Y-89599999D01*
X133921204Y-89575495D01*
X133924804Y-89551227D01*
X133930765Y-89527428D01*
X133939030Y-89504329D01*
X133949520Y-89482150D01*
X133962132Y-89461107D01*
X133976747Y-89441401D01*
X133993223Y-89423223D01*
X134011401Y-89406747D01*
X134031107Y-89392132D01*
X134052150Y-89379520D01*
X134074329Y-89369030D01*
X134097428Y-89360765D01*
X134121227Y-89354804D01*
X134145495Y-89351204D01*
X134169999Y-89350000D01*
X135070001Y-89350000D01*
X135094505Y-89351204D01*
G37*
G36*
X135094505Y-87301204D02*
G01*
X135118773Y-87304804D01*
X135142572Y-87310765D01*
X135165671Y-87319030D01*
X135187850Y-87329520D01*
X135208893Y-87342132D01*
X135228599Y-87356747D01*
X135246777Y-87373223D01*
X135263253Y-87391401D01*
X135277868Y-87411107D01*
X135290480Y-87432150D01*
X135300970Y-87454329D01*
X135309235Y-87477428D01*
X135315196Y-87501227D01*
X135318796Y-87525495D01*
X135320000Y-87549999D01*
X135320000Y-88200001D01*
X135318796Y-88224505D01*
X135315196Y-88248773D01*
X135309235Y-88272572D01*
X135300970Y-88295671D01*
X135290480Y-88317850D01*
X135277868Y-88338893D01*
X135263253Y-88358599D01*
X135246777Y-88376777D01*
X135228599Y-88393253D01*
X135208893Y-88407868D01*
X135187850Y-88420480D01*
X135165671Y-88430970D01*
X135142572Y-88439235D01*
X135118773Y-88445196D01*
X135094505Y-88448796D01*
X135070001Y-88450000D01*
X134169999Y-88450000D01*
X134145495Y-88448796D01*
X134121227Y-88445196D01*
X134097428Y-88439235D01*
X134074329Y-88430970D01*
X134052150Y-88420480D01*
X134031107Y-88407868D01*
X134011401Y-88393253D01*
X133993223Y-88376777D01*
X133976747Y-88358599D01*
X133962132Y-88338893D01*
X133949520Y-88317850D01*
X133939030Y-88295671D01*
X133930765Y-88272572D01*
X133924804Y-88248773D01*
X133921204Y-88224505D01*
X133920000Y-88200001D01*
X133920000Y-87549999D01*
X133921204Y-87525495D01*
X133924804Y-87501227D01*
X133930765Y-87477428D01*
X133939030Y-87454329D01*
X133949520Y-87432150D01*
X133962132Y-87411107D01*
X133976747Y-87391401D01*
X133993223Y-87373223D01*
X134011401Y-87356747D01*
X134031107Y-87342132D01*
X134052150Y-87329520D01*
X134074329Y-87319030D01*
X134097428Y-87310765D01*
X134121227Y-87304804D01*
X134145495Y-87301204D01*
X134169999Y-87300000D01*
X135070001Y-87300000D01*
X135094505Y-87301204D01*
G37*
G36*
X132554505Y-97216204D02*
G01*
X132578773Y-97219804D01*
X132602572Y-97225765D01*
X132625671Y-97234030D01*
X132647850Y-97244520D01*
X132668893Y-97257132D01*
X132688599Y-97271747D01*
X132706777Y-97288223D01*
X132723253Y-97306401D01*
X132737868Y-97326107D01*
X132750480Y-97347150D01*
X132760970Y-97369329D01*
X132769235Y-97392428D01*
X132775196Y-97416227D01*
X132778796Y-97440495D01*
X132780000Y-97464999D01*
X132780000Y-98115001D01*
X132778796Y-98139505D01*
X132775196Y-98163773D01*
X132769235Y-98187572D01*
X132760970Y-98210671D01*
X132750480Y-98232850D01*
X132737868Y-98253893D01*
X132723253Y-98273599D01*
X132706777Y-98291777D01*
X132688599Y-98308253D01*
X132668893Y-98322868D01*
X132647850Y-98335480D01*
X132625671Y-98345970D01*
X132602572Y-98354235D01*
X132578773Y-98360196D01*
X132554505Y-98363796D01*
X132530001Y-98365000D01*
X131629999Y-98365000D01*
X131605495Y-98363796D01*
X131581227Y-98360196D01*
X131557428Y-98354235D01*
X131534329Y-98345970D01*
X131512150Y-98335480D01*
X131491107Y-98322868D01*
X131471401Y-98308253D01*
X131453223Y-98291777D01*
X131436747Y-98273599D01*
X131422132Y-98253893D01*
X131409520Y-98232850D01*
X131399030Y-98210671D01*
X131390765Y-98187572D01*
X131384804Y-98163773D01*
X131381204Y-98139505D01*
X131380000Y-98115001D01*
X131380000Y-97464999D01*
X131381204Y-97440495D01*
X131384804Y-97416227D01*
X131390765Y-97392428D01*
X131399030Y-97369329D01*
X131409520Y-97347150D01*
X131422132Y-97326107D01*
X131436747Y-97306401D01*
X131453223Y-97288223D01*
X131471401Y-97271747D01*
X131491107Y-97257132D01*
X131512150Y-97244520D01*
X131534329Y-97234030D01*
X131557428Y-97225765D01*
X131581227Y-97219804D01*
X131605495Y-97216204D01*
X131629999Y-97215000D01*
X132530001Y-97215000D01*
X132554505Y-97216204D01*
G37*
G36*
X132554505Y-95166204D02*
G01*
X132578773Y-95169804D01*
X132602572Y-95175765D01*
X132625671Y-95184030D01*
X132647850Y-95194520D01*
X132668893Y-95207132D01*
X132688599Y-95221747D01*
X132706777Y-95238223D01*
X132723253Y-95256401D01*
X132737868Y-95276107D01*
X132750480Y-95297150D01*
X132760970Y-95319329D01*
X132769235Y-95342428D01*
X132775196Y-95366227D01*
X132778796Y-95390495D01*
X132780000Y-95414999D01*
X132780000Y-96065001D01*
X132778796Y-96089505D01*
X132775196Y-96113773D01*
X132769235Y-96137572D01*
X132760970Y-96160671D01*
X132750480Y-96182850D01*
X132737868Y-96203893D01*
X132723253Y-96223599D01*
X132706777Y-96241777D01*
X132688599Y-96258253D01*
X132668893Y-96272868D01*
X132647850Y-96285480D01*
X132625671Y-96295970D01*
X132602572Y-96304235D01*
X132578773Y-96310196D01*
X132554505Y-96313796D01*
X132530001Y-96315000D01*
X131629999Y-96315000D01*
X131605495Y-96313796D01*
X131581227Y-96310196D01*
X131557428Y-96304235D01*
X131534329Y-96295970D01*
X131512150Y-96285480D01*
X131491107Y-96272868D01*
X131471401Y-96258253D01*
X131453223Y-96241777D01*
X131436747Y-96223599D01*
X131422132Y-96203893D01*
X131409520Y-96182850D01*
X131399030Y-96160671D01*
X131390765Y-96137572D01*
X131384804Y-96113773D01*
X131381204Y-96089505D01*
X131380000Y-96065001D01*
X131380000Y-95414999D01*
X131381204Y-95390495D01*
X131384804Y-95366227D01*
X131390765Y-95342428D01*
X131399030Y-95319329D01*
X131409520Y-95297150D01*
X131422132Y-95276107D01*
X131436747Y-95256401D01*
X131453223Y-95238223D01*
X131471401Y-95221747D01*
X131491107Y-95207132D01*
X131512150Y-95194520D01*
X131534329Y-95184030D01*
X131557428Y-95175765D01*
X131581227Y-95169804D01*
X131605495Y-95166204D01*
X131629999Y-95165000D01*
X132530001Y-95165000D01*
X132554505Y-95166204D01*
G37*
G36*
X138904505Y-87301204D02*
G01*
X138928773Y-87304804D01*
X138952572Y-87310765D01*
X138975671Y-87319030D01*
X138997850Y-87329520D01*
X139018893Y-87342132D01*
X139038599Y-87356747D01*
X139056777Y-87373223D01*
X139073253Y-87391401D01*
X139087868Y-87411107D01*
X139100480Y-87432150D01*
X139110970Y-87454329D01*
X139119235Y-87477428D01*
X139125196Y-87501227D01*
X139128796Y-87525495D01*
X139130000Y-87549999D01*
X139130000Y-88200001D01*
X139128796Y-88224505D01*
X139125196Y-88248773D01*
X139119235Y-88272572D01*
X139110970Y-88295671D01*
X139100480Y-88317850D01*
X139087868Y-88338893D01*
X139073253Y-88358599D01*
X139056777Y-88376777D01*
X139038599Y-88393253D01*
X139018893Y-88407868D01*
X138997850Y-88420480D01*
X138975671Y-88430970D01*
X138952572Y-88439235D01*
X138928773Y-88445196D01*
X138904505Y-88448796D01*
X138880001Y-88450000D01*
X137979999Y-88450000D01*
X137955495Y-88448796D01*
X137931227Y-88445196D01*
X137907428Y-88439235D01*
X137884329Y-88430970D01*
X137862150Y-88420480D01*
X137841107Y-88407868D01*
X137821401Y-88393253D01*
X137803223Y-88376777D01*
X137786747Y-88358599D01*
X137772132Y-88338893D01*
X137759520Y-88317850D01*
X137749030Y-88295671D01*
X137740765Y-88272572D01*
X137734804Y-88248773D01*
X137731204Y-88224505D01*
X137730000Y-88200001D01*
X137730000Y-87549999D01*
X137731204Y-87525495D01*
X137734804Y-87501227D01*
X137740765Y-87477428D01*
X137749030Y-87454329D01*
X137759520Y-87432150D01*
X137772132Y-87411107D01*
X137786747Y-87391401D01*
X137803223Y-87373223D01*
X137821401Y-87356747D01*
X137841107Y-87342132D01*
X137862150Y-87329520D01*
X137884329Y-87319030D01*
X137907428Y-87310765D01*
X137931227Y-87304804D01*
X137955495Y-87301204D01*
X137979999Y-87300000D01*
X138880001Y-87300000D01*
X138904505Y-87301204D01*
G37*
G36*
X138904505Y-89351204D02*
G01*
X138928773Y-89354804D01*
X138952572Y-89360765D01*
X138975671Y-89369030D01*
X138997850Y-89379520D01*
X139018893Y-89392132D01*
X139038599Y-89406747D01*
X139056777Y-89423223D01*
X139073253Y-89441401D01*
X139087868Y-89461107D01*
X139100480Y-89482150D01*
X139110970Y-89504329D01*
X139119235Y-89527428D01*
X139125196Y-89551227D01*
X139128796Y-89575495D01*
X139130000Y-89599999D01*
X139130000Y-90250001D01*
X139128796Y-90274505D01*
X139125196Y-90298773D01*
X139119235Y-90322572D01*
X139110970Y-90345671D01*
X139100480Y-90367850D01*
X139087868Y-90388893D01*
X139073253Y-90408599D01*
X139056777Y-90426777D01*
X139038599Y-90443253D01*
X139018893Y-90457868D01*
X138997850Y-90470480D01*
X138975671Y-90480970D01*
X138952572Y-90489235D01*
X138928773Y-90495196D01*
X138904505Y-90498796D01*
X138880001Y-90500000D01*
X137979999Y-90500000D01*
X137955495Y-90498796D01*
X137931227Y-90495196D01*
X137907428Y-90489235D01*
X137884329Y-90480970D01*
X137862150Y-90470480D01*
X137841107Y-90457868D01*
X137821401Y-90443253D01*
X137803223Y-90426777D01*
X137786747Y-90408599D01*
X137772132Y-90388893D01*
X137759520Y-90367850D01*
X137749030Y-90345671D01*
X137740765Y-90322572D01*
X137734804Y-90298773D01*
X137731204Y-90274505D01*
X137730000Y-90250001D01*
X137730000Y-89599999D01*
X137731204Y-89575495D01*
X137734804Y-89551227D01*
X137740765Y-89527428D01*
X137749030Y-89504329D01*
X137759520Y-89482150D01*
X137772132Y-89461107D01*
X137786747Y-89441401D01*
X137803223Y-89423223D01*
X137821401Y-89406747D01*
X137841107Y-89392132D01*
X137862150Y-89379520D01*
X137884329Y-89369030D01*
X137907428Y-89360765D01*
X137931227Y-89354804D01*
X137955495Y-89351204D01*
X137979999Y-89350000D01*
X138880001Y-89350000D01*
X138904505Y-89351204D01*
G37*
G36*
X141444505Y-97216204D02*
G01*
X141468773Y-97219804D01*
X141492572Y-97225765D01*
X141515671Y-97234030D01*
X141537850Y-97244520D01*
X141558893Y-97257132D01*
X141578599Y-97271747D01*
X141596777Y-97288223D01*
X141613253Y-97306401D01*
X141627868Y-97326107D01*
X141640480Y-97347150D01*
X141650970Y-97369329D01*
X141659235Y-97392428D01*
X141665196Y-97416227D01*
X141668796Y-97440495D01*
X141670000Y-97464999D01*
X141670000Y-98115001D01*
X141668796Y-98139505D01*
X141665196Y-98163773D01*
X141659235Y-98187572D01*
X141650970Y-98210671D01*
X141640480Y-98232850D01*
X141627868Y-98253893D01*
X141613253Y-98273599D01*
X141596777Y-98291777D01*
X141578599Y-98308253D01*
X141558893Y-98322868D01*
X141537850Y-98335480D01*
X141515671Y-98345970D01*
X141492572Y-98354235D01*
X141468773Y-98360196D01*
X141444505Y-98363796D01*
X141420001Y-98365000D01*
X140519999Y-98365000D01*
X140495495Y-98363796D01*
X140471227Y-98360196D01*
X140447428Y-98354235D01*
X140424329Y-98345970D01*
X140402150Y-98335480D01*
X140381107Y-98322868D01*
X140361401Y-98308253D01*
X140343223Y-98291777D01*
X140326747Y-98273599D01*
X140312132Y-98253893D01*
X140299520Y-98232850D01*
X140289030Y-98210671D01*
X140280765Y-98187572D01*
X140274804Y-98163773D01*
X140271204Y-98139505D01*
X140270000Y-98115001D01*
X140270000Y-97464999D01*
X140271204Y-97440495D01*
X140274804Y-97416227D01*
X140280765Y-97392428D01*
X140289030Y-97369329D01*
X140299520Y-97347150D01*
X140312132Y-97326107D01*
X140326747Y-97306401D01*
X140343223Y-97288223D01*
X140361401Y-97271747D01*
X140381107Y-97257132D01*
X140402150Y-97244520D01*
X140424329Y-97234030D01*
X140447428Y-97225765D01*
X140471227Y-97219804D01*
X140495495Y-97216204D01*
X140519999Y-97215000D01*
X141420001Y-97215000D01*
X141444505Y-97216204D01*
G37*
G36*
X141444505Y-99266204D02*
G01*
X141468773Y-99269804D01*
X141492572Y-99275765D01*
X141515671Y-99284030D01*
X141537850Y-99294520D01*
X141558893Y-99307132D01*
X141578599Y-99321747D01*
X141596777Y-99338223D01*
X141613253Y-99356401D01*
X141627868Y-99376107D01*
X141640480Y-99397150D01*
X141650970Y-99419329D01*
X141659235Y-99442428D01*
X141665196Y-99466227D01*
X141668796Y-99490495D01*
X141670000Y-99514999D01*
X141670000Y-100165001D01*
X141668796Y-100189505D01*
X141665196Y-100213773D01*
X141659235Y-100237572D01*
X141650970Y-100260671D01*
X141640480Y-100282850D01*
X141627868Y-100303893D01*
X141613253Y-100323599D01*
X141596777Y-100341777D01*
X141578599Y-100358253D01*
X141558893Y-100372868D01*
X141537850Y-100385480D01*
X141515671Y-100395970D01*
X141492572Y-100404235D01*
X141468773Y-100410196D01*
X141444505Y-100413796D01*
X141420001Y-100415000D01*
X140519999Y-100415000D01*
X140495495Y-100413796D01*
X140471227Y-100410196D01*
X140447428Y-100404235D01*
X140424329Y-100395970D01*
X140402150Y-100385480D01*
X140381107Y-100372868D01*
X140361401Y-100358253D01*
X140343223Y-100341777D01*
X140326747Y-100323599D01*
X140312132Y-100303893D01*
X140299520Y-100282850D01*
X140289030Y-100260671D01*
X140280765Y-100237572D01*
X140274804Y-100213773D01*
X140271204Y-100189505D01*
X140270000Y-100165001D01*
X140270000Y-99514999D01*
X140271204Y-99490495D01*
X140274804Y-99466227D01*
X140280765Y-99442428D01*
X140289030Y-99419329D01*
X140299520Y-99397150D01*
X140312132Y-99376107D01*
X140326747Y-99356401D01*
X140343223Y-99338223D01*
X140361401Y-99321747D01*
X140381107Y-99307132D01*
X140402150Y-99294520D01*
X140424329Y-99284030D01*
X140447428Y-99275765D01*
X140471227Y-99269804D01*
X140495495Y-99266204D01*
X140519999Y-99265000D01*
X141420001Y-99265000D01*
X141444505Y-99266204D01*
G37*
G36*
X127474505Y-85541204D02*
G01*
X127498773Y-85544804D01*
X127522572Y-85550765D01*
X127545671Y-85559030D01*
X127567850Y-85569520D01*
X127588893Y-85582132D01*
X127608599Y-85596747D01*
X127626777Y-85613223D01*
X127643253Y-85631401D01*
X127657868Y-85651107D01*
X127670480Y-85672150D01*
X127680970Y-85694329D01*
X127689235Y-85717428D01*
X127695196Y-85741227D01*
X127698796Y-85765495D01*
X127700000Y-85789999D01*
X127700000Y-86440001D01*
X127698796Y-86464505D01*
X127695196Y-86488773D01*
X127689235Y-86512572D01*
X127680970Y-86535671D01*
X127670480Y-86557850D01*
X127657868Y-86578893D01*
X127643253Y-86598599D01*
X127626777Y-86616777D01*
X127608599Y-86633253D01*
X127588893Y-86647868D01*
X127567850Y-86660480D01*
X127545671Y-86670970D01*
X127522572Y-86679235D01*
X127498773Y-86685196D01*
X127474505Y-86688796D01*
X127450001Y-86690000D01*
X126549999Y-86690000D01*
X126525495Y-86688796D01*
X126501227Y-86685196D01*
X126477428Y-86679235D01*
X126454329Y-86670970D01*
X126432150Y-86660480D01*
X126411107Y-86647868D01*
X126391401Y-86633253D01*
X126373223Y-86616777D01*
X126356747Y-86598599D01*
X126342132Y-86578893D01*
X126329520Y-86557850D01*
X126319030Y-86535671D01*
X126310765Y-86512572D01*
X126304804Y-86488773D01*
X126301204Y-86464505D01*
X126300000Y-86440001D01*
X126300000Y-85789999D01*
X126301204Y-85765495D01*
X126304804Y-85741227D01*
X126310765Y-85717428D01*
X126319030Y-85694329D01*
X126329520Y-85672150D01*
X126342132Y-85651107D01*
X126356747Y-85631401D01*
X126373223Y-85613223D01*
X126391401Y-85596747D01*
X126411107Y-85582132D01*
X126432150Y-85569520D01*
X126454329Y-85559030D01*
X126477428Y-85550765D01*
X126501227Y-85544804D01*
X126525495Y-85541204D01*
X126549999Y-85540000D01*
X127450001Y-85540000D01*
X127474505Y-85541204D01*
G37*
G36*
X127474505Y-83491204D02*
G01*
X127498773Y-83494804D01*
X127522572Y-83500765D01*
X127545671Y-83509030D01*
X127567850Y-83519520D01*
X127588893Y-83532132D01*
X127608599Y-83546747D01*
X127626777Y-83563223D01*
X127643253Y-83581401D01*
X127657868Y-83601107D01*
X127670480Y-83622150D01*
X127680970Y-83644329D01*
X127689235Y-83667428D01*
X127695196Y-83691227D01*
X127698796Y-83715495D01*
X127700000Y-83739999D01*
X127700000Y-84390001D01*
X127698796Y-84414505D01*
X127695196Y-84438773D01*
X127689235Y-84462572D01*
X127680970Y-84485671D01*
X127670480Y-84507850D01*
X127657868Y-84528893D01*
X127643253Y-84548599D01*
X127626777Y-84566777D01*
X127608599Y-84583253D01*
X127588893Y-84597868D01*
X127567850Y-84610480D01*
X127545671Y-84620970D01*
X127522572Y-84629235D01*
X127498773Y-84635196D01*
X127474505Y-84638796D01*
X127450001Y-84640000D01*
X126549999Y-84640000D01*
X126525495Y-84638796D01*
X126501227Y-84635196D01*
X126477428Y-84629235D01*
X126454329Y-84620970D01*
X126432150Y-84610480D01*
X126411107Y-84597868D01*
X126391401Y-84583253D01*
X126373223Y-84566777D01*
X126356747Y-84548599D01*
X126342132Y-84528893D01*
X126329520Y-84507850D01*
X126319030Y-84485671D01*
X126310765Y-84462572D01*
X126304804Y-84438773D01*
X126301204Y-84414505D01*
X126300000Y-84390001D01*
X126300000Y-83739999D01*
X126301204Y-83715495D01*
X126304804Y-83691227D01*
X126310765Y-83667428D01*
X126319030Y-83644329D01*
X126329520Y-83622150D01*
X126342132Y-83601107D01*
X126356747Y-83581401D01*
X126373223Y-83563223D01*
X126391401Y-83546747D01*
X126411107Y-83532132D01*
X126432150Y-83519520D01*
X126454329Y-83509030D01*
X126477428Y-83500765D01*
X126501227Y-83494804D01*
X126525495Y-83491204D01*
X126549999Y-83490000D01*
X127450001Y-83490000D01*
X127474505Y-83491204D01*
G37*
G36*
X143984505Y-97216204D02*
G01*
X144008773Y-97219804D01*
X144032572Y-97225765D01*
X144055671Y-97234030D01*
X144077850Y-97244520D01*
X144098893Y-97257132D01*
X144118599Y-97271747D01*
X144136777Y-97288223D01*
X144153253Y-97306401D01*
X144167868Y-97326107D01*
X144180480Y-97347150D01*
X144190970Y-97369329D01*
X144199235Y-97392428D01*
X144205196Y-97416227D01*
X144208796Y-97440495D01*
X144210000Y-97464999D01*
X144210000Y-98115001D01*
X144208796Y-98139505D01*
X144205196Y-98163773D01*
X144199235Y-98187572D01*
X144190970Y-98210671D01*
X144180480Y-98232850D01*
X144167868Y-98253893D01*
X144153253Y-98273599D01*
X144136777Y-98291777D01*
X144118599Y-98308253D01*
X144098893Y-98322868D01*
X144077850Y-98335480D01*
X144055671Y-98345970D01*
X144032572Y-98354235D01*
X144008773Y-98360196D01*
X143984505Y-98363796D01*
X143960001Y-98365000D01*
X143059999Y-98365000D01*
X143035495Y-98363796D01*
X143011227Y-98360196D01*
X142987428Y-98354235D01*
X142964329Y-98345970D01*
X142942150Y-98335480D01*
X142921107Y-98322868D01*
X142901401Y-98308253D01*
X142883223Y-98291777D01*
X142866747Y-98273599D01*
X142852132Y-98253893D01*
X142839520Y-98232850D01*
X142829030Y-98210671D01*
X142820765Y-98187572D01*
X142814804Y-98163773D01*
X142811204Y-98139505D01*
X142810000Y-98115001D01*
X142810000Y-97464999D01*
X142811204Y-97440495D01*
X142814804Y-97416227D01*
X142820765Y-97392428D01*
X142829030Y-97369329D01*
X142839520Y-97347150D01*
X142852132Y-97326107D01*
X142866747Y-97306401D01*
X142883223Y-97288223D01*
X142901401Y-97271747D01*
X142921107Y-97257132D01*
X142942150Y-97244520D01*
X142964329Y-97234030D01*
X142987428Y-97225765D01*
X143011227Y-97219804D01*
X143035495Y-97216204D01*
X143059999Y-97215000D01*
X143960001Y-97215000D01*
X143984505Y-97216204D01*
G37*
G36*
X143984505Y-99266204D02*
G01*
X144008773Y-99269804D01*
X144032572Y-99275765D01*
X144055671Y-99284030D01*
X144077850Y-99294520D01*
X144098893Y-99307132D01*
X144118599Y-99321747D01*
X144136777Y-99338223D01*
X144153253Y-99356401D01*
X144167868Y-99376107D01*
X144180480Y-99397150D01*
X144190970Y-99419329D01*
X144199235Y-99442428D01*
X144205196Y-99466227D01*
X144208796Y-99490495D01*
X144210000Y-99514999D01*
X144210000Y-100165001D01*
X144208796Y-100189505D01*
X144205196Y-100213773D01*
X144199235Y-100237572D01*
X144190970Y-100260671D01*
X144180480Y-100282850D01*
X144167868Y-100303893D01*
X144153253Y-100323599D01*
X144136777Y-100341777D01*
X144118599Y-100358253D01*
X144098893Y-100372868D01*
X144077850Y-100385480D01*
X144055671Y-100395970D01*
X144032572Y-100404235D01*
X144008773Y-100410196D01*
X143984505Y-100413796D01*
X143960001Y-100415000D01*
X143059999Y-100415000D01*
X143035495Y-100413796D01*
X143011227Y-100410196D01*
X142987428Y-100404235D01*
X142964329Y-100395970D01*
X142942150Y-100385480D01*
X142921107Y-100372868D01*
X142901401Y-100358253D01*
X142883223Y-100341777D01*
X142866747Y-100323599D01*
X142852132Y-100303893D01*
X142839520Y-100282850D01*
X142829030Y-100260671D01*
X142820765Y-100237572D01*
X142814804Y-100213773D01*
X142811204Y-100189505D01*
X142810000Y-100165001D01*
X142810000Y-99514999D01*
X142811204Y-99490495D01*
X142814804Y-99466227D01*
X142820765Y-99442428D01*
X142829030Y-99419329D01*
X142839520Y-99397150D01*
X142852132Y-99376107D01*
X142866747Y-99356401D01*
X142883223Y-99338223D01*
X142901401Y-99321747D01*
X142921107Y-99307132D01*
X142942150Y-99294520D01*
X142964329Y-99284030D01*
X142987428Y-99275765D01*
X143011227Y-99269804D01*
X143035495Y-99266204D01*
X143059999Y-99265000D01*
X143960001Y-99265000D01*
X143984505Y-99266204D01*
G37*
G36*
X136364505Y-96191204D02*
G01*
X136388773Y-96194804D01*
X136412572Y-96200765D01*
X136435671Y-96209030D01*
X136457850Y-96219520D01*
X136478893Y-96232132D01*
X136498599Y-96246747D01*
X136516777Y-96263223D01*
X136533253Y-96281401D01*
X136547868Y-96301107D01*
X136560480Y-96322150D01*
X136570970Y-96344329D01*
X136579235Y-96367428D01*
X136585196Y-96391227D01*
X136588796Y-96415495D01*
X136590000Y-96439999D01*
X136590000Y-97090001D01*
X136588796Y-97114505D01*
X136585196Y-97138773D01*
X136579235Y-97162572D01*
X136570970Y-97185671D01*
X136560480Y-97207850D01*
X136547868Y-97228893D01*
X136533253Y-97248599D01*
X136516777Y-97266777D01*
X136498599Y-97283253D01*
X136478893Y-97297868D01*
X136457850Y-97310480D01*
X136435671Y-97320970D01*
X136412572Y-97329235D01*
X136388773Y-97335196D01*
X136364505Y-97338796D01*
X136340001Y-97340000D01*
X135439999Y-97340000D01*
X135415495Y-97338796D01*
X135391227Y-97335196D01*
X135367428Y-97329235D01*
X135344329Y-97320970D01*
X135322150Y-97310480D01*
X135301107Y-97297868D01*
X135281401Y-97283253D01*
X135263223Y-97266777D01*
X135246747Y-97248599D01*
X135232132Y-97228893D01*
X135219520Y-97207850D01*
X135209030Y-97185671D01*
X135200765Y-97162572D01*
X135194804Y-97138773D01*
X135191204Y-97114505D01*
X135190000Y-97090001D01*
X135190000Y-96439999D01*
X135191204Y-96415495D01*
X135194804Y-96391227D01*
X135200765Y-96367428D01*
X135209030Y-96344329D01*
X135219520Y-96322150D01*
X135232132Y-96301107D01*
X135246747Y-96281401D01*
X135263223Y-96263223D01*
X135281401Y-96246747D01*
X135301107Y-96232132D01*
X135322150Y-96219520D01*
X135344329Y-96209030D01*
X135367428Y-96200765D01*
X135391227Y-96194804D01*
X135415495Y-96191204D01*
X135439999Y-96190000D01*
X136340001Y-96190000D01*
X136364505Y-96191204D01*
G37*
G36*
X136364505Y-98241204D02*
G01*
X136388773Y-98244804D01*
X136412572Y-98250765D01*
X136435671Y-98259030D01*
X136457850Y-98269520D01*
X136478893Y-98282132D01*
X136498599Y-98296747D01*
X136516777Y-98313223D01*
X136533253Y-98331401D01*
X136547868Y-98351107D01*
X136560480Y-98372150D01*
X136570970Y-98394329D01*
X136579235Y-98417428D01*
X136585196Y-98441227D01*
X136588796Y-98465495D01*
X136590000Y-98489999D01*
X136590000Y-99140001D01*
X136588796Y-99164505D01*
X136585196Y-99188773D01*
X136579235Y-99212572D01*
X136570970Y-99235671D01*
X136560480Y-99257850D01*
X136547868Y-99278893D01*
X136533253Y-99298599D01*
X136516777Y-99316777D01*
X136498599Y-99333253D01*
X136478893Y-99347868D01*
X136457850Y-99360480D01*
X136435671Y-99370970D01*
X136412572Y-99379235D01*
X136388773Y-99385196D01*
X136364505Y-99388796D01*
X136340001Y-99390000D01*
X135439999Y-99390000D01*
X135415495Y-99388796D01*
X135391227Y-99385196D01*
X135367428Y-99379235D01*
X135344329Y-99370970D01*
X135322150Y-99360480D01*
X135301107Y-99347868D01*
X135281401Y-99333253D01*
X135263223Y-99316777D01*
X135246747Y-99298599D01*
X135232132Y-99278893D01*
X135219520Y-99257850D01*
X135209030Y-99235671D01*
X135200765Y-99212572D01*
X135194804Y-99188773D01*
X135191204Y-99164505D01*
X135190000Y-99140001D01*
X135190000Y-98489999D01*
X135191204Y-98465495D01*
X135194804Y-98441227D01*
X135200765Y-98417428D01*
X135209030Y-98394329D01*
X135219520Y-98372150D01*
X135232132Y-98351107D01*
X135246747Y-98331401D01*
X135263223Y-98313223D01*
X135281401Y-98296747D01*
X135301107Y-98282132D01*
X135322150Y-98269520D01*
X135344329Y-98259030D01*
X135367428Y-98250765D01*
X135391227Y-98244804D01*
X135415495Y-98241204D01*
X135439999Y-98240000D01*
X136340001Y-98240000D01*
X136364505Y-98241204D01*
G37*
G36*
X134254703Y-102570722D02*
G01*
X134269264Y-102572882D01*
X134283543Y-102576459D01*
X134297403Y-102581418D01*
X134310710Y-102587712D01*
X134323336Y-102595280D01*
X134335159Y-102604048D01*
X134346066Y-102613934D01*
X134355952Y-102624841D01*
X134364720Y-102636664D01*
X134372288Y-102649290D01*
X134378582Y-102662597D01*
X134383541Y-102676457D01*
X134387118Y-102690736D01*
X134389278Y-102705297D01*
X134390000Y-102720000D01*
X134390000Y-103020000D01*
X134389278Y-103034703D01*
X134387118Y-103049264D01*
X134383541Y-103063543D01*
X134378582Y-103077403D01*
X134372288Y-103090710D01*
X134364720Y-103103336D01*
X134355952Y-103115159D01*
X134346066Y-103126066D01*
X134335159Y-103135952D01*
X134323336Y-103144720D01*
X134310710Y-103152288D01*
X134297403Y-103158582D01*
X134283543Y-103163541D01*
X134269264Y-103167118D01*
X134254703Y-103169278D01*
X134240000Y-103170000D01*
X132590000Y-103170000D01*
X132575297Y-103169278D01*
X132560736Y-103167118D01*
X132546457Y-103163541D01*
X132532597Y-103158582D01*
X132519290Y-103152288D01*
X132506664Y-103144720D01*
X132494841Y-103135952D01*
X132483934Y-103126066D01*
X132474048Y-103115159D01*
X132465280Y-103103336D01*
X132457712Y-103090710D01*
X132451418Y-103077403D01*
X132446459Y-103063543D01*
X132442882Y-103049264D01*
X132440722Y-103034703D01*
X132440000Y-103020000D01*
X132440000Y-102720000D01*
X132440722Y-102705297D01*
X132442882Y-102690736D01*
X132446459Y-102676457D01*
X132451418Y-102662597D01*
X132457712Y-102649290D01*
X132465280Y-102636664D01*
X132474048Y-102624841D01*
X132483934Y-102613934D01*
X132494841Y-102604048D01*
X132506664Y-102595280D01*
X132519290Y-102587712D01*
X132532597Y-102581418D01*
X132546457Y-102576459D01*
X132560736Y-102572882D01*
X132575297Y-102570722D01*
X132590000Y-102570000D01*
X134240000Y-102570000D01*
X134254703Y-102570722D01*
G37*
G36*
X134254703Y-103840722D02*
G01*
X134269264Y-103842882D01*
X134283543Y-103846459D01*
X134297403Y-103851418D01*
X134310710Y-103857712D01*
X134323336Y-103865280D01*
X134335159Y-103874048D01*
X134346066Y-103883934D01*
X134355952Y-103894841D01*
X134364720Y-103906664D01*
X134372288Y-103919290D01*
X134378582Y-103932597D01*
X134383541Y-103946457D01*
X134387118Y-103960736D01*
X134389278Y-103975297D01*
X134390000Y-103990000D01*
X134390000Y-104290000D01*
X134389278Y-104304703D01*
X134387118Y-104319264D01*
X134383541Y-104333543D01*
X134378582Y-104347403D01*
X134372288Y-104360710D01*
X134364720Y-104373336D01*
X134355952Y-104385159D01*
X134346066Y-104396066D01*
X134335159Y-104405952D01*
X134323336Y-104414720D01*
X134310710Y-104422288D01*
X134297403Y-104428582D01*
X134283543Y-104433541D01*
X134269264Y-104437118D01*
X134254703Y-104439278D01*
X134240000Y-104440000D01*
X132590000Y-104440000D01*
X132575297Y-104439278D01*
X132560736Y-104437118D01*
X132546457Y-104433541D01*
X132532597Y-104428582D01*
X132519290Y-104422288D01*
X132506664Y-104414720D01*
X132494841Y-104405952D01*
X132483934Y-104396066D01*
X132474048Y-104385159D01*
X132465280Y-104373336D01*
X132457712Y-104360710D01*
X132451418Y-104347403D01*
X132446459Y-104333543D01*
X132442882Y-104319264D01*
X132440722Y-104304703D01*
X132440000Y-104290000D01*
X132440000Y-103990000D01*
X132440722Y-103975297D01*
X132442882Y-103960736D01*
X132446459Y-103946457D01*
X132451418Y-103932597D01*
X132457712Y-103919290D01*
X132465280Y-103906664D01*
X132474048Y-103894841D01*
X132483934Y-103883934D01*
X132494841Y-103874048D01*
X132506664Y-103865280D01*
X132519290Y-103857712D01*
X132532597Y-103851418D01*
X132546457Y-103846459D01*
X132560736Y-103842882D01*
X132575297Y-103840722D01*
X132590000Y-103840000D01*
X134240000Y-103840000D01*
X134254703Y-103840722D01*
G37*
G36*
X134254703Y-105110722D02*
G01*
X134269264Y-105112882D01*
X134283543Y-105116459D01*
X134297403Y-105121418D01*
X134310710Y-105127712D01*
X134323336Y-105135280D01*
X134335159Y-105144048D01*
X134346066Y-105153934D01*
X134355952Y-105164841D01*
X134364720Y-105176664D01*
X134372288Y-105189290D01*
X134378582Y-105202597D01*
X134383541Y-105216457D01*
X134387118Y-105230736D01*
X134389278Y-105245297D01*
X134390000Y-105260000D01*
X134390000Y-105560000D01*
X134389278Y-105574703D01*
X134387118Y-105589264D01*
X134383541Y-105603543D01*
X134378582Y-105617403D01*
X134372288Y-105630710D01*
X134364720Y-105643336D01*
X134355952Y-105655159D01*
X134346066Y-105666066D01*
X134335159Y-105675952D01*
X134323336Y-105684720D01*
X134310710Y-105692288D01*
X134297403Y-105698582D01*
X134283543Y-105703541D01*
X134269264Y-105707118D01*
X134254703Y-105709278D01*
X134240000Y-105710000D01*
X132590000Y-105710000D01*
X132575297Y-105709278D01*
X132560736Y-105707118D01*
X132546457Y-105703541D01*
X132532597Y-105698582D01*
X132519290Y-105692288D01*
X132506664Y-105684720D01*
X132494841Y-105675952D01*
X132483934Y-105666066D01*
X132474048Y-105655159D01*
X132465280Y-105643336D01*
X132457712Y-105630710D01*
X132451418Y-105617403D01*
X132446459Y-105603543D01*
X132442882Y-105589264D01*
X132440722Y-105574703D01*
X132440000Y-105560000D01*
X132440000Y-105260000D01*
X132440722Y-105245297D01*
X132442882Y-105230736D01*
X132446459Y-105216457D01*
X132451418Y-105202597D01*
X132457712Y-105189290D01*
X132465280Y-105176664D01*
X132474048Y-105164841D01*
X132483934Y-105153934D01*
X132494841Y-105144048D01*
X132506664Y-105135280D01*
X132519290Y-105127712D01*
X132532597Y-105121418D01*
X132546457Y-105116459D01*
X132560736Y-105112882D01*
X132575297Y-105110722D01*
X132590000Y-105110000D01*
X134240000Y-105110000D01*
X134254703Y-105110722D01*
G37*
G36*
X134254703Y-106380722D02*
G01*
X134269264Y-106382882D01*
X134283543Y-106386459D01*
X134297403Y-106391418D01*
X134310710Y-106397712D01*
X134323336Y-106405280D01*
X134335159Y-106414048D01*
X134346066Y-106423934D01*
X134355952Y-106434841D01*
X134364720Y-106446664D01*
X134372288Y-106459290D01*
X134378582Y-106472597D01*
X134383541Y-106486457D01*
X134387118Y-106500736D01*
X134389278Y-106515297D01*
X134390000Y-106530000D01*
X134390000Y-106830000D01*
X134389278Y-106844703D01*
X134387118Y-106859264D01*
X134383541Y-106873543D01*
X134378582Y-106887403D01*
X134372288Y-106900710D01*
X134364720Y-106913336D01*
X134355952Y-106925159D01*
X134346066Y-106936066D01*
X134335159Y-106945952D01*
X134323336Y-106954720D01*
X134310710Y-106962288D01*
X134297403Y-106968582D01*
X134283543Y-106973541D01*
X134269264Y-106977118D01*
X134254703Y-106979278D01*
X134240000Y-106980000D01*
X132590000Y-106980000D01*
X132575297Y-106979278D01*
X132560736Y-106977118D01*
X132546457Y-106973541D01*
X132532597Y-106968582D01*
X132519290Y-106962288D01*
X132506664Y-106954720D01*
X132494841Y-106945952D01*
X132483934Y-106936066D01*
X132474048Y-106925159D01*
X132465280Y-106913336D01*
X132457712Y-106900710D01*
X132451418Y-106887403D01*
X132446459Y-106873543D01*
X132442882Y-106859264D01*
X132440722Y-106844703D01*
X132440000Y-106830000D01*
X132440000Y-106530000D01*
X132440722Y-106515297D01*
X132442882Y-106500736D01*
X132446459Y-106486457D01*
X132451418Y-106472597D01*
X132457712Y-106459290D01*
X132465280Y-106446664D01*
X132474048Y-106434841D01*
X132483934Y-106423934D01*
X132494841Y-106414048D01*
X132506664Y-106405280D01*
X132519290Y-106397712D01*
X132532597Y-106391418D01*
X132546457Y-106386459D01*
X132560736Y-106382882D01*
X132575297Y-106380722D01*
X132590000Y-106380000D01*
X134240000Y-106380000D01*
X134254703Y-106380722D01*
G37*
G36*
X134254703Y-107650722D02*
G01*
X134269264Y-107652882D01*
X134283543Y-107656459D01*
X134297403Y-107661418D01*
X134310710Y-107667712D01*
X134323336Y-107675280D01*
X134335159Y-107684048D01*
X134346066Y-107693934D01*
X134355952Y-107704841D01*
X134364720Y-107716664D01*
X134372288Y-107729290D01*
X134378582Y-107742597D01*
X134383541Y-107756457D01*
X134387118Y-107770736D01*
X134389278Y-107785297D01*
X134390000Y-107800000D01*
X134390000Y-108100000D01*
X134389278Y-108114703D01*
X134387118Y-108129264D01*
X134383541Y-108143543D01*
X134378582Y-108157403D01*
X134372288Y-108170710D01*
X134364720Y-108183336D01*
X134355952Y-108195159D01*
X134346066Y-108206066D01*
X134335159Y-108215952D01*
X134323336Y-108224720D01*
X134310710Y-108232288D01*
X134297403Y-108238582D01*
X134283543Y-108243541D01*
X134269264Y-108247118D01*
X134254703Y-108249278D01*
X134240000Y-108250000D01*
X132590000Y-108250000D01*
X132575297Y-108249278D01*
X132560736Y-108247118D01*
X132546457Y-108243541D01*
X132532597Y-108238582D01*
X132519290Y-108232288D01*
X132506664Y-108224720D01*
X132494841Y-108215952D01*
X132483934Y-108206066D01*
X132474048Y-108195159D01*
X132465280Y-108183336D01*
X132457712Y-108170710D01*
X132451418Y-108157403D01*
X132446459Y-108143543D01*
X132442882Y-108129264D01*
X132440722Y-108114703D01*
X132440000Y-108100000D01*
X132440000Y-107800000D01*
X132440722Y-107785297D01*
X132442882Y-107770736D01*
X132446459Y-107756457D01*
X132451418Y-107742597D01*
X132457712Y-107729290D01*
X132465280Y-107716664D01*
X132474048Y-107704841D01*
X132483934Y-107693934D01*
X132494841Y-107684048D01*
X132506664Y-107675280D01*
X132519290Y-107667712D01*
X132532597Y-107661418D01*
X132546457Y-107656459D01*
X132560736Y-107652882D01*
X132575297Y-107650722D01*
X132590000Y-107650000D01*
X134240000Y-107650000D01*
X134254703Y-107650722D01*
G37*
G36*
X134254703Y-108920722D02*
G01*
X134269264Y-108922882D01*
X134283543Y-108926459D01*
X134297403Y-108931418D01*
X134310710Y-108937712D01*
X134323336Y-108945280D01*
X134335159Y-108954048D01*
X134346066Y-108963934D01*
X134355952Y-108974841D01*
X134364720Y-108986664D01*
X134372288Y-108999290D01*
X134378582Y-109012597D01*
X134383541Y-109026457D01*
X134387118Y-109040736D01*
X134389278Y-109055297D01*
X134390000Y-109070000D01*
X134390000Y-109370000D01*
X134389278Y-109384703D01*
X134387118Y-109399264D01*
X134383541Y-109413543D01*
X134378582Y-109427403D01*
X134372288Y-109440710D01*
X134364720Y-109453336D01*
X134355952Y-109465159D01*
X134346066Y-109476066D01*
X134335159Y-109485952D01*
X134323336Y-109494720D01*
X134310710Y-109502288D01*
X134297403Y-109508582D01*
X134283543Y-109513541D01*
X134269264Y-109517118D01*
X134254703Y-109519278D01*
X134240000Y-109520000D01*
X132590000Y-109520000D01*
X132575297Y-109519278D01*
X132560736Y-109517118D01*
X132546457Y-109513541D01*
X132532597Y-109508582D01*
X132519290Y-109502288D01*
X132506664Y-109494720D01*
X132494841Y-109485952D01*
X132483934Y-109476066D01*
X132474048Y-109465159D01*
X132465280Y-109453336D01*
X132457712Y-109440710D01*
X132451418Y-109427403D01*
X132446459Y-109413543D01*
X132442882Y-109399264D01*
X132440722Y-109384703D01*
X132440000Y-109370000D01*
X132440000Y-109070000D01*
X132440722Y-109055297D01*
X132442882Y-109040736D01*
X132446459Y-109026457D01*
X132451418Y-109012597D01*
X132457712Y-108999290D01*
X132465280Y-108986664D01*
X132474048Y-108974841D01*
X132483934Y-108963934D01*
X132494841Y-108954048D01*
X132506664Y-108945280D01*
X132519290Y-108937712D01*
X132532597Y-108931418D01*
X132546457Y-108926459D01*
X132560736Y-108922882D01*
X132575297Y-108920722D01*
X132590000Y-108920000D01*
X134240000Y-108920000D01*
X134254703Y-108920722D01*
G37*
G36*
X134254703Y-110190722D02*
G01*
X134269264Y-110192882D01*
X134283543Y-110196459D01*
X134297403Y-110201418D01*
X134310710Y-110207712D01*
X134323336Y-110215280D01*
X134335159Y-110224048D01*
X134346066Y-110233934D01*
X134355952Y-110244841D01*
X134364720Y-110256664D01*
X134372288Y-110269290D01*
X134378582Y-110282597D01*
X134383541Y-110296457D01*
X134387118Y-110310736D01*
X134389278Y-110325297D01*
X134390000Y-110340000D01*
X134390000Y-110640000D01*
X134389278Y-110654703D01*
X134387118Y-110669264D01*
X134383541Y-110683543D01*
X134378582Y-110697403D01*
X134372288Y-110710710D01*
X134364720Y-110723336D01*
X134355952Y-110735159D01*
X134346066Y-110746066D01*
X134335159Y-110755952D01*
X134323336Y-110764720D01*
X134310710Y-110772288D01*
X134297403Y-110778582D01*
X134283543Y-110783541D01*
X134269264Y-110787118D01*
X134254703Y-110789278D01*
X134240000Y-110790000D01*
X132590000Y-110790000D01*
X132575297Y-110789278D01*
X132560736Y-110787118D01*
X132546457Y-110783541D01*
X132532597Y-110778582D01*
X132519290Y-110772288D01*
X132506664Y-110764720D01*
X132494841Y-110755952D01*
X132483934Y-110746066D01*
X132474048Y-110735159D01*
X132465280Y-110723336D01*
X132457712Y-110710710D01*
X132451418Y-110697403D01*
X132446459Y-110683543D01*
X132442882Y-110669264D01*
X132440722Y-110654703D01*
X132440000Y-110640000D01*
X132440000Y-110340000D01*
X132440722Y-110325297D01*
X132442882Y-110310736D01*
X132446459Y-110296457D01*
X132451418Y-110282597D01*
X132457712Y-110269290D01*
X132465280Y-110256664D01*
X132474048Y-110244841D01*
X132483934Y-110233934D01*
X132494841Y-110224048D01*
X132506664Y-110215280D01*
X132519290Y-110207712D01*
X132532597Y-110201418D01*
X132546457Y-110196459D01*
X132560736Y-110192882D01*
X132575297Y-110190722D01*
X132590000Y-110190000D01*
X134240000Y-110190000D01*
X134254703Y-110190722D01*
G37*
G36*
X139204703Y-110190722D02*
G01*
X139219264Y-110192882D01*
X139233543Y-110196459D01*
X139247403Y-110201418D01*
X139260710Y-110207712D01*
X139273336Y-110215280D01*
X139285159Y-110224048D01*
X139296066Y-110233934D01*
X139305952Y-110244841D01*
X139314720Y-110256664D01*
X139322288Y-110269290D01*
X139328582Y-110282597D01*
X139333541Y-110296457D01*
X139337118Y-110310736D01*
X139339278Y-110325297D01*
X139340000Y-110340000D01*
X139340000Y-110640000D01*
X139339278Y-110654703D01*
X139337118Y-110669264D01*
X139333541Y-110683543D01*
X139328582Y-110697403D01*
X139322288Y-110710710D01*
X139314720Y-110723336D01*
X139305952Y-110735159D01*
X139296066Y-110746066D01*
X139285159Y-110755952D01*
X139273336Y-110764720D01*
X139260710Y-110772288D01*
X139247403Y-110778582D01*
X139233543Y-110783541D01*
X139219264Y-110787118D01*
X139204703Y-110789278D01*
X139190000Y-110790000D01*
X137540000Y-110790000D01*
X137525297Y-110789278D01*
X137510736Y-110787118D01*
X137496457Y-110783541D01*
X137482597Y-110778582D01*
X137469290Y-110772288D01*
X137456664Y-110764720D01*
X137444841Y-110755952D01*
X137433934Y-110746066D01*
X137424048Y-110735159D01*
X137415280Y-110723336D01*
X137407712Y-110710710D01*
X137401418Y-110697403D01*
X137396459Y-110683543D01*
X137392882Y-110669264D01*
X137390722Y-110654703D01*
X137390000Y-110640000D01*
X137390000Y-110340000D01*
X137390722Y-110325297D01*
X137392882Y-110310736D01*
X137396459Y-110296457D01*
X137401418Y-110282597D01*
X137407712Y-110269290D01*
X137415280Y-110256664D01*
X137424048Y-110244841D01*
X137433934Y-110233934D01*
X137444841Y-110224048D01*
X137456664Y-110215280D01*
X137469290Y-110207712D01*
X137482597Y-110201418D01*
X137496457Y-110196459D01*
X137510736Y-110192882D01*
X137525297Y-110190722D01*
X137540000Y-110190000D01*
X139190000Y-110190000D01*
X139204703Y-110190722D01*
G37*
G36*
X139204703Y-108920722D02*
G01*
X139219264Y-108922882D01*
X139233543Y-108926459D01*
X139247403Y-108931418D01*
X139260710Y-108937712D01*
X139273336Y-108945280D01*
X139285159Y-108954048D01*
X139296066Y-108963934D01*
X139305952Y-108974841D01*
X139314720Y-108986664D01*
X139322288Y-108999290D01*
X139328582Y-109012597D01*
X139333541Y-109026457D01*
X139337118Y-109040736D01*
X139339278Y-109055297D01*
X139340000Y-109070000D01*
X139340000Y-109370000D01*
X139339278Y-109384703D01*
X139337118Y-109399264D01*
X139333541Y-109413543D01*
X139328582Y-109427403D01*
X139322288Y-109440710D01*
X139314720Y-109453336D01*
X139305952Y-109465159D01*
X139296066Y-109476066D01*
X139285159Y-109485952D01*
X139273336Y-109494720D01*
X139260710Y-109502288D01*
X139247403Y-109508582D01*
X139233543Y-109513541D01*
X139219264Y-109517118D01*
X139204703Y-109519278D01*
X139190000Y-109520000D01*
X137540000Y-109520000D01*
X137525297Y-109519278D01*
X137510736Y-109517118D01*
X137496457Y-109513541D01*
X137482597Y-109508582D01*
X137469290Y-109502288D01*
X137456664Y-109494720D01*
X137444841Y-109485952D01*
X137433934Y-109476066D01*
X137424048Y-109465159D01*
X137415280Y-109453336D01*
X137407712Y-109440710D01*
X137401418Y-109427403D01*
X137396459Y-109413543D01*
X137392882Y-109399264D01*
X137390722Y-109384703D01*
X137390000Y-109370000D01*
X137390000Y-109070000D01*
X137390722Y-109055297D01*
X137392882Y-109040736D01*
X137396459Y-109026457D01*
X137401418Y-109012597D01*
X137407712Y-108999290D01*
X137415280Y-108986664D01*
X137424048Y-108974841D01*
X137433934Y-108963934D01*
X137444841Y-108954048D01*
X137456664Y-108945280D01*
X137469290Y-108937712D01*
X137482597Y-108931418D01*
X137496457Y-108926459D01*
X137510736Y-108922882D01*
X137525297Y-108920722D01*
X137540000Y-108920000D01*
X139190000Y-108920000D01*
X139204703Y-108920722D01*
G37*
G36*
X139204703Y-107650722D02*
G01*
X139219264Y-107652882D01*
X139233543Y-107656459D01*
X139247403Y-107661418D01*
X139260710Y-107667712D01*
X139273336Y-107675280D01*
X139285159Y-107684048D01*
X139296066Y-107693934D01*
X139305952Y-107704841D01*
X139314720Y-107716664D01*
X139322288Y-107729290D01*
X139328582Y-107742597D01*
X139333541Y-107756457D01*
X139337118Y-107770736D01*
X139339278Y-107785297D01*
X139340000Y-107800000D01*
X139340000Y-108100000D01*
X139339278Y-108114703D01*
X139337118Y-108129264D01*
X139333541Y-108143543D01*
X139328582Y-108157403D01*
X139322288Y-108170710D01*
X139314720Y-108183336D01*
X139305952Y-108195159D01*
X139296066Y-108206066D01*
X139285159Y-108215952D01*
X139273336Y-108224720D01*
X139260710Y-108232288D01*
X139247403Y-108238582D01*
X139233543Y-108243541D01*
X139219264Y-108247118D01*
X139204703Y-108249278D01*
X139190000Y-108250000D01*
X137540000Y-108250000D01*
X137525297Y-108249278D01*
X137510736Y-108247118D01*
X137496457Y-108243541D01*
X137482597Y-108238582D01*
X137469290Y-108232288D01*
X137456664Y-108224720D01*
X137444841Y-108215952D01*
X137433934Y-108206066D01*
X137424048Y-108195159D01*
X137415280Y-108183336D01*
X137407712Y-108170710D01*
X137401418Y-108157403D01*
X137396459Y-108143543D01*
X137392882Y-108129264D01*
X137390722Y-108114703D01*
X137390000Y-108100000D01*
X137390000Y-107800000D01*
X137390722Y-107785297D01*
X137392882Y-107770736D01*
X137396459Y-107756457D01*
X137401418Y-107742597D01*
X137407712Y-107729290D01*
X137415280Y-107716664D01*
X137424048Y-107704841D01*
X137433934Y-107693934D01*
X137444841Y-107684048D01*
X137456664Y-107675280D01*
X137469290Y-107667712D01*
X137482597Y-107661418D01*
X137496457Y-107656459D01*
X137510736Y-107652882D01*
X137525297Y-107650722D01*
X137540000Y-107650000D01*
X139190000Y-107650000D01*
X139204703Y-107650722D01*
G37*
G36*
X139204703Y-106380722D02*
G01*
X139219264Y-106382882D01*
X139233543Y-106386459D01*
X139247403Y-106391418D01*
X139260710Y-106397712D01*
X139273336Y-106405280D01*
X139285159Y-106414048D01*
X139296066Y-106423934D01*
X139305952Y-106434841D01*
X139314720Y-106446664D01*
X139322288Y-106459290D01*
X139328582Y-106472597D01*
X139333541Y-106486457D01*
X139337118Y-106500736D01*
X139339278Y-106515297D01*
X139340000Y-106530000D01*
X139340000Y-106830000D01*
X139339278Y-106844703D01*
X139337118Y-106859264D01*
X139333541Y-106873543D01*
X139328582Y-106887403D01*
X139322288Y-106900710D01*
X139314720Y-106913336D01*
X139305952Y-106925159D01*
X139296066Y-106936066D01*
X139285159Y-106945952D01*
X139273336Y-106954720D01*
X139260710Y-106962288D01*
X139247403Y-106968582D01*
X139233543Y-106973541D01*
X139219264Y-106977118D01*
X139204703Y-106979278D01*
X139190000Y-106980000D01*
X137540000Y-106980000D01*
X137525297Y-106979278D01*
X137510736Y-106977118D01*
X137496457Y-106973541D01*
X137482597Y-106968582D01*
X137469290Y-106962288D01*
X137456664Y-106954720D01*
X137444841Y-106945952D01*
X137433934Y-106936066D01*
X137424048Y-106925159D01*
X137415280Y-106913336D01*
X137407712Y-106900710D01*
X137401418Y-106887403D01*
X137396459Y-106873543D01*
X137392882Y-106859264D01*
X137390722Y-106844703D01*
X137390000Y-106830000D01*
X137390000Y-106530000D01*
X137390722Y-106515297D01*
X137392882Y-106500736D01*
X137396459Y-106486457D01*
X137401418Y-106472597D01*
X137407712Y-106459290D01*
X137415280Y-106446664D01*
X137424048Y-106434841D01*
X137433934Y-106423934D01*
X137444841Y-106414048D01*
X137456664Y-106405280D01*
X137469290Y-106397712D01*
X137482597Y-106391418D01*
X137496457Y-106386459D01*
X137510736Y-106382882D01*
X137525297Y-106380722D01*
X137540000Y-106380000D01*
X139190000Y-106380000D01*
X139204703Y-106380722D01*
G37*
G36*
X139204703Y-105110722D02*
G01*
X139219264Y-105112882D01*
X139233543Y-105116459D01*
X139247403Y-105121418D01*
X139260710Y-105127712D01*
X139273336Y-105135280D01*
X139285159Y-105144048D01*
X139296066Y-105153934D01*
X139305952Y-105164841D01*
X139314720Y-105176664D01*
X139322288Y-105189290D01*
X139328582Y-105202597D01*
X139333541Y-105216457D01*
X139337118Y-105230736D01*
X139339278Y-105245297D01*
X139340000Y-105260000D01*
X139340000Y-105560000D01*
X139339278Y-105574703D01*
X139337118Y-105589264D01*
X139333541Y-105603543D01*
X139328582Y-105617403D01*
X139322288Y-105630710D01*
X139314720Y-105643336D01*
X139305952Y-105655159D01*
X139296066Y-105666066D01*
X139285159Y-105675952D01*
X139273336Y-105684720D01*
X139260710Y-105692288D01*
X139247403Y-105698582D01*
X139233543Y-105703541D01*
X139219264Y-105707118D01*
X139204703Y-105709278D01*
X139190000Y-105710000D01*
X137540000Y-105710000D01*
X137525297Y-105709278D01*
X137510736Y-105707118D01*
X137496457Y-105703541D01*
X137482597Y-105698582D01*
X137469290Y-105692288D01*
X137456664Y-105684720D01*
X137444841Y-105675952D01*
X137433934Y-105666066D01*
X137424048Y-105655159D01*
X137415280Y-105643336D01*
X137407712Y-105630710D01*
X137401418Y-105617403D01*
X137396459Y-105603543D01*
X137392882Y-105589264D01*
X137390722Y-105574703D01*
X137390000Y-105560000D01*
X137390000Y-105260000D01*
X137390722Y-105245297D01*
X137392882Y-105230736D01*
X137396459Y-105216457D01*
X137401418Y-105202597D01*
X137407712Y-105189290D01*
X137415280Y-105176664D01*
X137424048Y-105164841D01*
X137433934Y-105153934D01*
X137444841Y-105144048D01*
X137456664Y-105135280D01*
X137469290Y-105127712D01*
X137482597Y-105121418D01*
X137496457Y-105116459D01*
X137510736Y-105112882D01*
X137525297Y-105110722D01*
X137540000Y-105110000D01*
X139190000Y-105110000D01*
X139204703Y-105110722D01*
G37*
G36*
X139204703Y-103840722D02*
G01*
X139219264Y-103842882D01*
X139233543Y-103846459D01*
X139247403Y-103851418D01*
X139260710Y-103857712D01*
X139273336Y-103865280D01*
X139285159Y-103874048D01*
X139296066Y-103883934D01*
X139305952Y-103894841D01*
X139314720Y-103906664D01*
X139322288Y-103919290D01*
X139328582Y-103932597D01*
X139333541Y-103946457D01*
X139337118Y-103960736D01*
X139339278Y-103975297D01*
X139340000Y-103990000D01*
X139340000Y-104290000D01*
X139339278Y-104304703D01*
X139337118Y-104319264D01*
X139333541Y-104333543D01*
X139328582Y-104347403D01*
X139322288Y-104360710D01*
X139314720Y-104373336D01*
X139305952Y-104385159D01*
X139296066Y-104396066D01*
X139285159Y-104405952D01*
X139273336Y-104414720D01*
X139260710Y-104422288D01*
X139247403Y-104428582D01*
X139233543Y-104433541D01*
X139219264Y-104437118D01*
X139204703Y-104439278D01*
X139190000Y-104440000D01*
X137540000Y-104440000D01*
X137525297Y-104439278D01*
X137510736Y-104437118D01*
X137496457Y-104433541D01*
X137482597Y-104428582D01*
X137469290Y-104422288D01*
X137456664Y-104414720D01*
X137444841Y-104405952D01*
X137433934Y-104396066D01*
X137424048Y-104385159D01*
X137415280Y-104373336D01*
X137407712Y-104360710D01*
X137401418Y-104347403D01*
X137396459Y-104333543D01*
X137392882Y-104319264D01*
X137390722Y-104304703D01*
X137390000Y-104290000D01*
X137390000Y-103990000D01*
X137390722Y-103975297D01*
X137392882Y-103960736D01*
X137396459Y-103946457D01*
X137401418Y-103932597D01*
X137407712Y-103919290D01*
X137415280Y-103906664D01*
X137424048Y-103894841D01*
X137433934Y-103883934D01*
X137444841Y-103874048D01*
X137456664Y-103865280D01*
X137469290Y-103857712D01*
X137482597Y-103851418D01*
X137496457Y-103846459D01*
X137510736Y-103842882D01*
X137525297Y-103840722D01*
X137540000Y-103840000D01*
X139190000Y-103840000D01*
X139204703Y-103840722D01*
G37*
G36*
X139204703Y-102570722D02*
G01*
X139219264Y-102572882D01*
X139233543Y-102576459D01*
X139247403Y-102581418D01*
X139260710Y-102587712D01*
X139273336Y-102595280D01*
X139285159Y-102604048D01*
X139296066Y-102613934D01*
X139305952Y-102624841D01*
X139314720Y-102636664D01*
X139322288Y-102649290D01*
X139328582Y-102662597D01*
X139333541Y-102676457D01*
X139337118Y-102690736D01*
X139339278Y-102705297D01*
X139340000Y-102720000D01*
X139340000Y-103020000D01*
X139339278Y-103034703D01*
X139337118Y-103049264D01*
X139333541Y-103063543D01*
X139328582Y-103077403D01*
X139322288Y-103090710D01*
X139314720Y-103103336D01*
X139305952Y-103115159D01*
X139296066Y-103126066D01*
X139285159Y-103135952D01*
X139273336Y-103144720D01*
X139260710Y-103152288D01*
X139247403Y-103158582D01*
X139233543Y-103163541D01*
X139219264Y-103167118D01*
X139204703Y-103169278D01*
X139190000Y-103170000D01*
X137540000Y-103170000D01*
X137525297Y-103169278D01*
X137510736Y-103167118D01*
X137496457Y-103163541D01*
X137482597Y-103158582D01*
X137469290Y-103152288D01*
X137456664Y-103144720D01*
X137444841Y-103135952D01*
X137433934Y-103126066D01*
X137424048Y-103115159D01*
X137415280Y-103103336D01*
X137407712Y-103090710D01*
X137401418Y-103077403D01*
X137396459Y-103063543D01*
X137392882Y-103049264D01*
X137390722Y-103034703D01*
X137390000Y-103020000D01*
X137390000Y-102720000D01*
X137390722Y-102705297D01*
X137392882Y-102690736D01*
X137396459Y-102676457D01*
X137401418Y-102662597D01*
X137407712Y-102649290D01*
X137415280Y-102636664D01*
X137424048Y-102624841D01*
X137433934Y-102613934D01*
X137444841Y-102604048D01*
X137456664Y-102595280D01*
X137469290Y-102587712D01*
X137482597Y-102581418D01*
X137496457Y-102576459D01*
X137510736Y-102572882D01*
X137525297Y-102570722D01*
X137540000Y-102570000D01*
X139190000Y-102570000D01*
X139204703Y-102570722D01*
G37*
D11*
X145780000Y-89850000D03*
X145780000Y-87950000D03*
X143780000Y-88900000D03*
M02*
