G04 #@! TF.GenerationSoftware,KiCad,Pcbnew,5.1.5+dfsg1-2build2*
G04 #@! TF.CreationDate,2021-03-19T14:08:30-04:00*
G04 #@! TF.ProjectId,hawk,6861776b-2e6b-4696-9361-645f70636258,rev?*
G04 #@! TF.SameCoordinates,Original*
G04 #@! TF.FileFunction,Soldermask,Top*
G04 #@! TF.FilePolarity,Negative*
%FSLAX46Y46*%
G04 Gerber Fmt 4.6, Leading zero omitted, Abs format (unit mm)*
G04 Created by KiCad (PCBNEW 5.1.5+dfsg1-2build2) date 2021-03-19 14:08:30*
%MOMM*%
%LPD*%
G04 APERTURE LIST*
%ADD10C,0.100000*%
G04 APERTURE END LIST*
D10*
G36*
X138543512Y-115943927D02*
G01*
X138692812Y-115973624D01*
X138856784Y-116041544D01*
X139004354Y-116140147D01*
X139129853Y-116265646D01*
X139228456Y-116413216D01*
X139296376Y-116577188D01*
X139331000Y-116751259D01*
X139331000Y-116928741D01*
X139296376Y-117102812D01*
X139228456Y-117266784D01*
X139129853Y-117414354D01*
X139004354Y-117539853D01*
X138856784Y-117638456D01*
X138692812Y-117706376D01*
X138543512Y-117736073D01*
X138518742Y-117741000D01*
X138341258Y-117741000D01*
X138316488Y-117736073D01*
X138167188Y-117706376D01*
X138003216Y-117638456D01*
X137855646Y-117539853D01*
X137730147Y-117414354D01*
X137631544Y-117266784D01*
X137563624Y-117102812D01*
X137529000Y-116928741D01*
X137529000Y-116751259D01*
X137563624Y-116577188D01*
X137631544Y-116413216D01*
X137730147Y-116265646D01*
X137855646Y-116140147D01*
X138003216Y-116041544D01*
X138167188Y-115973624D01*
X138316488Y-115943927D01*
X138341258Y-115939000D01*
X138518742Y-115939000D01*
X138543512Y-115943927D01*
G37*
G36*
X136003512Y-115943927D02*
G01*
X136152812Y-115973624D01*
X136316784Y-116041544D01*
X136464354Y-116140147D01*
X136589853Y-116265646D01*
X136688456Y-116413216D01*
X136756376Y-116577188D01*
X136791000Y-116751259D01*
X136791000Y-116928741D01*
X136756376Y-117102812D01*
X136688456Y-117266784D01*
X136589853Y-117414354D01*
X136464354Y-117539853D01*
X136316784Y-117638456D01*
X136152812Y-117706376D01*
X136003512Y-117736073D01*
X135978742Y-117741000D01*
X135801258Y-117741000D01*
X135776488Y-117736073D01*
X135627188Y-117706376D01*
X135463216Y-117638456D01*
X135315646Y-117539853D01*
X135190147Y-117414354D01*
X135091544Y-117266784D01*
X135023624Y-117102812D01*
X134989000Y-116928741D01*
X134989000Y-116751259D01*
X135023624Y-116577188D01*
X135091544Y-116413216D01*
X135190147Y-116265646D01*
X135315646Y-116140147D01*
X135463216Y-116041544D01*
X135627188Y-115973624D01*
X135776488Y-115943927D01*
X135801258Y-115939000D01*
X135978742Y-115939000D01*
X136003512Y-115943927D01*
G37*
G36*
X133463512Y-115943927D02*
G01*
X133612812Y-115973624D01*
X133776784Y-116041544D01*
X133924354Y-116140147D01*
X134049853Y-116265646D01*
X134148456Y-116413216D01*
X134216376Y-116577188D01*
X134251000Y-116751259D01*
X134251000Y-116928741D01*
X134216376Y-117102812D01*
X134148456Y-117266784D01*
X134049853Y-117414354D01*
X133924354Y-117539853D01*
X133776784Y-117638456D01*
X133612812Y-117706376D01*
X133463512Y-117736073D01*
X133438742Y-117741000D01*
X133261258Y-117741000D01*
X133236488Y-117736073D01*
X133087188Y-117706376D01*
X132923216Y-117638456D01*
X132775646Y-117539853D01*
X132650147Y-117414354D01*
X132551544Y-117266784D01*
X132483624Y-117102812D01*
X132449000Y-116928741D01*
X132449000Y-116751259D01*
X132483624Y-116577188D01*
X132551544Y-116413216D01*
X132650147Y-116265646D01*
X132775646Y-116140147D01*
X132923216Y-116041544D01*
X133087188Y-115973624D01*
X133236488Y-115943927D01*
X133261258Y-115939000D01*
X133438742Y-115939000D01*
X133463512Y-115943927D01*
G37*
G36*
X125843512Y-114673927D02*
G01*
X125992812Y-114703624D01*
X126156784Y-114771544D01*
X126304354Y-114870147D01*
X126429853Y-114995646D01*
X126528456Y-115143216D01*
X126596376Y-115307188D01*
X126631000Y-115481259D01*
X126631000Y-115658741D01*
X126596376Y-115832812D01*
X126528456Y-115996784D01*
X126429853Y-116144354D01*
X126304354Y-116269853D01*
X126156784Y-116368456D01*
X125992812Y-116436376D01*
X125843512Y-116466073D01*
X125818742Y-116471000D01*
X125641258Y-116471000D01*
X125616488Y-116466073D01*
X125467188Y-116436376D01*
X125303216Y-116368456D01*
X125155646Y-116269853D01*
X125030147Y-116144354D01*
X124931544Y-115996784D01*
X124863624Y-115832812D01*
X124829000Y-115658741D01*
X124829000Y-115481259D01*
X124863624Y-115307188D01*
X124931544Y-115143216D01*
X125030147Y-114995646D01*
X125155646Y-114870147D01*
X125303216Y-114771544D01*
X125467188Y-114703624D01*
X125616488Y-114673927D01*
X125641258Y-114669000D01*
X125818742Y-114669000D01*
X125843512Y-114673927D01*
G37*
G36*
X145681000Y-116471000D02*
G01*
X143879000Y-116471000D01*
X143879000Y-114669000D01*
X145681000Y-114669000D01*
X145681000Y-116471000D01*
G37*
G36*
X136003512Y-113403927D02*
G01*
X136152812Y-113433624D01*
X136316784Y-113501544D01*
X136464354Y-113600147D01*
X136589853Y-113725646D01*
X136688456Y-113873216D01*
X136756376Y-114037188D01*
X136791000Y-114211259D01*
X136791000Y-114388741D01*
X136756376Y-114562812D01*
X136688456Y-114726784D01*
X136589853Y-114874354D01*
X136464354Y-114999853D01*
X136316784Y-115098456D01*
X136152812Y-115166376D01*
X136003512Y-115196073D01*
X135978742Y-115201000D01*
X135801258Y-115201000D01*
X135776488Y-115196073D01*
X135627188Y-115166376D01*
X135463216Y-115098456D01*
X135315646Y-114999853D01*
X135190147Y-114874354D01*
X135091544Y-114726784D01*
X135023624Y-114562812D01*
X134989000Y-114388741D01*
X134989000Y-114211259D01*
X135023624Y-114037188D01*
X135091544Y-113873216D01*
X135190147Y-113725646D01*
X135315646Y-113600147D01*
X135463216Y-113501544D01*
X135627188Y-113433624D01*
X135776488Y-113403927D01*
X135801258Y-113399000D01*
X135978742Y-113399000D01*
X136003512Y-113403927D01*
G37*
G36*
X139331000Y-115201000D02*
G01*
X137529000Y-115201000D01*
X137529000Y-113399000D01*
X139331000Y-113399000D01*
X139331000Y-115201000D01*
G37*
G36*
X133463512Y-113403927D02*
G01*
X133612812Y-113433624D01*
X133776784Y-113501544D01*
X133924354Y-113600147D01*
X134049853Y-113725646D01*
X134148456Y-113873216D01*
X134216376Y-114037188D01*
X134251000Y-114211259D01*
X134251000Y-114388741D01*
X134216376Y-114562812D01*
X134148456Y-114726784D01*
X134049853Y-114874354D01*
X133924354Y-114999853D01*
X133776784Y-115098456D01*
X133612812Y-115166376D01*
X133463512Y-115196073D01*
X133438742Y-115201000D01*
X133261258Y-115201000D01*
X133236488Y-115196073D01*
X133087188Y-115166376D01*
X132923216Y-115098456D01*
X132775646Y-114999853D01*
X132650147Y-114874354D01*
X132551544Y-114726784D01*
X132483624Y-114562812D01*
X132449000Y-114388741D01*
X132449000Y-114211259D01*
X132483624Y-114037188D01*
X132551544Y-113873216D01*
X132650147Y-113725646D01*
X132775646Y-113600147D01*
X132923216Y-113501544D01*
X133087188Y-113433624D01*
X133236488Y-113403927D01*
X133261258Y-113399000D01*
X133438742Y-113399000D01*
X133463512Y-113403927D01*
G37*
G36*
X125843512Y-112133927D02*
G01*
X125992812Y-112163624D01*
X126156784Y-112231544D01*
X126304354Y-112330147D01*
X126429853Y-112455646D01*
X126528456Y-112603216D01*
X126596376Y-112767188D01*
X126631000Y-112941259D01*
X126631000Y-113118741D01*
X126596376Y-113292812D01*
X126528456Y-113456784D01*
X126429853Y-113604354D01*
X126304354Y-113729853D01*
X126156784Y-113828456D01*
X125992812Y-113896376D01*
X125843512Y-113926073D01*
X125818742Y-113931000D01*
X125641258Y-113931000D01*
X125616488Y-113926073D01*
X125467188Y-113896376D01*
X125303216Y-113828456D01*
X125155646Y-113729853D01*
X125030147Y-113604354D01*
X124931544Y-113456784D01*
X124863624Y-113292812D01*
X124829000Y-113118741D01*
X124829000Y-112941259D01*
X124863624Y-112767188D01*
X124931544Y-112603216D01*
X125030147Y-112455646D01*
X125155646Y-112330147D01*
X125303216Y-112231544D01*
X125467188Y-112163624D01*
X125616488Y-112133927D01*
X125641258Y-112129000D01*
X125818742Y-112129000D01*
X125843512Y-112133927D01*
G37*
G36*
X144893512Y-112133927D02*
G01*
X145042812Y-112163624D01*
X145206784Y-112231544D01*
X145354354Y-112330147D01*
X145479853Y-112455646D01*
X145578456Y-112603216D01*
X145646376Y-112767188D01*
X145681000Y-112941259D01*
X145681000Y-113118741D01*
X145646376Y-113292812D01*
X145578456Y-113456784D01*
X145479853Y-113604354D01*
X145354354Y-113729853D01*
X145206784Y-113828456D01*
X145042812Y-113896376D01*
X144893512Y-113926073D01*
X144868742Y-113931000D01*
X144691258Y-113931000D01*
X144666488Y-113926073D01*
X144517188Y-113896376D01*
X144353216Y-113828456D01*
X144205646Y-113729853D01*
X144080147Y-113604354D01*
X143981544Y-113456784D01*
X143913624Y-113292812D01*
X143879000Y-113118741D01*
X143879000Y-112941259D01*
X143913624Y-112767188D01*
X143981544Y-112603216D01*
X144080147Y-112455646D01*
X144205646Y-112330147D01*
X144353216Y-112231544D01*
X144517188Y-112163624D01*
X144666488Y-112133927D01*
X144691258Y-112129000D01*
X144868742Y-112129000D01*
X144893512Y-112133927D01*
G37*
G36*
X144893512Y-109593927D02*
G01*
X145042812Y-109623624D01*
X145206784Y-109691544D01*
X145354354Y-109790147D01*
X145479853Y-109915646D01*
X145578456Y-110063216D01*
X145646376Y-110227188D01*
X145681000Y-110401259D01*
X145681000Y-110578741D01*
X145646376Y-110752812D01*
X145578456Y-110916784D01*
X145479853Y-111064354D01*
X145354354Y-111189853D01*
X145206784Y-111288456D01*
X145042812Y-111356376D01*
X144893512Y-111386073D01*
X144868742Y-111391000D01*
X144691258Y-111391000D01*
X144666488Y-111386073D01*
X144517188Y-111356376D01*
X144353216Y-111288456D01*
X144205646Y-111189853D01*
X144080147Y-111064354D01*
X143981544Y-110916784D01*
X143913624Y-110752812D01*
X143879000Y-110578741D01*
X143879000Y-110401259D01*
X143913624Y-110227188D01*
X143981544Y-110063216D01*
X144080147Y-109915646D01*
X144205646Y-109790147D01*
X144353216Y-109691544D01*
X144517188Y-109623624D01*
X144666488Y-109593927D01*
X144691258Y-109589000D01*
X144868742Y-109589000D01*
X144893512Y-109593927D01*
G37*
G36*
X125843512Y-109593927D02*
G01*
X125992812Y-109623624D01*
X126156784Y-109691544D01*
X126304354Y-109790147D01*
X126429853Y-109915646D01*
X126528456Y-110063216D01*
X126596376Y-110227188D01*
X126631000Y-110401259D01*
X126631000Y-110578741D01*
X126596376Y-110752812D01*
X126528456Y-110916784D01*
X126429853Y-111064354D01*
X126304354Y-111189853D01*
X126156784Y-111288456D01*
X125992812Y-111356376D01*
X125843512Y-111386073D01*
X125818742Y-111391000D01*
X125641258Y-111391000D01*
X125616488Y-111386073D01*
X125467188Y-111356376D01*
X125303216Y-111288456D01*
X125155646Y-111189853D01*
X125030147Y-111064354D01*
X124931544Y-110916784D01*
X124863624Y-110752812D01*
X124829000Y-110578741D01*
X124829000Y-110401259D01*
X124863624Y-110227188D01*
X124931544Y-110063216D01*
X125030147Y-109915646D01*
X125155646Y-109790147D01*
X125303216Y-109691544D01*
X125467188Y-109623624D01*
X125616488Y-109593927D01*
X125641258Y-109589000D01*
X125818742Y-109589000D01*
X125843512Y-109593927D01*
G37*
G36*
X139299928Y-110141764D02*
G01*
X139321009Y-110148160D01*
X139340445Y-110158548D01*
X139357476Y-110172524D01*
X139371452Y-110189555D01*
X139381840Y-110208991D01*
X139388236Y-110230072D01*
X139391000Y-110258140D01*
X139391000Y-110721860D01*
X139388236Y-110749928D01*
X139381840Y-110771009D01*
X139371452Y-110790445D01*
X139357476Y-110807476D01*
X139340445Y-110821452D01*
X139321009Y-110831840D01*
X139299928Y-110838236D01*
X139271860Y-110841000D01*
X137458140Y-110841000D01*
X137430072Y-110838236D01*
X137408991Y-110831840D01*
X137389555Y-110821452D01*
X137372524Y-110807476D01*
X137358548Y-110790445D01*
X137348160Y-110771009D01*
X137341764Y-110749928D01*
X137339000Y-110721860D01*
X137339000Y-110258140D01*
X137341764Y-110230072D01*
X137348160Y-110208991D01*
X137358548Y-110189555D01*
X137372524Y-110172524D01*
X137389555Y-110158548D01*
X137408991Y-110148160D01*
X137430072Y-110141764D01*
X137458140Y-110139000D01*
X139271860Y-110139000D01*
X139299928Y-110141764D01*
G37*
G36*
X134349928Y-110141764D02*
G01*
X134371009Y-110148160D01*
X134390445Y-110158548D01*
X134407476Y-110172524D01*
X134421452Y-110189555D01*
X134431840Y-110208991D01*
X134438236Y-110230072D01*
X134441000Y-110258140D01*
X134441000Y-110721860D01*
X134438236Y-110749928D01*
X134431840Y-110771009D01*
X134421452Y-110790445D01*
X134407476Y-110807476D01*
X134390445Y-110821452D01*
X134371009Y-110831840D01*
X134349928Y-110838236D01*
X134321860Y-110841000D01*
X132508140Y-110841000D01*
X132480072Y-110838236D01*
X132458991Y-110831840D01*
X132439555Y-110821452D01*
X132422524Y-110807476D01*
X132408548Y-110790445D01*
X132398160Y-110771009D01*
X132391764Y-110749928D01*
X132389000Y-110721860D01*
X132389000Y-110258140D01*
X132391764Y-110230072D01*
X132398160Y-110208991D01*
X132408548Y-110189555D01*
X132422524Y-110172524D01*
X132439555Y-110158548D01*
X132458991Y-110148160D01*
X132480072Y-110141764D01*
X132508140Y-110139000D01*
X134321860Y-110139000D01*
X134349928Y-110141764D01*
G37*
G36*
X134349928Y-108871764D02*
G01*
X134371009Y-108878160D01*
X134390445Y-108888548D01*
X134407476Y-108902524D01*
X134421452Y-108919555D01*
X134431840Y-108938991D01*
X134438236Y-108960072D01*
X134441000Y-108988140D01*
X134441000Y-109451860D01*
X134438236Y-109479928D01*
X134431840Y-109501009D01*
X134421452Y-109520445D01*
X134407476Y-109537476D01*
X134390445Y-109551452D01*
X134371009Y-109561840D01*
X134349928Y-109568236D01*
X134321860Y-109571000D01*
X132508140Y-109571000D01*
X132480072Y-109568236D01*
X132458991Y-109561840D01*
X132439555Y-109551452D01*
X132422524Y-109537476D01*
X132408548Y-109520445D01*
X132398160Y-109501009D01*
X132391764Y-109479928D01*
X132389000Y-109451860D01*
X132389000Y-108988140D01*
X132391764Y-108960072D01*
X132398160Y-108938991D01*
X132408548Y-108919555D01*
X132422524Y-108902524D01*
X132439555Y-108888548D01*
X132458991Y-108878160D01*
X132480072Y-108871764D01*
X132508140Y-108869000D01*
X134321860Y-108869000D01*
X134349928Y-108871764D01*
G37*
G36*
X139299928Y-108871764D02*
G01*
X139321009Y-108878160D01*
X139340445Y-108888548D01*
X139357476Y-108902524D01*
X139371452Y-108919555D01*
X139381840Y-108938991D01*
X139388236Y-108960072D01*
X139391000Y-108988140D01*
X139391000Y-109451860D01*
X139388236Y-109479928D01*
X139381840Y-109501009D01*
X139371452Y-109520445D01*
X139357476Y-109537476D01*
X139340445Y-109551452D01*
X139321009Y-109561840D01*
X139299928Y-109568236D01*
X139271860Y-109571000D01*
X137458140Y-109571000D01*
X137430072Y-109568236D01*
X137408991Y-109561840D01*
X137389555Y-109551452D01*
X137372524Y-109537476D01*
X137358548Y-109520445D01*
X137348160Y-109501009D01*
X137341764Y-109479928D01*
X137339000Y-109451860D01*
X137339000Y-108988140D01*
X137341764Y-108960072D01*
X137348160Y-108938991D01*
X137358548Y-108919555D01*
X137372524Y-108902524D01*
X137389555Y-108888548D01*
X137408991Y-108878160D01*
X137430072Y-108871764D01*
X137458140Y-108869000D01*
X139271860Y-108869000D01*
X139299928Y-108871764D01*
G37*
G36*
X125843512Y-107053927D02*
G01*
X125992812Y-107083624D01*
X126156784Y-107151544D01*
X126304354Y-107250147D01*
X126429853Y-107375646D01*
X126528456Y-107523216D01*
X126596376Y-107687188D01*
X126631000Y-107861259D01*
X126631000Y-108038741D01*
X126596376Y-108212812D01*
X126528456Y-108376784D01*
X126429853Y-108524354D01*
X126304354Y-108649853D01*
X126156784Y-108748456D01*
X125992812Y-108816376D01*
X125843512Y-108846073D01*
X125818742Y-108851000D01*
X125641258Y-108851000D01*
X125616488Y-108846073D01*
X125467188Y-108816376D01*
X125303216Y-108748456D01*
X125155646Y-108649853D01*
X125030147Y-108524354D01*
X124931544Y-108376784D01*
X124863624Y-108212812D01*
X124829000Y-108038741D01*
X124829000Y-107861259D01*
X124863624Y-107687188D01*
X124931544Y-107523216D01*
X125030147Y-107375646D01*
X125155646Y-107250147D01*
X125303216Y-107151544D01*
X125467188Y-107083624D01*
X125616488Y-107053927D01*
X125641258Y-107049000D01*
X125818742Y-107049000D01*
X125843512Y-107053927D01*
G37*
G36*
X144893512Y-107053927D02*
G01*
X145042812Y-107083624D01*
X145206784Y-107151544D01*
X145354354Y-107250147D01*
X145479853Y-107375646D01*
X145578456Y-107523216D01*
X145646376Y-107687188D01*
X145681000Y-107861259D01*
X145681000Y-108038741D01*
X145646376Y-108212812D01*
X145578456Y-108376784D01*
X145479853Y-108524354D01*
X145354354Y-108649853D01*
X145206784Y-108748456D01*
X145042812Y-108816376D01*
X144893512Y-108846073D01*
X144868742Y-108851000D01*
X144691258Y-108851000D01*
X144666488Y-108846073D01*
X144517188Y-108816376D01*
X144353216Y-108748456D01*
X144205646Y-108649853D01*
X144080147Y-108524354D01*
X143981544Y-108376784D01*
X143913624Y-108212812D01*
X143879000Y-108038741D01*
X143879000Y-107861259D01*
X143913624Y-107687188D01*
X143981544Y-107523216D01*
X144080147Y-107375646D01*
X144205646Y-107250147D01*
X144353216Y-107151544D01*
X144517188Y-107083624D01*
X144666488Y-107053927D01*
X144691258Y-107049000D01*
X144868742Y-107049000D01*
X144893512Y-107053927D01*
G37*
G36*
X134349928Y-107601764D02*
G01*
X134371009Y-107608160D01*
X134390445Y-107618548D01*
X134407476Y-107632524D01*
X134421452Y-107649555D01*
X134431840Y-107668991D01*
X134438236Y-107690072D01*
X134441000Y-107718140D01*
X134441000Y-108181860D01*
X134438236Y-108209928D01*
X134431840Y-108231009D01*
X134421452Y-108250445D01*
X134407476Y-108267476D01*
X134390445Y-108281452D01*
X134371009Y-108291840D01*
X134349928Y-108298236D01*
X134321860Y-108301000D01*
X132508140Y-108301000D01*
X132480072Y-108298236D01*
X132458991Y-108291840D01*
X132439555Y-108281452D01*
X132422524Y-108267476D01*
X132408548Y-108250445D01*
X132398160Y-108231009D01*
X132391764Y-108209928D01*
X132389000Y-108181860D01*
X132389000Y-107718140D01*
X132391764Y-107690072D01*
X132398160Y-107668991D01*
X132408548Y-107649555D01*
X132422524Y-107632524D01*
X132439555Y-107618548D01*
X132458991Y-107608160D01*
X132480072Y-107601764D01*
X132508140Y-107599000D01*
X134321860Y-107599000D01*
X134349928Y-107601764D01*
G37*
G36*
X139299928Y-107601764D02*
G01*
X139321009Y-107608160D01*
X139340445Y-107618548D01*
X139357476Y-107632524D01*
X139371452Y-107649555D01*
X139381840Y-107668991D01*
X139388236Y-107690072D01*
X139391000Y-107718140D01*
X139391000Y-108181860D01*
X139388236Y-108209928D01*
X139381840Y-108231009D01*
X139371452Y-108250445D01*
X139357476Y-108267476D01*
X139340445Y-108281452D01*
X139321009Y-108291840D01*
X139299928Y-108298236D01*
X139271860Y-108301000D01*
X137458140Y-108301000D01*
X137430072Y-108298236D01*
X137408991Y-108291840D01*
X137389555Y-108281452D01*
X137372524Y-108267476D01*
X137358548Y-108250445D01*
X137348160Y-108231009D01*
X137341764Y-108209928D01*
X137339000Y-108181860D01*
X137339000Y-107718140D01*
X137341764Y-107690072D01*
X137348160Y-107668991D01*
X137358548Y-107649555D01*
X137372524Y-107632524D01*
X137389555Y-107618548D01*
X137408991Y-107608160D01*
X137430072Y-107601764D01*
X137458140Y-107599000D01*
X139271860Y-107599000D01*
X139299928Y-107601764D01*
G37*
G36*
X134349928Y-106331764D02*
G01*
X134371009Y-106338160D01*
X134390445Y-106348548D01*
X134407476Y-106362524D01*
X134421452Y-106379555D01*
X134431840Y-106398991D01*
X134438236Y-106420072D01*
X134441000Y-106448140D01*
X134441000Y-106911860D01*
X134438236Y-106939928D01*
X134431840Y-106961009D01*
X134421452Y-106980445D01*
X134407476Y-106997476D01*
X134390445Y-107011452D01*
X134371009Y-107021840D01*
X134349928Y-107028236D01*
X134321860Y-107031000D01*
X132508140Y-107031000D01*
X132480072Y-107028236D01*
X132458991Y-107021840D01*
X132439555Y-107011452D01*
X132422524Y-106997476D01*
X132408548Y-106980445D01*
X132398160Y-106961009D01*
X132391764Y-106939928D01*
X132389000Y-106911860D01*
X132389000Y-106448140D01*
X132391764Y-106420072D01*
X132398160Y-106398991D01*
X132408548Y-106379555D01*
X132422524Y-106362524D01*
X132439555Y-106348548D01*
X132458991Y-106338160D01*
X132480072Y-106331764D01*
X132508140Y-106329000D01*
X134321860Y-106329000D01*
X134349928Y-106331764D01*
G37*
G36*
X139299928Y-106331764D02*
G01*
X139321009Y-106338160D01*
X139340445Y-106348548D01*
X139357476Y-106362524D01*
X139371452Y-106379555D01*
X139381840Y-106398991D01*
X139388236Y-106420072D01*
X139391000Y-106448140D01*
X139391000Y-106911860D01*
X139388236Y-106939928D01*
X139381840Y-106961009D01*
X139371452Y-106980445D01*
X139357476Y-106997476D01*
X139340445Y-107011452D01*
X139321009Y-107021840D01*
X139299928Y-107028236D01*
X139271860Y-107031000D01*
X137458140Y-107031000D01*
X137430072Y-107028236D01*
X137408991Y-107021840D01*
X137389555Y-107011452D01*
X137372524Y-106997476D01*
X137358548Y-106980445D01*
X137348160Y-106961009D01*
X137341764Y-106939928D01*
X137339000Y-106911860D01*
X137339000Y-106448140D01*
X137341764Y-106420072D01*
X137348160Y-106398991D01*
X137358548Y-106379555D01*
X137372524Y-106362524D01*
X137389555Y-106348548D01*
X137408991Y-106338160D01*
X137430072Y-106331764D01*
X137458140Y-106329000D01*
X139271860Y-106329000D01*
X139299928Y-106331764D01*
G37*
G36*
X126631000Y-106311000D02*
G01*
X124829000Y-106311000D01*
X124829000Y-104509000D01*
X126631000Y-104509000D01*
X126631000Y-106311000D01*
G37*
G36*
X144893512Y-104513927D02*
G01*
X145042812Y-104543624D01*
X145206784Y-104611544D01*
X145354354Y-104710147D01*
X145479853Y-104835646D01*
X145578456Y-104983216D01*
X145646376Y-105147188D01*
X145681000Y-105321259D01*
X145681000Y-105498741D01*
X145646376Y-105672812D01*
X145578456Y-105836784D01*
X145479853Y-105984354D01*
X145354354Y-106109853D01*
X145206784Y-106208456D01*
X145042812Y-106276376D01*
X144893512Y-106306073D01*
X144868742Y-106311000D01*
X144691258Y-106311000D01*
X144666488Y-106306073D01*
X144517188Y-106276376D01*
X144353216Y-106208456D01*
X144205646Y-106109853D01*
X144080147Y-105984354D01*
X143981544Y-105836784D01*
X143913624Y-105672812D01*
X143879000Y-105498741D01*
X143879000Y-105321259D01*
X143913624Y-105147188D01*
X143981544Y-104983216D01*
X144080147Y-104835646D01*
X144205646Y-104710147D01*
X144353216Y-104611544D01*
X144517188Y-104543624D01*
X144666488Y-104513927D01*
X144691258Y-104509000D01*
X144868742Y-104509000D01*
X144893512Y-104513927D01*
G37*
G36*
X139299928Y-105061764D02*
G01*
X139321009Y-105068160D01*
X139340445Y-105078548D01*
X139357476Y-105092524D01*
X139371452Y-105109555D01*
X139381840Y-105128991D01*
X139388236Y-105150072D01*
X139391000Y-105178140D01*
X139391000Y-105641860D01*
X139388236Y-105669928D01*
X139381840Y-105691009D01*
X139371452Y-105710445D01*
X139357476Y-105727476D01*
X139340445Y-105741452D01*
X139321009Y-105751840D01*
X139299928Y-105758236D01*
X139271860Y-105761000D01*
X137458140Y-105761000D01*
X137430072Y-105758236D01*
X137408991Y-105751840D01*
X137389555Y-105741452D01*
X137372524Y-105727476D01*
X137358548Y-105710445D01*
X137348160Y-105691009D01*
X137341764Y-105669928D01*
X137339000Y-105641860D01*
X137339000Y-105178140D01*
X137341764Y-105150072D01*
X137348160Y-105128991D01*
X137358548Y-105109555D01*
X137372524Y-105092524D01*
X137389555Y-105078548D01*
X137408991Y-105068160D01*
X137430072Y-105061764D01*
X137458140Y-105059000D01*
X139271860Y-105059000D01*
X139299928Y-105061764D01*
G37*
G36*
X134349928Y-105061764D02*
G01*
X134371009Y-105068160D01*
X134390445Y-105078548D01*
X134407476Y-105092524D01*
X134421452Y-105109555D01*
X134431840Y-105128991D01*
X134438236Y-105150072D01*
X134441000Y-105178140D01*
X134441000Y-105641860D01*
X134438236Y-105669928D01*
X134431840Y-105691009D01*
X134421452Y-105710445D01*
X134407476Y-105727476D01*
X134390445Y-105741452D01*
X134371009Y-105751840D01*
X134349928Y-105758236D01*
X134321860Y-105761000D01*
X132508140Y-105761000D01*
X132480072Y-105758236D01*
X132458991Y-105751840D01*
X132439555Y-105741452D01*
X132422524Y-105727476D01*
X132408548Y-105710445D01*
X132398160Y-105691009D01*
X132391764Y-105669928D01*
X132389000Y-105641860D01*
X132389000Y-105178140D01*
X132391764Y-105150072D01*
X132398160Y-105128991D01*
X132408548Y-105109555D01*
X132422524Y-105092524D01*
X132439555Y-105078548D01*
X132458991Y-105068160D01*
X132480072Y-105061764D01*
X132508140Y-105059000D01*
X134321860Y-105059000D01*
X134349928Y-105061764D01*
G37*
G36*
X139299928Y-103791764D02*
G01*
X139321009Y-103798160D01*
X139340445Y-103808548D01*
X139357476Y-103822524D01*
X139371452Y-103839555D01*
X139381840Y-103858991D01*
X139388236Y-103880072D01*
X139391000Y-103908140D01*
X139391000Y-104371860D01*
X139388236Y-104399928D01*
X139381840Y-104421009D01*
X139371452Y-104440445D01*
X139357476Y-104457476D01*
X139340445Y-104471452D01*
X139321009Y-104481840D01*
X139299928Y-104488236D01*
X139271860Y-104491000D01*
X137458140Y-104491000D01*
X137430072Y-104488236D01*
X137408991Y-104481840D01*
X137389555Y-104471452D01*
X137372524Y-104457476D01*
X137358548Y-104440445D01*
X137348160Y-104421009D01*
X137341764Y-104399928D01*
X137339000Y-104371860D01*
X137339000Y-103908140D01*
X137341764Y-103880072D01*
X137348160Y-103858991D01*
X137358548Y-103839555D01*
X137372524Y-103822524D01*
X137389555Y-103808548D01*
X137408991Y-103798160D01*
X137430072Y-103791764D01*
X137458140Y-103789000D01*
X139271860Y-103789000D01*
X139299928Y-103791764D01*
G37*
G36*
X134349928Y-103791764D02*
G01*
X134371009Y-103798160D01*
X134390445Y-103808548D01*
X134407476Y-103822524D01*
X134421452Y-103839555D01*
X134431840Y-103858991D01*
X134438236Y-103880072D01*
X134441000Y-103908140D01*
X134441000Y-104371860D01*
X134438236Y-104399928D01*
X134431840Y-104421009D01*
X134421452Y-104440445D01*
X134407476Y-104457476D01*
X134390445Y-104471452D01*
X134371009Y-104481840D01*
X134349928Y-104488236D01*
X134321860Y-104491000D01*
X132508140Y-104491000D01*
X132480072Y-104488236D01*
X132458991Y-104481840D01*
X132439555Y-104471452D01*
X132422524Y-104457476D01*
X132408548Y-104440445D01*
X132398160Y-104421009D01*
X132391764Y-104399928D01*
X132389000Y-104371860D01*
X132389000Y-103908140D01*
X132391764Y-103880072D01*
X132398160Y-103858991D01*
X132408548Y-103839555D01*
X132422524Y-103822524D01*
X132439555Y-103808548D01*
X132458991Y-103798160D01*
X132480072Y-103791764D01*
X132508140Y-103789000D01*
X134321860Y-103789000D01*
X134349928Y-103791764D01*
G37*
G36*
X139299928Y-102521764D02*
G01*
X139321009Y-102528160D01*
X139340445Y-102538548D01*
X139357476Y-102552524D01*
X139371452Y-102569555D01*
X139381840Y-102588991D01*
X139388236Y-102610072D01*
X139391000Y-102638140D01*
X139391000Y-103101860D01*
X139388236Y-103129928D01*
X139381840Y-103151009D01*
X139371452Y-103170445D01*
X139357476Y-103187476D01*
X139340445Y-103201452D01*
X139321009Y-103211840D01*
X139299928Y-103218236D01*
X139271860Y-103221000D01*
X137458140Y-103221000D01*
X137430072Y-103218236D01*
X137408991Y-103211840D01*
X137389555Y-103201452D01*
X137372524Y-103187476D01*
X137358548Y-103170445D01*
X137348160Y-103151009D01*
X137341764Y-103129928D01*
X137339000Y-103101860D01*
X137339000Y-102638140D01*
X137341764Y-102610072D01*
X137348160Y-102588991D01*
X137358548Y-102569555D01*
X137372524Y-102552524D01*
X137389555Y-102538548D01*
X137408991Y-102528160D01*
X137430072Y-102521764D01*
X137458140Y-102519000D01*
X139271860Y-102519000D01*
X139299928Y-102521764D01*
G37*
G36*
X134349928Y-102521764D02*
G01*
X134371009Y-102528160D01*
X134390445Y-102538548D01*
X134407476Y-102552524D01*
X134421452Y-102569555D01*
X134431840Y-102588991D01*
X134438236Y-102610072D01*
X134441000Y-102638140D01*
X134441000Y-103101860D01*
X134438236Y-103129928D01*
X134431840Y-103151009D01*
X134421452Y-103170445D01*
X134407476Y-103187476D01*
X134390445Y-103201452D01*
X134371009Y-103211840D01*
X134349928Y-103218236D01*
X134321860Y-103221000D01*
X132508140Y-103221000D01*
X132480072Y-103218236D01*
X132458991Y-103211840D01*
X132439555Y-103201452D01*
X132422524Y-103187476D01*
X132408548Y-103170445D01*
X132398160Y-103151009D01*
X132391764Y-103129928D01*
X132389000Y-103101860D01*
X132389000Y-102638140D01*
X132391764Y-102610072D01*
X132398160Y-102588991D01*
X132408548Y-102569555D01*
X132422524Y-102552524D01*
X132439555Y-102538548D01*
X132458991Y-102528160D01*
X132480072Y-102521764D01*
X132508140Y-102519000D01*
X134321860Y-102519000D01*
X134349928Y-102521764D01*
G37*
G36*
X144098674Y-99218465D02*
G01*
X144136367Y-99229899D01*
X144171103Y-99248466D01*
X144201548Y-99273452D01*
X144226534Y-99303897D01*
X144245101Y-99338633D01*
X144256535Y-99376326D01*
X144261000Y-99421661D01*
X144261000Y-100258339D01*
X144256535Y-100303674D01*
X144245101Y-100341367D01*
X144226534Y-100376103D01*
X144201548Y-100406548D01*
X144171103Y-100431534D01*
X144136367Y-100450101D01*
X144098674Y-100461535D01*
X144053339Y-100466000D01*
X142966661Y-100466000D01*
X142921326Y-100461535D01*
X142883633Y-100450101D01*
X142848897Y-100431534D01*
X142818452Y-100406548D01*
X142793466Y-100376103D01*
X142774899Y-100341367D01*
X142763465Y-100303674D01*
X142759000Y-100258339D01*
X142759000Y-99421661D01*
X142763465Y-99376326D01*
X142774899Y-99338633D01*
X142793466Y-99303897D01*
X142818452Y-99273452D01*
X142848897Y-99248466D01*
X142883633Y-99229899D01*
X142921326Y-99218465D01*
X142966661Y-99214000D01*
X144053339Y-99214000D01*
X144098674Y-99218465D01*
G37*
G36*
X141558674Y-99218465D02*
G01*
X141596367Y-99229899D01*
X141631103Y-99248466D01*
X141661548Y-99273452D01*
X141686534Y-99303897D01*
X141705101Y-99338633D01*
X141716535Y-99376326D01*
X141721000Y-99421661D01*
X141721000Y-100258339D01*
X141716535Y-100303674D01*
X141705101Y-100341367D01*
X141686534Y-100376103D01*
X141661548Y-100406548D01*
X141631103Y-100431534D01*
X141596367Y-100450101D01*
X141558674Y-100461535D01*
X141513339Y-100466000D01*
X140426661Y-100466000D01*
X140381326Y-100461535D01*
X140343633Y-100450101D01*
X140308897Y-100431534D01*
X140278452Y-100406548D01*
X140253466Y-100376103D01*
X140234899Y-100341367D01*
X140223465Y-100303674D01*
X140219000Y-100258339D01*
X140219000Y-99421661D01*
X140223465Y-99376326D01*
X140234899Y-99338633D01*
X140253466Y-99303897D01*
X140278452Y-99273452D01*
X140308897Y-99248466D01*
X140343633Y-99229899D01*
X140381326Y-99218465D01*
X140426661Y-99214000D01*
X141513339Y-99214000D01*
X141558674Y-99218465D01*
G37*
G36*
X136478674Y-98193465D02*
G01*
X136516367Y-98204899D01*
X136551103Y-98223466D01*
X136581548Y-98248452D01*
X136606534Y-98278897D01*
X136625101Y-98313633D01*
X136636535Y-98351326D01*
X136641000Y-98396661D01*
X136641000Y-99233339D01*
X136636535Y-99278674D01*
X136625101Y-99316367D01*
X136606534Y-99351103D01*
X136581548Y-99381548D01*
X136551103Y-99406534D01*
X136516367Y-99425101D01*
X136478674Y-99436535D01*
X136433339Y-99441000D01*
X135346661Y-99441000D01*
X135301326Y-99436535D01*
X135263633Y-99425101D01*
X135228897Y-99406534D01*
X135198452Y-99381548D01*
X135173466Y-99351103D01*
X135154899Y-99316367D01*
X135143465Y-99278674D01*
X135139000Y-99233339D01*
X135139000Y-98396661D01*
X135143465Y-98351326D01*
X135154899Y-98313633D01*
X135173466Y-98278897D01*
X135198452Y-98248452D01*
X135228897Y-98223466D01*
X135263633Y-98204899D01*
X135301326Y-98193465D01*
X135346661Y-98189000D01*
X136433339Y-98189000D01*
X136478674Y-98193465D01*
G37*
G36*
X132668674Y-97168465D02*
G01*
X132706367Y-97179899D01*
X132741103Y-97198466D01*
X132771548Y-97223452D01*
X132796534Y-97253897D01*
X132815101Y-97288633D01*
X132826535Y-97326326D01*
X132831000Y-97371661D01*
X132831000Y-98208339D01*
X132826535Y-98253674D01*
X132815101Y-98291367D01*
X132796534Y-98326103D01*
X132771548Y-98356548D01*
X132741103Y-98381534D01*
X132706367Y-98400101D01*
X132668674Y-98411535D01*
X132623339Y-98416000D01*
X131536661Y-98416000D01*
X131491326Y-98411535D01*
X131453633Y-98400101D01*
X131418897Y-98381534D01*
X131388452Y-98356548D01*
X131363466Y-98326103D01*
X131344899Y-98291367D01*
X131333465Y-98253674D01*
X131329000Y-98208339D01*
X131329000Y-97371661D01*
X131333465Y-97326326D01*
X131344899Y-97288633D01*
X131363466Y-97253897D01*
X131388452Y-97223452D01*
X131418897Y-97198466D01*
X131453633Y-97179899D01*
X131491326Y-97168465D01*
X131536661Y-97164000D01*
X132623339Y-97164000D01*
X132668674Y-97168465D01*
G37*
G36*
X144098674Y-97168465D02*
G01*
X144136367Y-97179899D01*
X144171103Y-97198466D01*
X144201548Y-97223452D01*
X144226534Y-97253897D01*
X144245101Y-97288633D01*
X144256535Y-97326326D01*
X144261000Y-97371661D01*
X144261000Y-98208339D01*
X144256535Y-98253674D01*
X144245101Y-98291367D01*
X144226534Y-98326103D01*
X144201548Y-98356548D01*
X144171103Y-98381534D01*
X144136367Y-98400101D01*
X144098674Y-98411535D01*
X144053339Y-98416000D01*
X142966661Y-98416000D01*
X142921326Y-98411535D01*
X142883633Y-98400101D01*
X142848897Y-98381534D01*
X142818452Y-98356548D01*
X142793466Y-98326103D01*
X142774899Y-98291367D01*
X142763465Y-98253674D01*
X142759000Y-98208339D01*
X142759000Y-97371661D01*
X142763465Y-97326326D01*
X142774899Y-97288633D01*
X142793466Y-97253897D01*
X142818452Y-97223452D01*
X142848897Y-97198466D01*
X142883633Y-97179899D01*
X142921326Y-97168465D01*
X142966661Y-97164000D01*
X144053339Y-97164000D01*
X144098674Y-97168465D01*
G37*
G36*
X141558674Y-97168465D02*
G01*
X141596367Y-97179899D01*
X141631103Y-97198466D01*
X141661548Y-97223452D01*
X141686534Y-97253897D01*
X141705101Y-97288633D01*
X141716535Y-97326326D01*
X141721000Y-97371661D01*
X141721000Y-98208339D01*
X141716535Y-98253674D01*
X141705101Y-98291367D01*
X141686534Y-98326103D01*
X141661548Y-98356548D01*
X141631103Y-98381534D01*
X141596367Y-98400101D01*
X141558674Y-98411535D01*
X141513339Y-98416000D01*
X140426661Y-98416000D01*
X140381326Y-98411535D01*
X140343633Y-98400101D01*
X140308897Y-98381534D01*
X140278452Y-98356548D01*
X140253466Y-98326103D01*
X140234899Y-98291367D01*
X140223465Y-98253674D01*
X140219000Y-98208339D01*
X140219000Y-97371661D01*
X140223465Y-97326326D01*
X140234899Y-97288633D01*
X140253466Y-97253897D01*
X140278452Y-97223452D01*
X140308897Y-97198466D01*
X140343633Y-97179899D01*
X140381326Y-97168465D01*
X140426661Y-97164000D01*
X141513339Y-97164000D01*
X141558674Y-97168465D01*
G37*
G36*
X136478674Y-96143465D02*
G01*
X136516367Y-96154899D01*
X136551103Y-96173466D01*
X136581548Y-96198452D01*
X136606534Y-96228897D01*
X136625101Y-96263633D01*
X136636535Y-96301326D01*
X136641000Y-96346661D01*
X136641000Y-97183339D01*
X136636535Y-97228674D01*
X136625101Y-97266367D01*
X136606534Y-97301103D01*
X136581548Y-97331548D01*
X136551103Y-97356534D01*
X136516367Y-97375101D01*
X136478674Y-97386535D01*
X136433339Y-97391000D01*
X135346661Y-97391000D01*
X135301326Y-97386535D01*
X135263633Y-97375101D01*
X135228897Y-97356534D01*
X135198452Y-97331548D01*
X135173466Y-97301103D01*
X135154899Y-97266367D01*
X135143465Y-97228674D01*
X135139000Y-97183339D01*
X135139000Y-96346661D01*
X135143465Y-96301326D01*
X135154899Y-96263633D01*
X135173466Y-96228897D01*
X135198452Y-96198452D01*
X135228897Y-96173466D01*
X135263633Y-96154899D01*
X135301326Y-96143465D01*
X135346661Y-96139000D01*
X136433339Y-96139000D01*
X136478674Y-96143465D01*
G37*
G36*
X126496242Y-95873404D02*
G01*
X126533337Y-95884657D01*
X126567515Y-95902925D01*
X126597481Y-95927519D01*
X126622075Y-95957485D01*
X126640343Y-95991663D01*
X126651596Y-96028758D01*
X126656000Y-96073474D01*
X126656000Y-96966526D01*
X126651596Y-97011242D01*
X126640343Y-97048337D01*
X126622075Y-97082515D01*
X126597481Y-97112481D01*
X126567515Y-97137075D01*
X126533337Y-97155343D01*
X126496242Y-97166596D01*
X126451526Y-97171000D01*
X125008474Y-97171000D01*
X124963758Y-97166596D01*
X124926663Y-97155343D01*
X124892485Y-97137075D01*
X124862519Y-97112481D01*
X124837925Y-97082515D01*
X124819657Y-97048337D01*
X124808404Y-97011242D01*
X124804000Y-96966526D01*
X124804000Y-96073474D01*
X124808404Y-96028758D01*
X124819657Y-95991663D01*
X124837925Y-95957485D01*
X124862519Y-95927519D01*
X124892485Y-95902925D01*
X124926663Y-95884657D01*
X124963758Y-95873404D01*
X125008474Y-95869000D01*
X126451526Y-95869000D01*
X126496242Y-95873404D01*
G37*
G36*
X132668674Y-95118465D02*
G01*
X132706367Y-95129899D01*
X132741103Y-95148466D01*
X132771548Y-95173452D01*
X132796534Y-95203897D01*
X132815101Y-95238633D01*
X132826535Y-95276326D01*
X132831000Y-95321661D01*
X132831000Y-96158339D01*
X132826535Y-96203674D01*
X132815101Y-96241367D01*
X132796534Y-96276103D01*
X132771548Y-96306548D01*
X132741103Y-96331534D01*
X132706367Y-96350101D01*
X132668674Y-96361535D01*
X132623339Y-96366000D01*
X131536661Y-96366000D01*
X131491326Y-96361535D01*
X131453633Y-96350101D01*
X131418897Y-96331534D01*
X131388452Y-96306548D01*
X131363466Y-96276103D01*
X131344899Y-96241367D01*
X131333465Y-96203674D01*
X131329000Y-96158339D01*
X131329000Y-95321661D01*
X131333465Y-95276326D01*
X131344899Y-95238633D01*
X131363466Y-95203897D01*
X131388452Y-95173452D01*
X131418897Y-95148466D01*
X131453633Y-95129899D01*
X131491326Y-95118465D01*
X131536661Y-95114000D01*
X132623339Y-95114000D01*
X132668674Y-95118465D01*
G37*
G36*
X126068855Y-93872140D02*
G01*
X126132618Y-93878420D01*
X126223404Y-93905960D01*
X126255336Y-93915646D01*
X126368425Y-93976094D01*
X126467554Y-94057446D01*
X126548906Y-94156575D01*
X126609354Y-94269664D01*
X126609355Y-94269668D01*
X126646580Y-94392382D01*
X126659149Y-94520000D01*
X126646580Y-94647618D01*
X126619040Y-94738404D01*
X126609354Y-94770336D01*
X126548906Y-94883425D01*
X126467554Y-94982554D01*
X126368425Y-95063906D01*
X126255336Y-95124354D01*
X126237056Y-95129899D01*
X126132618Y-95161580D01*
X126068855Y-95167860D01*
X126036974Y-95171000D01*
X125423026Y-95171000D01*
X125391145Y-95167860D01*
X125327382Y-95161580D01*
X125222944Y-95129899D01*
X125204664Y-95124354D01*
X125091575Y-95063906D01*
X124992446Y-94982554D01*
X124911094Y-94883425D01*
X124850646Y-94770336D01*
X124840960Y-94738404D01*
X124813420Y-94647618D01*
X124800851Y-94520000D01*
X124813420Y-94392382D01*
X124850645Y-94269668D01*
X124850646Y-94269664D01*
X124911094Y-94156575D01*
X124992446Y-94057446D01*
X125091575Y-93976094D01*
X125204664Y-93915646D01*
X125236596Y-93905960D01*
X125327382Y-93878420D01*
X125391145Y-93872140D01*
X125423026Y-93869000D01*
X126036974Y-93869000D01*
X126068855Y-93872140D01*
G37*
G36*
X135208674Y-89303465D02*
G01*
X135246367Y-89314899D01*
X135281103Y-89333466D01*
X135311548Y-89358452D01*
X135336534Y-89388897D01*
X135355101Y-89423633D01*
X135366535Y-89461326D01*
X135371000Y-89506661D01*
X135371000Y-90343339D01*
X135366535Y-90388674D01*
X135355101Y-90426367D01*
X135336534Y-90461103D01*
X135311548Y-90491548D01*
X135281103Y-90516534D01*
X135246367Y-90535101D01*
X135208674Y-90546535D01*
X135163339Y-90551000D01*
X134076661Y-90551000D01*
X134031326Y-90546535D01*
X133993633Y-90535101D01*
X133958897Y-90516534D01*
X133928452Y-90491548D01*
X133903466Y-90461103D01*
X133884899Y-90426367D01*
X133873465Y-90388674D01*
X133869000Y-90343339D01*
X133869000Y-89506661D01*
X133873465Y-89461326D01*
X133884899Y-89423633D01*
X133903466Y-89388897D01*
X133928452Y-89358452D01*
X133958897Y-89333466D01*
X133993633Y-89314899D01*
X134031326Y-89303465D01*
X134076661Y-89299000D01*
X135163339Y-89299000D01*
X135208674Y-89303465D01*
G37*
G36*
X139018674Y-89303465D02*
G01*
X139056367Y-89314899D01*
X139091103Y-89333466D01*
X139121548Y-89358452D01*
X139146534Y-89388897D01*
X139165101Y-89423633D01*
X139176535Y-89461326D01*
X139181000Y-89506661D01*
X139181000Y-90343339D01*
X139176535Y-90388674D01*
X139165101Y-90426367D01*
X139146534Y-90461103D01*
X139121548Y-90491548D01*
X139091103Y-90516534D01*
X139056367Y-90535101D01*
X139018674Y-90546535D01*
X138973339Y-90551000D01*
X137886661Y-90551000D01*
X137841326Y-90546535D01*
X137803633Y-90535101D01*
X137768897Y-90516534D01*
X137738452Y-90491548D01*
X137713466Y-90461103D01*
X137694899Y-90426367D01*
X137683465Y-90388674D01*
X137679000Y-90343339D01*
X137679000Y-89506661D01*
X137683465Y-89461326D01*
X137694899Y-89423633D01*
X137713466Y-89388897D01*
X137738452Y-89358452D01*
X137768897Y-89333466D01*
X137803633Y-89314899D01*
X137841326Y-89303465D01*
X137886661Y-89299000D01*
X138973339Y-89299000D01*
X139018674Y-89303465D01*
G37*
G36*
X146281000Y-90301000D02*
G01*
X145279000Y-90301000D01*
X145279000Y-89399000D01*
X146281000Y-89399000D01*
X146281000Y-90301000D01*
G37*
G36*
X144281000Y-89351000D02*
G01*
X143279000Y-89351000D01*
X143279000Y-88449000D01*
X144281000Y-88449000D01*
X144281000Y-89351000D01*
G37*
G36*
X139018674Y-87253465D02*
G01*
X139056367Y-87264899D01*
X139091103Y-87283466D01*
X139121548Y-87308452D01*
X139146534Y-87338897D01*
X139165101Y-87373633D01*
X139176535Y-87411326D01*
X139181000Y-87456661D01*
X139181000Y-88293339D01*
X139176535Y-88338674D01*
X139165101Y-88376367D01*
X139146534Y-88411103D01*
X139121548Y-88441548D01*
X139091103Y-88466534D01*
X139056367Y-88485101D01*
X139018674Y-88496535D01*
X138973339Y-88501000D01*
X137886661Y-88501000D01*
X137841326Y-88496535D01*
X137803633Y-88485101D01*
X137768897Y-88466534D01*
X137738452Y-88441548D01*
X137713466Y-88411103D01*
X137694899Y-88376367D01*
X137683465Y-88338674D01*
X137679000Y-88293339D01*
X137679000Y-87456661D01*
X137683465Y-87411326D01*
X137694899Y-87373633D01*
X137713466Y-87338897D01*
X137738452Y-87308452D01*
X137768897Y-87283466D01*
X137803633Y-87264899D01*
X137841326Y-87253465D01*
X137886661Y-87249000D01*
X138973339Y-87249000D01*
X139018674Y-87253465D01*
G37*
G36*
X135208674Y-87253465D02*
G01*
X135246367Y-87264899D01*
X135281103Y-87283466D01*
X135311548Y-87308452D01*
X135336534Y-87338897D01*
X135355101Y-87373633D01*
X135366535Y-87411326D01*
X135371000Y-87456661D01*
X135371000Y-88293339D01*
X135366535Y-88338674D01*
X135355101Y-88376367D01*
X135336534Y-88411103D01*
X135311548Y-88441548D01*
X135281103Y-88466534D01*
X135246367Y-88485101D01*
X135208674Y-88496535D01*
X135163339Y-88501000D01*
X134076661Y-88501000D01*
X134031326Y-88496535D01*
X133993633Y-88485101D01*
X133958897Y-88466534D01*
X133928452Y-88441548D01*
X133903466Y-88411103D01*
X133884899Y-88376367D01*
X133873465Y-88338674D01*
X133869000Y-88293339D01*
X133869000Y-87456661D01*
X133873465Y-87411326D01*
X133884899Y-87373633D01*
X133903466Y-87338897D01*
X133928452Y-87308452D01*
X133958897Y-87283466D01*
X133993633Y-87264899D01*
X134031326Y-87253465D01*
X134076661Y-87249000D01*
X135163339Y-87249000D01*
X135208674Y-87253465D01*
G37*
G36*
X146281000Y-88401000D02*
G01*
X145279000Y-88401000D01*
X145279000Y-87499000D01*
X146281000Y-87499000D01*
X146281000Y-88401000D01*
G37*
G36*
X127588674Y-85493465D02*
G01*
X127626367Y-85504899D01*
X127661103Y-85523466D01*
X127691548Y-85548452D01*
X127716534Y-85578897D01*
X127735101Y-85613633D01*
X127746535Y-85651326D01*
X127751000Y-85696661D01*
X127751000Y-86533339D01*
X127746535Y-86578674D01*
X127735101Y-86616367D01*
X127716534Y-86651103D01*
X127691548Y-86681548D01*
X127661103Y-86706534D01*
X127626367Y-86725101D01*
X127588674Y-86736535D01*
X127543339Y-86741000D01*
X126456661Y-86741000D01*
X126411326Y-86736535D01*
X126373633Y-86725101D01*
X126338897Y-86706534D01*
X126308452Y-86681548D01*
X126283466Y-86651103D01*
X126264899Y-86616367D01*
X126253465Y-86578674D01*
X126249000Y-86533339D01*
X126249000Y-85696661D01*
X126253465Y-85651326D01*
X126264899Y-85613633D01*
X126283466Y-85578897D01*
X126308452Y-85548452D01*
X126338897Y-85523466D01*
X126373633Y-85504899D01*
X126411326Y-85493465D01*
X126456661Y-85489000D01*
X127543339Y-85489000D01*
X127588674Y-85493465D01*
G37*
G36*
X127588674Y-83443465D02*
G01*
X127626367Y-83454899D01*
X127661103Y-83473466D01*
X127691548Y-83498452D01*
X127716534Y-83528897D01*
X127735101Y-83563633D01*
X127746535Y-83601326D01*
X127751000Y-83646661D01*
X127751000Y-84483339D01*
X127746535Y-84528674D01*
X127735101Y-84566367D01*
X127716534Y-84601103D01*
X127691548Y-84631548D01*
X127661103Y-84656534D01*
X127626367Y-84675101D01*
X127588674Y-84686535D01*
X127543339Y-84691000D01*
X126456661Y-84691000D01*
X126411326Y-84686535D01*
X126373633Y-84675101D01*
X126338897Y-84656534D01*
X126308452Y-84631548D01*
X126283466Y-84601103D01*
X126264899Y-84566367D01*
X126253465Y-84528674D01*
X126249000Y-84483339D01*
X126249000Y-83646661D01*
X126253465Y-83601326D01*
X126264899Y-83563633D01*
X126283466Y-83528897D01*
X126308452Y-83498452D01*
X126338897Y-83473466D01*
X126373633Y-83454899D01*
X126411326Y-83443465D01*
X126456661Y-83439000D01*
X127543339Y-83439000D01*
X127588674Y-83443465D01*
G37*
G36*
X138886564Y-80959389D02*
G01*
X139077833Y-81038615D01*
X139077835Y-81038616D01*
X139249973Y-81153635D01*
X139396365Y-81300027D01*
X139511385Y-81472167D01*
X139590611Y-81663436D01*
X139631000Y-81866484D01*
X139631000Y-82073516D01*
X139590611Y-82276564D01*
X139511385Y-82467833D01*
X139511384Y-82467835D01*
X139396365Y-82639973D01*
X139249973Y-82786365D01*
X139077835Y-82901384D01*
X139077834Y-82901385D01*
X139077833Y-82901385D01*
X138886564Y-82980611D01*
X138683516Y-83021000D01*
X138476484Y-83021000D01*
X138273436Y-82980611D01*
X138082167Y-82901385D01*
X138082166Y-82901385D01*
X138082165Y-82901384D01*
X137910027Y-82786365D01*
X137763635Y-82639973D01*
X137648616Y-82467835D01*
X137648615Y-82467833D01*
X137569389Y-82276564D01*
X137529000Y-82073516D01*
X137529000Y-81866484D01*
X137569389Y-81663436D01*
X137648615Y-81472167D01*
X137763635Y-81300027D01*
X137910027Y-81153635D01*
X138082165Y-81038616D01*
X138082167Y-81038615D01*
X138273436Y-80959389D01*
X138476484Y-80919000D01*
X138683516Y-80919000D01*
X138886564Y-80959389D01*
G37*
G36*
X132386564Y-80959389D02*
G01*
X132577833Y-81038615D01*
X132577835Y-81038616D01*
X132749973Y-81153635D01*
X132896365Y-81300027D01*
X133011385Y-81472167D01*
X133090611Y-81663436D01*
X133131000Y-81866484D01*
X133131000Y-82073516D01*
X133090611Y-82276564D01*
X133011385Y-82467833D01*
X133011384Y-82467835D01*
X132896365Y-82639973D01*
X132749973Y-82786365D01*
X132577835Y-82901384D01*
X132577834Y-82901385D01*
X132577833Y-82901385D01*
X132386564Y-82980611D01*
X132183516Y-83021000D01*
X131976484Y-83021000D01*
X131773436Y-82980611D01*
X131582167Y-82901385D01*
X131582166Y-82901385D01*
X131582165Y-82901384D01*
X131410027Y-82786365D01*
X131263635Y-82639973D01*
X131148616Y-82467835D01*
X131148615Y-82467833D01*
X131069389Y-82276564D01*
X131029000Y-82073516D01*
X131029000Y-81866484D01*
X131069389Y-81663436D01*
X131148615Y-81472167D01*
X131263635Y-81300027D01*
X131410027Y-81153635D01*
X131582165Y-81038616D01*
X131582167Y-81038615D01*
X131773436Y-80959389D01*
X131976484Y-80919000D01*
X132183516Y-80919000D01*
X132386564Y-80959389D01*
G37*
G36*
X138886564Y-76459389D02*
G01*
X139077833Y-76538615D01*
X139077835Y-76538616D01*
X139249973Y-76653635D01*
X139396365Y-76800027D01*
X139511385Y-76972167D01*
X139590611Y-77163436D01*
X139631000Y-77366484D01*
X139631000Y-77573516D01*
X139590611Y-77776564D01*
X139511385Y-77967833D01*
X139511384Y-77967835D01*
X139396365Y-78139973D01*
X139249973Y-78286365D01*
X139077835Y-78401384D01*
X139077834Y-78401385D01*
X139077833Y-78401385D01*
X138886564Y-78480611D01*
X138683516Y-78521000D01*
X138476484Y-78521000D01*
X138273436Y-78480611D01*
X138082167Y-78401385D01*
X138082166Y-78401385D01*
X138082165Y-78401384D01*
X137910027Y-78286365D01*
X137763635Y-78139973D01*
X137648616Y-77967835D01*
X137648615Y-77967833D01*
X137569389Y-77776564D01*
X137529000Y-77573516D01*
X137529000Y-77366484D01*
X137569389Y-77163436D01*
X137648615Y-76972167D01*
X137763635Y-76800027D01*
X137910027Y-76653635D01*
X138082165Y-76538616D01*
X138082167Y-76538615D01*
X138273436Y-76459389D01*
X138476484Y-76419000D01*
X138683516Y-76419000D01*
X138886564Y-76459389D01*
G37*
G36*
X132386564Y-76459389D02*
G01*
X132577833Y-76538615D01*
X132577835Y-76538616D01*
X132749973Y-76653635D01*
X132896365Y-76800027D01*
X133011385Y-76972167D01*
X133090611Y-77163436D01*
X133131000Y-77366484D01*
X133131000Y-77573516D01*
X133090611Y-77776564D01*
X133011385Y-77967833D01*
X133011384Y-77967835D01*
X132896365Y-78139973D01*
X132749973Y-78286365D01*
X132577835Y-78401384D01*
X132577834Y-78401385D01*
X132577833Y-78401385D01*
X132386564Y-78480611D01*
X132183516Y-78521000D01*
X131976484Y-78521000D01*
X131773436Y-78480611D01*
X131582167Y-78401385D01*
X131582166Y-78401385D01*
X131582165Y-78401384D01*
X131410027Y-78286365D01*
X131263635Y-78139973D01*
X131148616Y-77967835D01*
X131148615Y-77967833D01*
X131069389Y-77776564D01*
X131029000Y-77573516D01*
X131029000Y-77366484D01*
X131069389Y-77163436D01*
X131148615Y-76972167D01*
X131263635Y-76800027D01*
X131410027Y-76653635D01*
X131582165Y-76538616D01*
X131582167Y-76538615D01*
X131773436Y-76459389D01*
X131976484Y-76419000D01*
X132183516Y-76419000D01*
X132386564Y-76459389D01*
G37*
M02*
